<?xml version="1.0" encoding="utf-8"?>
<!-- Generator: Adobe Illustrator 26.5.0, SVG Export Plug-In . SVG Version: 6.00 Build 0)  -->
<svg version="1.1" id="Layer_1" xmlns="http://www.w3.org/2000/svg" xmlns:xlink="http://www.w3.org/1999/xlink" x="0px" y="0px"
	 viewBox="0 0 2352.3 1044" style="enable-background:new 0 0 2352.3 1044;" xml:space="preserve">
<style type="text/css">
	.st0{fill:#C4C6C8;stroke:#231F20;stroke-width:2;stroke-miterlimit:10;}
	.st1{fill:#3FA9F5;}
	.st2{fill-rule:evenodd;clip-rule:evenodd;}
	.st3{fill:none;stroke:#6700F4;stroke-width:3;stroke-miterlimit:10;}
	.st4{fill:#6700F4;}
	.st5{fill:none;stroke:#A4AEB4;stroke-width:3;stroke-miterlimit:10;}
	.st6{fill:#A4AEB4;}
	.st7{fill:#231F20;stroke:#231F20;stroke-width:22;stroke-miterlimit:10;}
	.st8{fill:none;stroke:#000000;stroke-width:3;stroke-miterlimit:10;}
	.st9{fill:none;stroke:#3FA9F5;stroke-width:3;stroke-miterlimit:10;}
	.st10{fill-rule:evenodd;clip-rule:evenodd;fill:#6700F4;}
	.st11{fill-rule:evenodd;clip-rule:evenodd;fill:#3FA9F5;}
	.st12{fill-rule:evenodd;clip-rule:evenodd;fill:#231F20;}
</style>
<path d="M77.5,118c31.7,0,57.5,25.8,57.5,57.5S109.2,233,77.5,233S20,207.2,20,175.5S45.8,118,77.5,118 M77.5,115
	C44.1,115,17,142.1,17,175.5S44.1,236,77.5,236s60.5-27.1,60.5-60.5S110.9,115,77.5,115L77.5,115z"/>
<rect x="677.2" y="33.8" class="st0" width="267.7" height="984.9"/>
<rect x="1560.6" y="33.8" class="st0" width="267.7" height="984.9"/>
<g>
	<path d="M751,234c33.1,0,60,26.9,60,60s-26.9,60-60,60s-60-26.9-60-60S717.9,234,751,234 M751,231c-34.8,0-63,28.2-63,63
		s28.2,63,63,63s63-28.2,63-63S785.8,231,751,231L751,231z"/>
</g>
<g>
	<path d="M77.5,337c31.7,0,57.5,25.8,57.5,57.5S109.2,452,77.5,452S20,426.2,20,394.5S45.8,337,77.5,337 M77.5,334
		C44.1,334,17,361.1,17,394.5S44.1,455,77.5,455s60.5-27.1,60.5-60.5S110.9,334,77.5,334L77.5,334z"/>
</g>
<g>
	<path d="M2120.1,505.5c31.7,0,57.5,25.8,57.5,57.5s-25.8,57.5-57.5,57.5s-57.5-25.8-57.5-57.5S2088.4,505.5,2120.1,505.5
		 M2120.1,502.5c-33.4,0-60.5,27.1-60.5,60.5s27.1,60.5,60.5,60.5c33.4,0,60.5-27.1,60.5-60.5S2153.5,502.5,2120.1,502.5
		L2120.1,502.5z"/>
</g>
<g>
	<path d="M77.5,811c31.7,0,57.5,25.8,57.5,57.5S109.2,926,77.5,926S20,900.2,20,868.5S45.8,811,77.5,811 M77.5,808
		C44.1,808,17,835.1,17,868.5S44.1,929,77.5,929s60.5-27.1,60.5-60.5S110.9,808,77.5,808L77.5,808z"/>
</g>
<g>
	<path class="st1" d="M870.5,50c31.7,0,57.5,25.8,57.5,57.5S902.2,165,870.5,165S813,139.2,813,107.5S838.8,50,870.5,50 M870.5,47
		c-33.4,0-60.5,27.1-60.5,60.5s27.1,60.5,60.5,60.5s60.5-27.1,60.5-60.5S903.9,47,870.5,47L870.5,47z"/>
</g>
<g>
	<path class="st2" d="M68,163.6c0.4-2,1.8-8.7,6.4-8.7c0.4,0,1.9,0,3.2,0.9c-1.8,0.3-3.1,2.3-3.1,4.1c0,1.2,0.8,2.6,2.5,2.6
		c1.4,0,3.5-1.2,3.5-4.4c0-3.8-3.8-4.8-6-4.8c-3.8,0-6,3.9-6.7,5.6c-1.7-4.8-5.2-5.6-7-5.6c-6.7,0-10.5,9.7-10.5,11.5
		c0,0.8,0.6,0.8,0.8,0.8c0.5,0,0.8-0.2,0.9-0.8c2.2-8,6.5-9.8,8.7-9.8c1.2,0,3.5,0.6,3.5,5c0,2.3-1.2,7.4-3.5,17.9
		c-1,4.7-3.4,7.8-6.2,7.8c-0.4,0-1.8,0-3.2-1.1c1.7-0.3,3.1-2,3.1-4.1c0-2-1.4-2.6-2.5-2.6c-1.9,0-3.5,2-3.5,4.4c0,3.5,3.2,5,6.1,5
		c4.3,0,6.6-5.3,6.7-5.7c0.8,2.7,3.1,5.7,7,5.7c6.6,0,10.4-9.8,10.4-11.6c0-0.8-0.6-0.8-0.8-0.8c-0.6,0-0.8,0.3-0.9,0.8
		c-2.1,8.1-6.5,10-8.6,10c-2.5,0-3.5-2.4-3.5-5c0-1.7,0.4-3.3,1-6.6L68,163.6"/>
	<path class="st2" d="M99.1,163.8c0-1.5,0-1.5-1.3-1.5c-2.8,3.3-7,3.3-8.9,3.3v2c1.2,0,4.1,0,6.6-1.5v27c0,1.7,0,2.4-4.5,2.4h-1.7
		v1.8c0.8,0,6.3-0.2,8-0.2c1.4,0,7.1,0.2,8.2,0.2v-1.8h-1.8c-4.5,0-4.5-0.8-4.5-2.4L99.1,163.8"/>
</g>
<g>
	<path class="st2" d="M62.2,856.6c0.4-1.9,1.9-8.6,6.3-8.6c0.3,0,1.8,0,3.2,0.9c-1.8,0.3-3,2.2-3,4c0,1.2,0.6,2.5,2.4,2.5
		c1.4,0,3.4-1.2,3.4-4.3c0-3.7-3.8-4.7-5.9-4.7c-3.7,0-5.8,3.9-6.6,5.5c-1.6-4.7-5.1-5.5-6.8-5.5c-6.6,0-10.1,9.5-10.1,11.3
		c0,0.7,0.6,0.7,0.8,0.7c0.5,0,0.6-0.1,0.8-0.7c2.1-7.9,6.3-9.6,8.5-9.6c1.1,0,3.4,0.6,3.4,4.9c0,2.2-1.1,7.3-3.4,17.6
		c-1,4.6-3.2,7.7-5.9,7.7c-0.4,0-1.9,0-3.2-1c1.5-0.3,2.9-1.9,2.9-4c0-1.9-1.4-2.5-2.3-2.5c-1.9,0-3.5,1.9-3.5,4.3
		c0,3.4,3.2,4.9,5.9,4.9c4.2,0,6.4-5.2,6.6-5.6c0.8,2.7,3,5.6,6.8,5.6c6.6,0,10.1-9.6,10.1-11.4c0-0.7-0.5-0.7-0.8-0.7
		c-0.5,0-0.6,0.3-0.8,0.7c-2.1,8-6.4,9.8-8.5,9.8c-2.4,0-3.4-2.4-3.4-4.9c0-1.6,0.4-3.3,1-6.5L62.2,856.6"/>
	<path class="st2" d="M85.7,886.1c-0.4,1.8-0.5,2.2-3.9,2.2c-0.8,0-1.3,0-1.3,1c0,0.7,0.5,0.7,1.3,0.7h15.8
		c9.7,0,19.1-10.5,19.1-21.8c0-7.6-4.4-13.6-11.6-13.6H89c-0.9,0-1.4,0-1.4,1.2c0,0.7,0.5,0.7,1.5,0.7c0.6,0,0.9,0,1.6,0.1
		c0.9,0,1,0.1,1,0.7c0,0,0,0.3-0.3,1L85.7,886.1L85.7,886.1L85.7,886.1z M95.5,858.4c0.4-1.6,0.4-1.8,2.3-1.8h5.6
		c4.9,0,9.1,3,9.1,9.9c0,1.2-0.4,10.2-4.8,16.1c-1.8,2.2-5.6,5.6-11,5.6h-5.9c-1.4,0-1.4-0.1-1.4-0.6c0,0,0-0.3,0.1-1L95.5,858.4"/>
</g>
<g>
	<path class="st2" d="M67.1,383.6c0.4-1.9,1.9-8.6,6.6-8.6c0.4,0,2,0,3.4,0.9c-1.9,0.3-3.3,2.2-3.3,4c0,1.2,0.8,2.5,2.6,2.5
		c1.5,0,3.7-1.2,3.7-4.3c0-3.7-3.9-4.7-6.2-4.7c-3.9,0-6.2,3.9-7,5.5c-1.8-4.7-5.4-5.5-7.3-5.5c-7,0-11,9.5-11,11.3
		c0,0.7,0.7,0.7,0.8,0.7c0.5,0,0.8-0.1,0.9-0.7c2.3-7.9,6.8-9.6,9.1-9.6c1.2,0,3.7,0.6,3.7,4.9c0,2.2-1.2,7.3-3.7,17.6
		c-1.1,4.6-3.5,7.7-6.5,7.7c-0.4,0-1.9,0-3.4-1c1.8-0.3,3.3-1.9,3.3-4c0-1.9-1.5-2.5-2.6-2.5c-2,0-3.7,1.9-3.7,4.3
		c0,3.4,3.4,4.9,6.4,4.9c4.5,0,6.9-5.2,7-5.6c0.8,2.7,3.3,5.6,7.3,5.6c6.9,0,10.8-9.6,10.8-11.4c0-0.7-0.7-0.7-0.8-0.7
		c-0.7,0-0.8,0.3-0.9,0.7c-2.2,8-6.8,9.8-8.9,9.8c-2.6,0-3.7-2.4-3.7-4.9c0-1.6,0.4-3.3,1.1-6.5L67.1,383.6"/>
	<path class="st2" d="M107.1,407.8h-1.6c-0.1,1-0.7,4.1-1.2,4.7c-0.4,0.3-4.1,0.3-4.7,0.3h-8.7c5-4.9,6.6-6.4,9.5-8.7
		c3.5-3.1,6.8-6.2,6.8-11.2c0-6.2-5-10.1-11.1-10.1c-5.8,0-9.9,4.4-9.9,9.3c0,2.7,2,2.8,2.6,2.8c1.1,0,2.4-0.9,2.4-2.7
		c0-1-0.3-2.8-2.7-2.8c1.5-3.7,4.6-4.7,6.9-4.7c4.7,0,7.2,4,7.2,8.1c0,4.6-3,8.1-4.5,9.9l-11.4,12.4c-0.5,0.4-0.5,0.6-0.5,1.9h19.5
		L107.1,407.8"/>
</g>
<g>
	<circle class="st2" cx="80" cy="593" r="7"/>
	<circle class="st2" cx="80" cy="636" r="7"/>
	<circle class="st2" cx="80" cy="679" r="7"/>
</g>
<g>
	<circle class="st2" cx="751" cy="484" r="7"/>
	<circle class="st2" cx="751" cy="527" r="7"/>
	<circle class="st2" cx="751" cy="570" r="7"/>
</g>
<g>
	<circle class="st2" cx="1295.7" cy="515.4" r="7"/>
	<circle class="st2" cx="1252.7" cy="515.4" r="7"/>
	<circle class="st2" cx="1209.7" cy="515.4" r="7"/>
</g>
<g>
	<path d="M751,700c33.1,0,60,26.9,60,60s-26.9,60-60,60s-60-26.9-60-60S717.9,700,751,700 M751,697c-34.8,0-63,28.2-63,63
		s28.2,63,63,63s63-28.2,63-63S785.8,697,751,697L751,697z"/>
</g>
<g>
	<polyline class="st2" points="2115.5,533.5 2107.1,541.5 2108.3,542.6 2115.5,536.5 2122.7,542.6 2123.8,541.5 2115.5,533.5 	"/>
	<path class="st2" d="M2126,552c0.2-0.8,0.2-0.9,0.2-1.4c0-1.1-0.9-1.5-1.9-1.5c-0.6,0-1.6,0.4-2.1,1.2c-0.1,0.4-0.6,2.1-0.9,3.2
		c-0.5,1.5-0.9,3.1-1.2,4.7l-2.9,10.6c-0.2,0.8-2.9,4.9-7,4.9c-3.2,0-3.9-2.6-3.9-4.7c0-2.7,1-6.4,3.1-11.5c1-2.4,1.2-3.1,1.2-4.2
		c0-2.6-2-4.8-5.1-4.8c-5.9,0-8.1,8.5-8.1,9.1s0.6,0.6,0.7,0.6c0.6,0,0.6-0.1,1-1.1c1.6-5.5,4.1-7.3,6.2-7.3c0.5,0,1.5,0,1.5,1.9
		c0,1.5-0.6,3.1-1,4.1c-2.5,6.2-3.6,9.5-3.6,12.4c0,5.2,3.9,6.9,7.6,6.9c2.4,0,4.5-0.9,6.2-2.6c-0.7,3.1-1.5,5.9-4,9
		c-1.6,2-4,3.8-6.9,3.8c-0.9,0-3.7-0.2-4.7-2.5c1,0,1.7,0,2.6-0.7c0.6-0.6,1.2-1.3,1.2-2.4c0-1.9-1.6-2.1-2.2-2.1
		c-1.5,0-3.5,0.9-3.5,3.8c0,2.9,2.7,5.2,6.6,5.2c6.4,0,12.8-5.4,14.6-12L2126,552"/>
</g>
<g>
	<g>
		<line class="st3" x1="166.1" y1="185.6" x2="666.9" y2="241.6"/>
		<g>
			<polygon class="st4" points="688,244 657,252.8 665.4,241.5 659.7,228.6 			"/>
		</g>
	</g>
</g>
<g>
	<g>
		<line class="st5" x1="166.1" y1="185.6" x2="682.7" y2="682.3"/>
		<g>
			<polygon class="st6" points="698,697 668,685.1 681.6,681.2 684.9,667.5 			"/>
		</g>
	</g>
</g>
<g>
	<g>
		<line class="st3" x1="166.1" y1="401.6" x2="655.3" y2="298.4"/>
		<g>
			<polygon class="st4" points="676,294 649.3,312.1 653.7,298.7 644.3,288.2 			"/>
		</g>
	</g>
</g>
<g>
	<g>
		<line class="st5" x1="166.1" y1="401.6" x2="663.4" y2="737.2"/>
		<g>
			<polygon class="st6" points="681,749 649.4,742.4 662.1,736.3 663.1,722.2 			"/>
		</g>
	</g>
</g>
<g>
	<g>
		<line class="st7" x1="1028.6" y1="515.4" x2="1096.4" y2="515.1"/>
		<g>
			<polygon class="st7" points="1107,515.1 1092.2,521.2 1095.6,515.1 1092.1,509.1 			"/>
		</g>
	</g>
</g>
<g>
	<g>
		<line class="st7" x1="1377.6" y1="515.4" x2="1445.4" y2="515.1"/>
		<g>
			<polygon class="st7" points="1455.9,515.1 1441.1,521.2 1444.6,515.1 1441.1,509.1 			"/>
		</g>
	</g>
</g>
<g>
	<g>
		<line class="st8" x1="1922.7" y1="817.6" x2="2059.4" y2="817"/>
		<g>
			<polygon points="2080.6,816.9 2050.8,829.2 2057.8,817 2050.7,804.8 			"/>
		</g>
	</g>
</g>
<g>
	<g>
		<line class="st3" x1="166.1" y1="872.6" x2="682.9" y2="362.9"/>
		<g>
			<polygon class="st4" points="698,348 685.3,377.6 681.8,364 668.2,360.3 			"/>
		</g>
	</g>
</g>
<g>
	<g>
		<line class="st5" x1="166.1" y1="872.6" x2="660.1" y2="786.6"/>
		<g>
			<polygon class="st6" points="681,783 653.7,800.1 658.6,786.9 649.5,776.1 			"/>
		</g>
	</g>
</g>
<g>
	<g>
		<line class="st9" x1="840" y1="173" x2="809.2" y2="216.7"/>
		<g>
			<polygon class="st1" points="797,234 804.2,202.6 810.1,215.4 824.2,216.6 			"/>
		</g>
	</g>
</g>
<g>
	<g>
		<line class="st9" x1="835" y1="882" x2="806.9" y2="835.2"/>
		<g>
			<polygon class="st1" points="796,817 821.8,836.3 807.7,836.5 800.9,848.9 			"/>
		</g>
	</g>
</g>
<g>
	<path class="st10" d="M420,174.2c0.2-1.4,0.8-3.7,0.8-4.1c0-1.2-0.8-1.8-1.7-1.8c-0.7,0-1.8,0.5-2.3,1.8c-0.1,0.5-3,12.8-3.3,14.5
		c-0.5,1.9-0.6,3.1-0.6,4.3c0,0.6,0,0.8,0.1,1.2c-1.4,3.4-3.2,5.4-5.5,5.4c-4.8,0-4.8-4.8-4.8-5.9c0-2.1,0.4-4.5,3.1-12.5
		c0.7-1.9,1.1-2.8,1.1-4.1c0-2.8-2-5.2-4.9-5.2c-5.7,0-7.9,9.3-7.9,9.8c0,0.6,0.6,0.6,0.7,0.6c0.6,0,0.6-0.1,1-1.2
		c1.6-5.9,3.9-7.9,6-7.9c0.6,0,1.6,0,1.6,2.1c0,1.5-0.7,3.4-1.1,4.5c-2.6,7.6-3.3,10.6-3.3,13c0,5.8,3.9,8.1,8.5,8.1
		c1,0,3.7,0,6.1-4.5c1.6,4.1,5.7,4.5,7.5,4.5c4.4,0,7-4.1,8.6-8c2-5,3.9-13.7,3.9-16.8c0-3.5-1.7-4.4-2.6-4.4c-1.4,0-3,1.7-3,3.1
		c0,0.8,0.4,1.2,1,1.7c0.6,0.6,2,2.3,2,5.4c0,2.2-1.7,8.5-3.2,11.9c-1.6,3.4-3.6,5.7-6.6,5.7c-2.7,0-4.4-1.9-4.4-5.7
		c0-1.8,0.5-3.7,0.7-4.6L420,174.2"/>
	<path class="st10" d="M449,177c0-1.3-0.1-1.3-1.2-1.3c-2.7,2.9-6.4,2.9-8.2,2.9v1.7c1.1,0,3.8,0,6.1-1.3v23c0,1.6,0,2.1-4.2,2.1
		H440v1.7c0.7-0.1,5.8-0.3,7.4-0.3c1.3,0,6.5,0.1,7.4,0.3v-1.7h-1.5c-4.2,0-4.2-0.5-4.2-2.1L449,177"/>
	<path class="st10" d="M467.6,205c0,2.5-0.5,5.4-3.4,8.3c-0.1,0.3-0.2,0.4-0.2,0.5c0,0.4,0.4,0.6,0.6,0.6c0.6,0,4.1-3.6,4.1-8.9
		c0-2.8-1-4.9-2.9-4.9c-1.4,0-2.4,1.2-2.4,2.6s1,2.6,2.4,2.6C466.9,205.8,467.5,205,467.6,205"/>
	<path class="st10" d="M486.8,177c0-1.3-0.1-1.3-1.2-1.3c-2.7,2.9-6.4,2.9-8.2,2.9v1.7c1.1,0,3.8,0,6.1-1.3v23c0,1.6,0,2.1-4.2,2.1
		h-1.5v1.7c0.7-0.1,5.8-0.3,7.4-0.3c1.3,0,6.5,0.1,7.4,0.3v-1.7h-1.5c-4.2,0-4.2-0.5-4.2-2.1L486.8,177"/>
</g>
<g>
	<path class="st10" d="M391,297.2c0.2-1.4,0.8-3.7,0.8-4.1c0-1.2-0.8-1.8-1.7-1.8c-0.7,0-1.8,0.5-2.3,1.8c-0.1,0.5-3,12.8-3.3,14.5
		c-0.5,1.9-0.6,3.1-0.6,4.3c0,0.6,0,0.8,0.1,1.2c-1.4,3.4-3.2,5.4-5.5,5.4c-4.8,0-4.8-4.8-4.8-5.9c0-2.1,0.4-4.5,3.1-12.5
		c0.7-1.9,1.1-2.8,1.1-4.1c0-2.8-2-5.2-4.9-5.2c-5.7,0-7.9,9.3-7.9,9.8c0,0.6,0.6,0.6,0.7,0.6c0.6,0,0.6-0.1,1-1.2
		c1.6-5.9,3.9-7.9,6-7.9c0.6,0,1.6,0,1.6,2.1c0,1.5-0.7,3.4-1.1,4.5c-2.6,7.6-3.3,10.6-3.3,13c0,5.8,3.9,8.1,8.5,8.1
		c1,0,3.7,0,6.1-4.5c1.6,4.1,5.7,4.5,7.5,4.5c4.4,0,7-4.1,8.6-8c2-5,3.9-13.7,3.9-16.8c0-3.5-1.7-4.4-2.6-4.4c-1.4,0-3,1.7-3,3.1
		c0,0.8,0.4,1.2,1,1.7c0.6,0.6,2,2.3,2,5.4c0,2.2-1.7,8.5-3.2,11.9c-1.6,3.4-3.6,5.7-6.6,5.7c-2.7,0-4.4-1.9-4.4-5.7
		c0-1.8,0.5-3.7,0.7-4.6L391,297.2"/>
	<path class="st10" d="M427,320.5h-1.3c-0.1,1-0.6,3.8-1.1,4.2c-0.4,0.3-3.6,0.3-4.2,0.3h-7.7c4.3-4.2,5.9-5.5,8.4-7.7
		c3-2.6,5.9-5.5,5.9-9.7c0-5.5-4.3-8.8-9.7-8.8c-5.2,0-8.8,3.9-8.8,8c0,2.3,1.8,2.6,2.3,2.6c1,0,2.2-0.8,2.2-2.3
		c0-0.9-0.2-2.5-2.4-2.5c1.2-3.2,4.1-4.2,6.1-4.2c4.1,0,6.4,3.5,6.4,7.1c0,3.9-2.6,7.1-4,8.7L409,327c-0.5,0.4-0.5,0.5-0.5,1.8h17.3
		L427,320.5"/>
	<path class="st10" d="M438.5,328c0,2.5-0.5,5.4-3.4,8.3c-0.1,0.3-0.2,0.4-0.2,0.5c0,0.4,0.4,0.6,0.6,0.6c0.6,0,4.1-3.6,4.1-8.9
		c0-2.8-1-4.9-2.9-4.9c-1.4,0-2.4,1.2-2.4,2.6s1,2.6,2.4,2.6C437.8,328.8,438.4,328,438.5,328"/>
	<path class="st10" d="M457.8,300c0-1.3-0.1-1.3-1.2-1.3c-2.7,2.9-6.4,2.9-8.2,2.9v1.7c1.1,0,3.8,0,6.1-1.3v23c0,1.6,0,2.1-4.2,2.1
		h-1.5v1.7c0.7-0.1,5.8-0.3,7.4-0.3c1.3,0,6.5,0.1,7.4,0.3v-1.7h-1.5c-4.2,0-4.2-0.5-4.2-2.1L457.8,300"/>
</g>
<g>
	<path class="st11" d="M851.8,88.5c0,0,0-0.6-0.8-0.6c-1.3,0-5.8,0.5-7.4,0.6c-0.5,0-1.1,0.1-1.1,1.3c0,0.8,0.5,0.8,1.4,0.8
		c2.9,0,3,0.4,3,1c0,0.5-0.6,2.7-0.8,4l-4.9,21.1c-0.7,3.2-1,4.3-1,6.5c0,6.2,3.1,10.1,7.6,10.1c7.1,0,14.5-9.6,14.5-18.9
		c0-5.8-3.1-10.3-8-10.3c-2.8,0-5.2,1.9-7,3.9L851.8,88.5L851.8,88.5L851.8,88.5z M846.1,112.9c0.4-1.4,0.4-1.6,0.8-2.3
		c3-4.1,5.7-5.2,7.2-5.2c2.2,0,3.7,1.9,3.7,6.1c0,3.9-1.9,11.2-3,13.7c-2.1,4.3-4.7,6.6-7.1,6.6c-2.1,0-4-1.7-4-6.5
		c0-1.2,0-2.5,1-6.5L846.1,112.9"/>
	<path class="st11" d="M880.1,113.6c0-1.3-0.1-1.3-1.2-1.3c-2.7,2.9-6.4,2.9-8.2,2.9v1.7c1.1,0,3.8,0,6.1-1.3v23.1
		c0,1.6,0,2.1-4.2,2.1h-1.5v1.7c0.7-0.1,5.8-0.3,7.4-0.3c1.3,0,6.5,0.1,7.4,0.3v-1.7h-1.5c-4.2,0-4.2-0.5-4.2-2.1L880.1,113.6"/>
</g>
<g>
	<path class="st1" d="M870.5,882c31.7,0,57.5,25.8,57.5,57.5S902.2,997,870.5,997S813,971.2,813,939.5S838.8,882,870.5,882
		 M870.5,879c-33.4,0-60.5,27.1-60.5,60.5s27.1,60.5,60.5,60.5s60.5-27.1,60.5-60.5S903.9,879,870.5,879L870.5,879z"/>
</g>
<g>
	<path class="st11" d="M851.1,917.2c0,0,0-0.6-0.8-0.6c-1.3,0-5.8,0.5-7.4,0.6c-0.5,0-1.1,0.1-1.1,1.3c0,0.8,0.5,0.8,1.4,0.8
		c2.9,0,3,0.4,3,1c0,0.5-0.6,2.7-0.8,4l-4.9,21.1c-0.7,3.2-1,4.3-1,6.5c0,6.2,3.1,10.1,7.6,10.1c7.1,0,14.5-9.6,14.5-18.9
		c0-5.8-3.1-10.3-8-10.3c-2.8,0-5.2,1.9-7,3.9L851.1,917.2L851.1,917.2L851.1,917.2z M845.4,941.6c0.4-1.4,0.4-1.6,0.8-2.3
		c3-4.1,5.7-5.2,7.2-5.2c2.2,0,3.7,1.9,3.7,6.1c0,3.9-1.9,11.2-3,13.7c-2.1,4.3-4.7,6.6-7.1,6.6c-2.1,0-4-1.7-4-6.5
		c0-1.2,0-2.5,1-6.5L845.4,941.6"/>
	<path class="st11" d="M875.3,943.9c0-0.1,0.1-0.6,0.1-0.8s-0.1-0.6-0.5-0.6c-0.7,0-3.8,0.4-4.8,0.5c-0.3,0-0.9,0.1-0.9,1
		c0,0.6,0.5,0.6,1,0.6c1.8,0,1.8,0.3,1.8,0.6s-0.1,0.6-0.1,1l-5.2,25.6c-0.2,0.9-0.2,0.9-0.2,1c0,0.6,0.4,1.4,1.3,1.4
		c1,0,1.5-0.9,1.7-1.8c0-0.3,1.6-8.2,1.8-8.8c2.7,0.3,4.8,1.3,4.8,3.8c0,0.1,0,0.4-0.1,0.9c-0.2,0.6-0.2,0.8-0.2,1.3
		c0,3.2,2.2,4.7,3.9,4.7c3.6,0,4.8-6.9,4.8-6.9c0-0.6-0.5-0.6-0.6-0.6c-0.5,0-0.5,0.3-0.7,1.2c-0.4,1.9-1.4,5.2-3.3,5.2
		c-1,0-1.3-1.2-1.3-2.5c0-0.8,0-0.8,0.2-1.9c0.1-0.1,0.2-0.9,0.2-1.4c0-4-4.5-4.7-6-4.8c1.1-0.8,2.5-2.3,3.1-3
		c1.8-2.2,3.7-4.3,5.8-4.3c0.4,0,1,0.1,1.3,0.5c-1.6,0.4-1.9,1.8-1.9,2.6c0,0.9,0.6,1.7,1.5,1.7c1,0,2-1,2-3c0-1.4-0.9-3.1-2.8-3.1
		c-2.1,0-4.1,1.8-6,4c-1.6,1.8-2.8,3.1-4.4,3.9L875.3,943.9"/>
</g>
<path class="st2" d="M2137.6,564.3c0-1.3-0.1-1.3-1.2-1.3c-2.7,2.9-6.4,2.9-8.2,2.9v1.7c1.1,0,3.8,0,6.1-1.3v23.1
	c0,1.6,0,2.1-4.2,2.1h-1.5v1.7c0.7-0.1,5.8-0.3,7.4-0.3c1.3,0,6.5,0.1,7.4,0.3v-1.7h-1.5c-4.2,0-4.2-0.5-4.2-2.1v-25.1"/>
<g>
	<path class="st2" d="M723.4,310c3.5-3.7,5.3-5.4,7.6-7.3c0-0.1,4-3.5,6.3-5.8c6.2-6,7.6-9,7.6-9.2c0-0.6-0.6-0.6-0.8-0.6
		c-0.4,0-0.6,0.1-0.9,0.6c-1.9,3.1-3.4,4.1-4.9,4.1s-2.3-1-3.2-2c-1.3-1.4-2.3-2.7-4.5-2.7c-4.8,0-7.7,5.9-7.7,7.2
		c0,0.4,0.1,0.8,0.8,0.8c0.5,0,0.6-0.4,0.8-0.8c1.3-2.9,5-2.9,5.5-2.9c1.3,0,2.6,0.4,4,0.9c2.6,1,3.4,1,5,1c-2.3,2.7-7.7,7.3-9,8.3
		l-5.8,5.4c-4.4,4.4-6.6,7.9-6.6,8.4c0,0.6,0.6,0.6,0.8,0.6c0.5,0,0.6-0.1,1-0.9c1.4-2.2,3.4-4,5.4-4c1.5,0,2.2,0.6,3.7,2.4
		c1.2,1.4,2.3,2.4,4.1,2.4c6.5,0,10.2-8.2,10.2-9.9c0-0.4-0.3-0.6-0.8-0.6c-0.6,0-0.8,0.4-0.9,0.8c-1.5,4.2-5.7,5.4-7.7,5.4
		c-1.3,0-2.5-0.4-3.9-0.8c-2.2-0.9-3.1-1.2-4.5-1.2C724.9,309.7,723.9,309.7,723.4,310"/>
	<path class="st2" d="M760,296.4c0-1.3-0.1-1.3-1.4-1.3c-2.8,2.8-6.9,2.8-8.7,2.8v1.7c1,0,4,0,6.4-1.3v23c0,1.4,0,2.1-4.5,2.1h-1.7
		v1.5c0.8,0,6.3-0.1,8-0.1c1.4,0,7.1,0.1,8.1,0.1v-1.5h-1.8c-4.4,0-4.4-0.6-4.4-2.1L760,296.4"/>
</g>
<g>
	<path class="st2" d="M721.6,777.3c3.8-3.8,5.8-5.4,8.3-7.4c0,0,4.4-3.5,6.9-5.9c6.8-6,8.3-9.1,8.3-9.4c0-0.7-0.7-0.7-0.8-0.7
		c-0.4,0-0.7,0.1-1,0.7c-2.1,3.1-3.7,4.2-5.4,4.2s-2.5-0.9-3.5-2.1c-1.4-1.4-2.5-2.7-4.9-2.7c-5.2,0-8.5,6-8.5,7.4
		c0,0.3,0.1,0.7,0.8,0.7c0.6,0,0.7-0.3,0.8-0.7c1.4-3,5.5-3.1,6.1-3.1c1.4,0,2.8,0.5,4.4,1c2.8,0.9,3.7,0.9,5.5,0.9
		c-2.5,2.9-8.5,7.6-9.9,8.6l-6.3,5.5c-4.8,4.3-7.2,8.1-7.2,8.5c0,0.7,0.7,0.7,0.8,0.7c0.6,0,0.7-0.1,1.1-0.8c1.6-2.4,3.7-4,5.9-4
		c1.7,0,2.4,0.5,4.1,2.5c1.3,1.3,2.5,2.4,4.5,2.4c7,0,11.1-8.2,11.1-10.1c0-0.3-0.3-0.7-0.8-0.7c-0.7,0-0.8,0.4-1,0.9
		c-1.7,4.2-6.2,5.5-8.5,5.5c-1.4,0-2.7-0.4-4.2-0.9c-2.4-0.8-3.4-1-4.9-1C723.3,777.1,722.2,777.1,721.6,777.3"/>
	<path class="st2" d="M760.3,762l0.1-0.7c0-0.3-0.1-0.7-0.7-0.7c-1,0-5.1,0.4-6.3,0.4c-0.4,0.1-1.1,0.1-1.1,1.2
		c0,0.5,0.7,0.5,1.3,0.5c2.4,0,2.4,0.4,2.4,0.8c0,0.3-0.1,0.5-0.1,0.9l-7,25.9c-0.1,0.9-0.1,0.9-0.1,1c0,0.7,0.6,1.4,1.7,1.4
		c1.3,0,2-0.9,2.2-1.8c0-0.3,2.1-8.2,2.4-8.9c3.5,0.3,6.2,1.3,6.2,3.7c0,0.3,0,0.5,0,0.9c-0.3,0.8-0.3,0.9-0.3,1.4
		c0,3.3,2.9,4.7,5.2,4.7c4.8,0,6.3-6.9,6.3-6.9c0-0.7-0.7-0.7-0.8-0.7c-0.7,0-0.7,0.3-1,1.2c-0.6,2-2,5.1-4.4,5.1
		c-1.3,0-1.7-1-1.7-2.4c0-0.8,0-0.8,0.3-2c0.1-0.3,0.3-0.9,0.3-1.4c0-4.1-5.9-4.7-8-4.8c1.5-0.9,3.2-2.4,4.1-3.1
		c2.5-2.1,5.1-4.3,7.7-4.3c0.6,0,1.3,0.1,1.7,0.7c-2.1,0.3-2.5,1.8-2.5,2.5c0,1,0.8,1.7,2,1.7c1.3,0,2.7-0.9,2.7-2.9
		c0-1.6-1.1-3.3-3.6-3.3c-2.8,0-5.3,2-7.9,4.1c-2.1,1.8-3.6,3.3-5.8,4.1L760.3,762"/>
</g>
<g>
	<path class="st10" d="M491.5,416.9c0.4-1.4,0.9-3.7,0.9-4.1c0-1.2-0.8-1.8-1.8-1.8c-0.7,0-1.8,0.5-2.1,1.8
		c-0.2,0.5-2.9,12.8-3.4,14.5c-0.4,1.9-0.5,3.1-0.5,4.3c0,0.6,0,0.8,0,1.2c-1.3,3.4-3.1,5.4-5.4,5.4c-4.6,0-4.6-4.8-4.6-5.9
		c0-2.1,0.2-4.5,3.1-12.5c0.6-1.9,0.9-2.8,0.9-4.1c0-2.8-1.9-5.2-4.8-5.2c-5.5,0-7.8,9.3-7.8,9.8c0,0.6,0.6,0.6,0.7,0.6
		c0.6,0,0.7-0.1,0.9-1.2c1.6-5.9,3.9-7.9,6-7.9c0.5,0,1.4,0,1.4,2.1c0,1.5-0.6,3.4-1.1,4.5c-2.6,7.6-3.3,10.6-3.3,13
		c0,5.8,4,8.1,8.4,8.1c0.9,0,3.8,0,6.1-4.5c1.5,4.1,5.5,4.5,7.3,4.5c4.5,0,7.1-4.1,8.5-8c2-5,3.9-13.7,3.9-16.8
		c0-3.5-1.5-4.4-2.6-4.4c-1.4,0-2.8,1.7-2.8,3.1c0,0.8,0.4,1.2,0.8,1.7c0.6,0.6,2.1,2.3,2.1,5.4c0,2.2-1.6,8.5-3.2,11.9
		c-1.5,3.4-3.7,5.7-6.5,5.7s-4.4-1.9-4.4-5.7c0-1.8,0.4-3.7,0.6-4.6L491.5,416.9"/>
	<path class="st10" d="M514.2,445c-0.4,1.4-0.5,1.8-3.6,1.8c-0.7,0-1.2,0-1.2,1c0,0.6,0.5,0.6,1.2,0.6h14.7c9,0,17.9-9.2,17.9-19.2
		c0-6.6-4.2-11.8-10.9-11.8h-14.9c-0.8,0-1.3,0-1.3,1c0,0.6,0.5,0.6,1.4,0.6c0.6,0,0.8,0,1.5,0.1c0.8,0,0.9,0.1,0.9,0.5
		c0,0.1,0,0.4-0.2,1L514.2,445L514.2,445L514.2,445z M523.4,420.7c0.4-1.4,0.4-1.6,2.1-1.6h5.2c4.7,0,8.5,2.5,8.5,8.7
		c0,1-0.4,8.8-4.5,14c-1.6,2.1-5.2,4.9-10.2,4.9H519c-1.3,0-1.3,0-1.3-0.4c0-0.1,0-0.3,0.1-1L523.4,420.7"/>
	<path class="st10" d="M554.7,447.7c0,2.5-0.4,5.4-3.2,8.3c-0.1,0.3-0.2,0.4-0.2,0.5c0,0.4,0.2,0.6,0.6,0.6c0.5,0,4.1-3.6,4.1-8.9
		c0-2.8-1-4.9-2.9-4.9c-1.4,0-2.4,1.2-2.4,2.6s1,2.6,2.4,2.6C553.9,448.5,554.7,447.7,554.7,447.7"/>
	<path class="st10" d="M573.8,419.6c0-1.3-0.1-1.3-1.3-1.3c-2.6,2.9-6.4,2.9-8,2.9v1.7c0.9,0,3.7,0,6-1.3v23.1c0,1.6,0,2.1-4.1,2.1
		h-1.7v1.7c0.8-0.1,5.9-0.3,7.4-0.3c1.2,0,6.4,0.1,7.3,0.3v-1.7h-1.5c-4.1,0-4.1-0.5-4.1-2.1V419.6"/>
</g>
<g>
	<polyline class="st10" points="445.9,168.7 445.9,167.4 442.3,167.4 442.3,139.2 445.9,139.2 445.9,137.9 440.8,137.9 440.8,168.7 
		445.9,168.7 	"/>
	<path class="st10" d="M457.7,141.3c0-0.7,0-0.8-0.9-0.8c-2.3,2-5.6,2-6.8,2v0.9c0.7,0,3,0,4.9-0.8v15.9c0,1.1-0.1,1.5-3.5,1.5h-1.2
		v0.9c1.3-0.1,4.5-0.1,6-0.1s4.8,0,6,0.1V160h-1.2c-3.3,0-3.4-0.4-3.4-1.5V141.3"/>
	<polyline class="st10" points="471.2,137.9 466.1,137.9 466.1,139.2 469.7,139.2 469.7,167.4 466.1,167.4 466.1,168.7 471.2,168.7 
		471.2,137.9 	"/>
</g>
<g>
	<polyline class="st10" points="415.8,290.6 415.8,289.4 412.2,289.4 412.2,261.1 415.8,261.1 415.8,259.9 410.7,259.9 410.7,290.6 
		415.8,290.6 	"/>
	<path class="st10" d="M427.6,263.3c0-0.7,0-0.8-0.9-0.8c-2.3,2-5.6,2-6.8,2v0.9c0.7,0,3,0,4.9-0.8v15.9c0,1.1-0.1,1.5-3.5,1.5h-1.2
		v0.9c1.3-0.1,4.5-0.1,6-0.1s4.8,0,6,0.1V282H431c-3.3,0-3.4-0.4-3.4-1.5V263.3"/>
	<polyline class="st10" points="441.1,259.9 436,259.9 436,261.1 439.6,261.1 439.6,289.4 436,289.4 436,290.6 441.1,290.6 
		441.1,259.9 	"/>
</g>
<g>
	<polyline class="st12" points="757.4,290.2 757.4,289 753.7,289 753.7,260.7 757.4,260.7 757.4,259.5 752.2,259.5 752.2,290.2 
		757.4,290.2 	"/>
	<path class="st12" d="M769.1,262.9c0-0.7,0-0.8-0.9-0.8c-2.3,2-5.6,2-6.8,2v0.9c0.7,0,3,0,4.9-0.8v15.9c0,1.1-0.1,1.5-3.5,1.5h-1.2
		v0.9c1.3-0.1,4.5-0.1,6-0.1s4.8,0,6,0.1v-0.9h-1.2c-3.3,0-3.4-0.4-3.4-1.5V262.9"/>
	<polyline class="st12" points="782.6,259.5 777.5,259.5 777.5,260.7 781.1,260.7 781.1,289 777.5,289 777.5,290.2 782.6,290.2 
		782.6,259.5 	"/>
</g>
<g>
	<polyline class="st12" points="757.5,752.6 757.5,751.3 753.9,751.3 753.9,723.1 757.5,723.1 757.5,721.8 752.4,721.8 752.4,752.6 
		757.5,752.6 	"/>
	<path class="st12" d="M769.2,725.2c0-0.7,0-0.8-0.9-0.8c-2.3,2-5.6,2-6.8,2v0.9c0.7,0,3,0,4.9-0.8v15.9c0,1.1-0.1,1.5-3.5,1.5h-1.2
		v0.9c1.3-0.1,4.5-0.1,6-0.1c1.5,0,4.8,0,6,0.1v-0.9h-1.2c-3.3,0-3.4-0.4-3.4-1.5V725.2"/>
	<polyline class="st12" points="782.8,721.8 777.6,721.8 777.6,723.1 781.3,723.1 781.3,751.3 777.6,751.3 777.6,752.6 782.8,752.6 
		782.8,721.8 	"/>
</g>
<g>
	<polyline class="st11" points="875.5,103.2 875.5,102 871.8,102 871.8,73.8 875.5,73.8 875.5,72.5 870.3,72.5 870.3,103.2 
		875.5,103.2 	"/>
	<path class="st11" d="M887.2,75.9c0-0.7,0-0.8-0.9-0.8c-2.3,2-5.6,2-6.8,2V78c0.7,0,3,0,4.9-0.8v15.9c0,1.1-0.1,1.5-3.5,1.5h-1.2
		v0.9c1.3-0.1,4.5-0.1,6-0.1c1.5,0,4.8,0,6,0.1v-0.9h-1.2c-3.3,0-3.4-0.4-3.4-1.5V75.9"/>
	<polyline class="st11" points="900.8,72.5 895.6,72.5 895.6,73.8 899.3,73.8 899.3,102 895.6,102 895.6,103.2 900.8,103.2 
		900.8,72.5 	"/>
</g>
<g>
	<polyline class="st11" points="875.8,932 875.8,930.7 872.1,930.7 872.1,902.5 875.8,902.5 875.8,901.2 870.6,901.2 870.6,932 
		875.8,932 	"/>
	<path class="st11" d="M887.5,904.6c0-0.7,0-0.8-0.9-0.8c-2.3,2-5.6,2-6.8,2v0.9c0.7,0,3,0,4.9-0.8v15.9c0,1.1-0.1,1.5-3.5,1.5h-1.2
		v0.9c1.3-0.1,4.5-0.1,6-0.1s4.8,0,6,0.1v-0.9h-1.2c-3.3,0-3.4-0.4-3.4-1.5V904.6"/>
	<polyline class="st11" points="901,901.2 895.9,901.2 895.9,902.5 899.5,902.5 899.5,930.7 895.9,930.7 895.9,932 901,932 
		901,901.2 	"/>
</g>
<g>
	<polyline class="st10" points="522.9,407.6 522.9,406.4 519.2,406.4 519.2,378.1 522.9,378.1 522.9,376.9 517.8,376.9 517.8,407.6 
		522.9,407.6 	"/>
	<path class="st10" d="M534.6,380.3c0-0.7,0-0.8-0.9-0.8c-2.3,2-5.6,2-6.8,2v0.9c0.7,0,3,0,4.9-0.8v15.9c0,1.1-0.1,1.5-3.5,1.5h-1.2
		v0.9c1.3-0.1,4.5-0.1,6-0.1s4.8,0,6,0.1V399H538c-3.3,0-3.4-0.4-3.4-1.5V380.3"/>
	<polyline class="st10" points="548.2,376.9 543,376.9 543,378.1 546.7,378.1 546.7,406.4 543,406.4 543,407.6 548.2,407.6 
		548.2,376.9 	"/>
</g>
</svg>
