<?xml version="1.0" encoding="utf-8"?>
<!-- Generator: Adobe Illustrator 26.5.0, SVG Export Plug-In . SVG Version: 6.00 Build 0)  -->
<svg version="1.1" id="Layer_1" xmlns="http://www.w3.org/2000/svg" xmlns:xlink="http://www.w3.org/1999/xlink" x="0px" y="0px"
	 viewBox="0 0 1000 1000" style="enable-background:new 0 0 1000 1000;" xml:space="preserve">
<style type="text/css">
	.st0{fill:#FFFFFF;}
	.st1{fill:none;stroke:#000000;stroke-width:3;stroke-miterlimit:10;}
	.st2{fill-rule:evenodd;clip-rule:evenodd;}
	.st3{fill-rule:evenodd;clip-rule:evenodd;fill:#FF556C;}
	.st4{fill-rule:evenodd;clip-rule:evenodd;fill:#544AFF;}
	.st5{fill-rule:evenodd;clip-rule:evenodd;fill:none;stroke:#93C900;stroke-width:5;stroke-miterlimit:10;}
	.st6{fill-rule:evenodd;clip-rule:evenodd;fill:#93C900;}
</style>
<g>
	<line class="st0" x1="25.5" y1="818.5" x2="779" y2="818.5"/>
	<g>
		<line class="st1" x1="25.5" y1="818.5" x2="754.5" y2="818.5"/>
		<g>
			<path d="M749.2,818.5l-6.6-10.8l0.4-0.2l17.6,7c6.1,1.4,12.3,2.7,18.4,4.1c-6.1,1.4-12.3,2.7-18.4,4.1l-17.6,7l-0.4-0.2
				L749.2,818.5z"/>
		</g>
	</g>
</g>
<g>
	<line class="st0" x1="106.2" y1="904.2" x2="106.2" y2="150.8"/>
	<g>
		<line class="st1" x1="106.2" y1="904.2" x2="106.2" y2="175.2"/>
		<g>
			<path d="M106.2,180.6l-10.8,6.6l-0.2-0.4l7-17.6c1.4-6.1,2.7-12.3,4.1-18.4c1.4,6.1,2.7,12.3,4.1,18.4l7,17.6l-0.2,0.4
				L106.2,180.6z"/>
		</g>
	</g>
</g>
<g>
	<path class="st2" d="M750.6,854.5c0.3-1.2,1.4-5.5,4.8-5.5c0.3,0,1.5,0,2.5,0.6c-1.4,0.2-2.4,1.4-2.4,2.5c0,0.8,0.6,1.6,1.9,1.6
		c1.1,0,2.7-0.8,2.7-2.7c0-2.4-2.9-3-4.5-3c-2.9,0-4.5,2.5-5.1,3.5c-1.3-3-4-3.5-5.3-3.5c-5.1,0-8,6-8,7.2c0,0.5,0.5,0.5,0.6,0.5
		c0.4,0,0.6-0.1,0.7-0.5c1.7-5,4.9-6.1,6.6-6.1c0.9,0,2.7,0.4,2.7,3.1c0,1.4-0.9,4.6-2.7,11.2c-0.8,2.9-2.6,4.9-4.7,4.9
		c-0.3,0-1.4,0-2.5-0.7c1.3-0.2,2.4-1.2,2.4-2.5c0-1.2-1.1-1.6-1.9-1.6c-1.5,0-2.7,1.2-2.7,2.7c0,2.2,2.5,3.1,4.6,3.1
		c3.3,0,5-3.3,5.1-3.6c0.6,1.7,2.4,3.6,5.3,3.6c5,0,7.9-6.1,7.9-7.3c0-0.5-0.5-0.5-0.6-0.5c-0.5,0-0.6,0.2-0.7,0.5
		c-1.6,5.1-4.9,6.2-6.5,6.2c-1.9,0-2.7-1.5-2.7-3.1c0-1,0.3-2.1,0.8-4.1L750.6,854.5"/>
	<path class="st2" d="M774.2,854.7c0-0.9,0-0.9-1-0.9c-2.2,2.1-5.3,2.1-6.8,2.1v1.2c0.9,0,3.2,0,5-0.9V873c0,1,0,1.5-3.4,1.5h-1.3
		v1.1c0.6,0,4.8-0.1,6.1-0.1c1.1,0,5.4,0.1,6.2,0.1v-1.1h-1.4c-3.4,0-3.4-0.5-3.4-1.5V854.7"/>
</g>
<g>
	<path class="st2" d="M47.8,165.4c0.3-1.3,1.4-5.8,5-5.8c0.3,0,1.5,0,2.6,0.6c-1.4,0.2-2.5,1.5-2.5,2.7c0,0.8,0.6,1.7,1.9,1.7
		c1.1,0,2.8-0.8,2.8-2.9c0-2.5-3-3.2-4.7-3.2c-3,0-4.7,2.6-5.3,3.7c-1.3-3.2-4.1-3.7-5.5-3.7c-5.3,0-8.3,6.4-8.3,7.6
		c0,0.5,0.5,0.5,0.6,0.5c0.4,0,0.6-0.1,0.7-0.5c1.7-5.3,5.1-6.5,6.9-6.5c0.9,0,2.8,0.4,2.8,3.3c0,1.5-0.9,4.9-2.8,11.9
		c-0.8,3.1-2.7,5.2-4.9,5.2c-0.3,0-1.4,0-2.6-0.7c1.3-0.2,2.5-1.3,2.5-2.7c0-1.3-1.1-1.7-1.9-1.7c-1.5,0-2.8,1.3-2.8,2.9
		c0,2.3,2.6,3.3,4.8,3.3c3.4,0,5.2-3.5,5.3-3.8c0.6,1.8,2.5,3.8,5.5,3.8c5.2,0,8.2-6.5,8.2-7.7c0-0.5-0.5-0.5-0.6-0.5
		c-0.5,0-0.6,0.2-0.7,0.5c-1.6,5.4-5.1,6.6-6.8,6.6c-1.9,0-2.8-1.6-2.8-3.3c0-1.1,0.3-2.2,0.8-4.4L47.8,165.4"/>
	<path class="st2" d="M78,181.7h-1.2c-0.1,0.7-0.5,2.8-0.9,3.2c-0.3,0.2-3.1,0.2-3.6,0.2h-6.6c3.8-3.3,5-4.3,7.2-5.9
		c2.7-2.1,5.1-4.2,5.1-7.6c0-4.2-3.8-6.8-8.4-6.8c-4.4,0-7.5,3-7.5,6.3c0,1.8,1.5,1.9,1.9,1.9c0.8,0,1.8-0.6,1.8-1.8
		c0-0.7-0.2-1.9-2-1.9c1.1-2.5,3.5-3.2,5.2-3.2c3.6,0,5.4,2.7,5.4,5.5c0,3.1-2.3,5.5-3.4,6.7l-8.6,8.4c-0.4,0.3-0.4,0.4-0.4,1.3
		h14.7L78,181.7"/>
</g>
<circle class="st3" cx="401" cy="243" r="11"/>
<circle class="st3" cx="557" cy="298" r="11"/>
<circle class="st3" cx="500" cy="347" r="11"/>
<circle class="st3" cx="657" cy="457" r="11"/>
<circle class="st3" cx="702" cy="298" r="11"/>
<circle class="st3" cx="627" cy="206" r="11"/>
<circle class="st3" cx="546" cy="463" r="11"/>
<circle class="st3" cx="401" cy="387" r="11"/>
<circle class="st4" cx="261" cy="542" r="11"/>
<circle class="st4" cx="386" cy="582" r="11"/>
<circle class="st4" cx="174" cy="604" r="11"/>
<circle class="st4" cx="275" cy="682" r="11"/>
<circle class="st4" cx="460" cy="682" r="11"/>
<circle class="st4" cx="386" cy="739" r="11"/>
<circle class="st4" cx="368" cy="630" r="11"/>
<circle class="st4" cx="169" cy="764" r="11"/>
<circle class="st4" cx="324" cy="843" r="11"/>
<line class="st5" x1="70.1" y1="267.9" x2="809.7" y2="750"/>
<g>
	<path class="st6" d="M576.1,526.2c0.2-0.7,0.2-0.8,0.2-1.1c0-0.9-0.6-1.2-1.4-1.2c-0.4,0-1.1,0.3-1.6,1c-0.1,0.3-0.5,1.7-0.6,2.6
		c-0.3,1.2-0.6,2.5-0.9,3.8l-2,8.6c-0.2,0.7-2.2,4-5.2,4c-2.3,0-2.8-2.1-2.8-3.8c0-2.2,0.8-5.1,2.4-9.3c0.7-1.9,0.9-2.5,0.9-3.4
		c0-2.1-1.5-3.9-3.7-3.9c-4.3,0-6,6.9-6,7.3s0.5,0.5,0.5,0.5c0.5,0,0.5-0.1,0.7-0.9c1.3-4.5,3.1-5.9,4.7-5.9c0.4,0,1.1,0,1.1,1.5
		c0,1.2-0.5,2.5-0.7,3.3c-1.8,5.1-2.6,7.7-2.6,10c0,4.2,2.8,5.6,5.5,5.6c1.8,0,3.4-0.8,4.7-2.1c-0.6,2.5-1.2,4.8-3,7.2
		c-1.2,1.6-2.9,3.1-4.9,3.1c-0.6,0-2.7-0.2-3.5-2c0.7,0,1.3,0,1.9-0.6c0.5-0.5,0.9-1,0.9-1.9c0-1.5-1.2-1.7-1.6-1.7
		c-1.1,0-2.6,0.8-2.6,3.1c0,2.4,2,4.2,4.8,4.2c4.7,0,9.3-4.4,10.6-9.7L576.1,526.2"/>
	<path class="st6" d="M621.3,528.5c0.6,0,1.4,0,1.4-1c0-1-0.8-1-1.4-1h-26.7c-0.6,0-1.5,0-1.5,1c0,1,0.9,1,1.5,1H621.3L621.3,528.5
		L621.3,528.5z M621.3,537.8c0.6,0,1.4,0,1.4-1c0-1-0.8-1-1.4-1h-26.7c-0.6,0-1.5,0-1.5,1c0,1,0.9,1,1.5,1H621.3"/>
	<path class="st6" d="M658.8,528.3c0.3-1.1,0.7-2.9,0.7-3.2c0-0.9-0.6-1.3-1.4-1.3c-0.5,0-1.4,0.4-1.6,1.3
		c-0.2,0.3-2.3,9.4-2.6,10.7c-0.3,1.4-0.4,2.3-0.4,3.2c0,0.6,0,0.7,0,0.9c-1,2.6-2.3,4-4.1,4c-3.6,0-3.6-3.6-3.6-4.3
		c0-1.5,0.2-3.5,2.3-9.3c0.5-1.4,0.7-2.1,0.7-3.1c0-2.1-1.4-3.9-3.7-3.9c-4.2,0-5.9,6.9-5.9,7.4s0.5,0.5,0.5,0.5
		c0.5,0,0.5-0.1,0.7-0.9c1.3-4.4,3-6,4.6-6c0.4,0,1.1,0.1,1.1,1.6c0,1.2-0.5,2.5-0.8,3.4c-2,5.6-2.5,7.8-2.5,9.6
		c0,4.4,3.1,6.1,6.4,6.1c0.8,0,2.9,0,4.7-3.4c1.2,3.1,4.2,3.4,5.6,3.4c3.4,0,5.3-3,6.5-5.9c1.5-3.8,3-10.2,3-12.5
		c0-2.6-1.2-3.4-2-3.4c-1.1,0-2.3,1.3-2.3,2.3c0,0.7,0.3,1,0.7,1.3c0.5,0.5,1.6,1.7,1.6,4c0,1.6-1.4,6.3-2.5,8.8
		c-1.1,2.6-2.7,4.2-4.9,4.2c-2.2,0-3.3-1.4-3.3-4.1c0-1.3,0.3-2.9,0.5-3.6L658.8,528.3"/>
	<path class="st6" d="M680.5,530.1c0-0.9,0-0.9-0.9-0.9c-2,2.1-4.9,2.1-6.2,2.1v1.2c0.7,0,2.8,0,4.6-0.9v17.2c0,1.1,0,1.5-3.2,1.5
		h-1.2v1.2c0.5,0,4.5-0.1,5.7-0.1c1,0,5,0.1,5.8,0.1v-1.2h-1.3c-3.2,0-3.2-0.5-3.2-1.5V530.1"/>
	<path class="st6" d="M705.3,530c0.3-1.3,1.3-5.7,4.4-5.7c0.3,0,1.3,0,2.3,0.7c-1.3,0.2-2.2,1.4-2.2,2.6c0,0.8,0.5,1.6,1.7,1.6
		c1,0,2.4-0.9,2.4-2.8c0-2.5-2.7-3.2-4.2-3.2c-2.6,0-4.3,2.6-4.8,3.7c-1.1-3.2-3.5-3.7-4.9-3.7c-4.6,0-7.2,6.3-7.2,7.4
		c0,0.5,0.5,0.5,0.5,0.5c0.4,0,0.5-0.1,0.6-0.6c1.5-5,4.4-6.3,6-6.3c0.9,0,2.4,0.5,2.4,3.3c0,1.4-0.7,4.6-2.4,11.4
		c-0.7,3-2.3,5-4.3,5c-0.3,0-1.3,0-2.3-0.6c1.2-0.3,2.2-1.3,2.2-2.6c0-1.3-1-1.7-1.7-1.7c-1.4,0-2.4,1.3-2.4,2.8
		c0,2.2,2.3,3.2,4.3,3.2c2.9,0,4.5-3.4,4.7-3.7c0.5,1.8,2.2,3.7,4.9,3.7c4.6,0,7.2-6.2,7.2-7.4c0-0.5-0.4-0.5-0.5-0.5
		c-0.4,0-0.5,0.2-0.5,0.6c-1.4,5.1-4.5,6.3-6,6.3c-1.8,0-2.5-1.5-2.5-3.2c0-1.1,0.3-2.1,0.8-4.2L705.3,530"/>
	<path class="st6" d="M727,530.1c0-0.9-0.1-0.9-1-0.9c-2,2.1-4.9,2.1-6.2,2.1v1.2c0.7,0,2.8,0,4.7-0.9v17.2c0,1.1,0,1.5-3.2,1.5H720
		v1.2c0.6,0,4.6-0.1,5.8-0.1c0.9,0,4.9,0.1,5.7,0.1v-1.2h-1.2c-3.2,0-3.2-0.5-3.2-1.5V530.1"/>
	<path class="st6" d="M765,533.2h12.8c0.6,0,1.5,0,1.5-1c0-1-0.8-1-1.5-1H765v-13.5c0-0.7,0-1.5-0.9-1.5s-0.9,0.9-0.9,1.5v13.5
		h-12.8c-0.6,0-1.6,0-1.6,1c0,1,0.9,1,1.6,1h12.8v13.5c0,0.7,0,1.5,0.9,1.5s0.9-0.9,0.9-1.5V533.2"/>
	<path class="st6" d="M812.3,528.3c0.3-1.1,0.7-2.9,0.7-3.2c0-0.9-0.6-1.3-1.3-1.3c-0.5,0-1.4,0.4-1.7,1.3
		c-0.1,0.3-2.3,9.4-2.5,10.7c-0.4,1.4-0.5,2.3-0.5,3.2c0,0.6,0,0.7,0.1,0.9c-1.1,2.6-2.4,4-4.1,4c-3.6,0-3.6-3.6-3.6-4.3
		c0-1.5,0.2-3.5,2.3-9.3c0.5-1.4,0.7-2.1,0.7-3.1c0-2.1-1.4-3.9-3.7-3.9c-4.2,0-5.9,6.9-5.9,7.4s0.5,0.5,0.5,0.5
		c0.5,0,0.5-0.1,0.7-0.9c1.2-4.4,3-6,4.5-6c0.4,0,1.1,0.1,1.1,1.6c0,1.2-0.5,2.5-0.7,3.4c-2,5.6-2.5,7.8-2.5,9.6
		c0,4.4,3,6.1,6.3,6.1c0.8,0,2.9,0,4.7-3.4c1.2,3.1,4.3,3.4,5.6,3.4c3.4,0,5.4-3,6.6-5.9c1.5-3.8,3-10.2,3-12.5c0-2.6-1.3-3.4-2-3.4
		c-1.2,0-2.3,1.3-2.3,2.3c0,0.7,0.3,1,0.6,1.3c0.5,0.5,1.6,1.7,1.6,4c0,1.6-1.3,6.3-2.4,8.8c-1.2,2.6-2.8,4.2-5,4.2
		c-2.1,0-3.3-1.4-3.3-4.1c0-1.3,0.4-2.9,0.5-3.6L812.3,528.3"/>
	<path class="st6" d="M840.1,545.5H839c-0.1,0.8-0.4,2.7-0.8,3.1c-0.3,0.2-2.7,0.2-3.2,0.2h-6.1c3.5-3.2,4.6-4.1,6.6-5.7
		c2.4-2,4.7-4.1,4.7-7.2c0-4.1-3.5-6.6-7.7-6.6c-4,0-6.8,2.9-6.8,6c0,1.7,1.4,1.9,1.7,1.9c0.8,0,1.8-0.6,1.8-1.8
		c0-0.6-0.3-1.7-2-1.7c1-2.4,3.3-3.2,4.8-3.2c3.3,0,5,2.6,5,5.4c0,2.9-2,5.2-3.1,6.5l-7.9,8c-0.3,0.3-0.3,0.4-0.3,1.3h13.6
		L840.1,545.5"/>
	<path class="st6" d="M858.9,530c0.3-1.3,1.3-5.7,4.4-5.7c0.3,0,1.4,0,2.3,0.7c-1.3,0.2-2.2,1.4-2.2,2.6c0,0.8,0.5,1.6,1.7,1.6
		c1,0,2.4-0.9,2.4-2.8c0-2.5-2.6-3.2-4.2-3.2c-2.6,0-4.3,2.6-4.8,3.7c-1.1-3.2-3.5-3.7-4.8-3.7c-4.7,0-7.3,6.3-7.3,7.4
		c0,0.5,0.5,0.5,0.5,0.5c0.4,0,0.5-0.1,0.6-0.6c1.5-5,4.5-6.3,6.1-6.3c0.8,0,2.4,0.5,2.4,3.3c0,1.4-0.8,4.6-2.4,11.4
		c-0.7,3-2.4,5-4.3,5c-0.3,0-1.3,0-2.3-0.6c1.2-0.3,2.2-1.3,2.2-2.6c0-1.3-1-1.7-1.7-1.7c-1.4,0-2.4,1.3-2.4,2.8
		c0,2.2,2.3,3.2,4.3,3.2c3,0,4.6-3.4,4.7-3.7c0.5,1.8,2.2,3.7,4.9,3.7c4.6,0,7.2-6.2,7.2-7.4c0-0.5-0.5-0.5-0.5-0.5
		c-0.5,0-0.5,0.2-0.6,0.6c-1.4,5.1-4.5,6.3-6,6.3c-1.7,0-2.4-1.5-2.4-3.2c0-1.1,0.3-2.1,0.7-4.2L858.9,530"/>
	<path class="st6" d="M885.7,545.5h-1.1c-0.1,0.8-0.4,2.7-0.8,3.1c-0.2,0.2-2.6,0.2-3,0.2h-5.7c3.2-3.2,4.3-4.1,6.2-5.7
		c2.3-2,4.5-4.1,4.5-7.2c0-4.1-3.3-6.6-7.2-6.6c-3.9,0-6.5,2.9-6.5,6c0,1.7,1.3,1.9,1.7,1.9c0.7,0,1.6-0.6,1.6-1.8
		c0-0.6-0.2-1.7-1.9-1.7c1-2.4,3.1-3.2,4.6-3.2c3.1,0,4.7,2.6,4.7,5.4c0,2.9-1.9,5.2-2.9,6.5l-7.5,8c-0.4,0.3-0.4,0.4-0.4,1.3h12.9
		L885.7,545.5"/>
	<path class="st6" d="M929.9,533.2c0.7,0,1.5,0,1.5-1s-0.8-1-1.5-1h-24.5c-0.7,0-1.5,0-1.5,1s0.8,1,1.5,1H929.9"/>
	<path class="st6" d="M956.1,511.5c0-0.1,0-0.6-0.6-0.6c-1,0-4.4,0.4-5.6,0.5c-0.4,0.1-0.8,0.1-0.8,1c0,0.6,0.4,0.6,1.1,0.6
		c2.2,0,2.3,0.4,2.3,0.9c0,0.3-0.5,1.9-0.6,3l-3.7,15.7c-0.5,2.4-0.7,3.2-0.7,4.9c0,4.5,2.4,7.5,5.7,7.5c5.4,0,10.9-7.2,10.9-14.1
		c0-4.4-2.4-7.7-6-7.7c-2.1,0-3.9,1.5-5.3,2.9L956.1,511.5L956.1,511.5L956.1,511.5z M951.8,529.7c0.3-1,0.3-1.1,0.6-1.6
		c2.3-3.1,4.3-3.9,5.5-3.9c1.6,0,2.9,1.5,2.9,4.5c0,2.8-1.5,8.4-2.4,10.3c-1.5,3.2-3.6,4.9-5.4,4.9c-1.5,0-3-1.3-3-4.8
		c0-1,0-1.8,0.7-4.9L951.8,529.7"/>
</g>
</svg>
