<?xml version="1.0" encoding="utf-8"?>
<!-- Generator: Adobe Illustrator 26.5.0, SVG Export Plug-In . SVG Version: 6.00 Build 0)  -->
<svg version="1.1" id="Layer_1" xmlns="http://www.w3.org/2000/svg" xmlns:xlink="http://www.w3.org/1999/xlink" x="0px" y="0px"
	 viewBox="0 0 1580 1044" style="enable-background:new 0 0 1580 1044;" xml:space="preserve">
<style type="text/css">
	.st0{fill:#3FA9F5;}
	.st1{fill-rule:evenodd;clip-rule:evenodd;}
	.st2{fill:none;stroke:#6700F4;stroke-width:3;stroke-miterlimit:10;}
	.st3{fill:#6700F4;}
	.st4{fill:none;stroke:#A4AEB4;stroke-width:3;stroke-miterlimit:10;}
	.st5{fill:#A4AEB4;}
	.st6{fill:none;stroke:#000000;stroke-width:3;stroke-miterlimit:10;}
	.st7{fill:none;stroke:#3FA9F5;stroke-width:3;stroke-miterlimit:10;}
	.st8{fill-rule:evenodd;clip-rule:evenodd;fill:#A4AEB4;}
	.st9{fill-rule:evenodd;clip-rule:evenodd;fill:#6700F4;}
	.st10{fill-rule:evenodd;clip-rule:evenodd;fill:#3FA9F5;}
</style>
<g>
	<path d="M77.5,118c31.7,0,57.5,25.8,57.5,57.5S109.2,233,77.5,233S20,207.2,20,175.5S45.8,118,77.5,118 M77.5,115
		C44.1,115,17,142.1,17,175.5S44.1,236,77.5,236s60.5-27.1,60.5-60.5S110.9,115,77.5,115L77.5,115z"/>
</g>
<g>
	<path d="M751,234c33.1,0,60,26.9,60,60s-26.9,60-60,60s-60-26.9-60-60S717.9,234,751,234 M751,231c-34.8,0-63,28.2-63,63
		s28.2,63,63,63s63-28.2,63-63S785.8,231,751,231L751,231z"/>
</g>
<g>
	<path d="M77.5,337c31.7,0,57.5,25.8,57.5,57.5S109.2,452,77.5,452S20,426.2,20,394.5S45.8,337,77.5,337 M77.5,334
		C44.1,334,17,361.1,17,394.5S44.1,455,77.5,455s60.5-27.1,60.5-60.5S110.9,334,77.5,334L77.5,334z"/>
</g>
<g>
	<path d="M1498.5,232c31.7,0,57.5,25.8,57.5,57.5s-25.8,57.5-57.5,57.5s-57.5-25.8-57.5-57.5S1466.8,232,1498.5,232 M1498.5,229
		c-33.4,0-60.5,27.1-60.5,60.5s27.1,60.5,60.5,60.5s60.5-27.1,60.5-60.5S1531.9,229,1498.5,229L1498.5,229z"/>
</g>
<g>
	<path d="M77.5,811c31.7,0,57.5,25.8,57.5,57.5S109.2,926,77.5,926S20,900.2,20,868.5S45.8,811,77.5,811 M77.5,808
		C44.1,808,17,835.1,17,868.5S44.1,929,77.5,929s60.5-27.1,60.5-60.5S110.9,808,77.5,808L77.5,808z"/>
</g>
<g>
	<path class="st0" d="M870.5,50c31.7,0,57.5,25.8,57.5,57.5S902.2,165,870.5,165S813,139.2,813,107.5S838.8,50,870.5,50 M870.5,47
		c-33.4,0-60.5,27.1-60.5,60.5s27.1,60.5,60.5,60.5s60.5-27.1,60.5-60.5S903.9,47,870.5,47L870.5,47z"/>
</g>
<g>
	<path class="st1" d="M68,163.6c0.4-2,1.8-8.7,6.4-8.7c0.4,0,1.9,0,3.2,0.9c-1.8,0.3-3.1,2.3-3.1,4.1c0,1.2,0.8,2.6,2.5,2.6
		c1.4,0,3.5-1.2,3.5-4.4c0-3.8-3.8-4.8-6-4.8c-3.8,0-6,3.9-6.7,5.6c-1.7-4.8-5.2-5.6-7-5.6c-6.7,0-10.5,9.7-10.5,11.5
		c0,0.8,0.6,0.8,0.8,0.8c0.5,0,0.8-0.2,0.9-0.8c2.2-8,6.5-9.8,8.7-9.8c1.2,0,3.5,0.6,3.5,5c0,2.3-1.2,7.4-3.5,17.9
		c-1,4.7-3.4,7.8-6.2,7.8c-0.4,0-1.8,0-3.2-1.1c1.7-0.3,3.1-2,3.1-4.1c0-2-1.4-2.6-2.5-2.6c-1.9,0-3.5,2-3.5,4.4c0,3.5,3.2,5,6.1,5
		c4.3,0,6.6-5.3,6.7-5.7c0.8,2.7,3.1,5.7,7,5.7c6.6,0,10.4-9.8,10.4-11.6c0-0.8-0.6-0.8-0.8-0.8c-0.6,0-0.8,0.3-0.9,0.8
		c-2.1,8.1-6.5,10-8.6,10c-2.5,0-3.5-2.4-3.5-5c0-1.7,0.4-3.3,1-6.6L68,163.6"/>
	<path class="st1" d="M99.1,163.8c0-1.5,0-1.5-1.3-1.5c-2.8,3.3-7,3.3-8.9,3.3v2c1.2,0,4.1,0,6.6-1.5v27c0,1.7,0,2.4-4.5,2.4h-1.7
		v1.8c0.8,0,6.3-0.2,8-0.2c1.4,0,7.1,0.2,8.2,0.2v-1.8h-1.8c-4.5,0-4.5-0.8-4.5-2.4L99.1,163.8"/>
</g>
<g>
	<path class="st1" d="M62.2,856.6c0.4-1.9,1.9-8.6,6.3-8.6c0.3,0,1.8,0,3.2,0.9c-1.8,0.3-3,2.2-3,4c0,1.2,0.6,2.5,2.4,2.5
		c1.4,0,3.4-1.2,3.4-4.3c0-3.7-3.8-4.7-5.9-4.7c-3.7,0-5.8,3.9-6.6,5.5c-1.6-4.7-5.1-5.5-6.8-5.5c-6.6,0-10.1,9.5-10.1,11.3
		c0,0.7,0.6,0.7,0.8,0.7c0.5,0,0.6-0.1,0.8-0.7c2.1-7.9,6.3-9.6,8.5-9.6c1.1,0,3.4,0.6,3.4,4.9c0,2.2-1.1,7.3-3.4,17.6
		c-1,4.6-3.2,7.7-5.9,7.7c-0.4,0-1.9,0-3.2-1c1.5-0.3,2.9-1.9,2.9-4c0-1.9-1.4-2.5-2.3-2.5c-1.9,0-3.5,1.9-3.5,4.3
		c0,3.4,3.2,4.9,5.9,4.9c4.2,0,6.4-5.2,6.6-5.6c0.8,2.7,3,5.6,6.8,5.6c6.6,0,10.1-9.6,10.1-11.4c0-0.7-0.5-0.7-0.8-0.7
		c-0.5,0-0.6,0.3-0.8,0.7c-2.1,8-6.4,9.8-8.5,9.8c-2.4,0-3.4-2.4-3.4-4.9c0-1.6,0.4-3.3,1-6.5L62.2,856.6"/>
	<path class="st1" d="M85.7,886.1c-0.4,1.8-0.5,2.2-3.9,2.2c-0.8,0-1.3,0-1.3,1c0,0.7,0.5,0.7,1.3,0.7h15.8
		c9.7,0,19.1-10.5,19.1-21.8c0-7.6-4.4-13.6-11.6-13.6H89c-0.9,0-1.4,0-1.4,1.2c0,0.7,0.5,0.7,1.5,0.7c0.6,0,0.9,0,1.6,0.1
		c0.9,0,1,0.1,1,0.7c0,0,0,0.3-0.3,1L85.7,886.1L85.7,886.1L85.7,886.1z M95.5,858.4c0.4-1.6,0.4-1.8,2.3-1.8h5.6
		c4.9,0,9.1,3,9.1,9.9c0,1.2-0.4,10.2-4.8,16.1c-1.8,2.2-5.6,5.6-11,5.6h-5.9c-1.4,0-1.4-0.1-1.4-0.6c0,0,0-0.3,0.1-1L95.5,858.4"/>
</g>
<g>
	<path class="st1" d="M67.1,383.6c0.4-1.9,1.9-8.6,6.6-8.6c0.4,0,2,0,3.4,0.9c-1.9,0.3-3.3,2.2-3.3,4c0,1.2,0.8,2.5,2.6,2.5
		c1.5,0,3.7-1.2,3.7-4.3c0-3.7-3.9-4.7-6.2-4.7c-3.9,0-6.2,3.9-7,5.5c-1.8-4.7-5.4-5.5-7.3-5.5c-7,0-11,9.5-11,11.3
		c0,0.7,0.7,0.7,0.8,0.7c0.5,0,0.8-0.1,0.9-0.7c2.3-7.9,6.8-9.6,9.1-9.6c1.2,0,3.7,0.6,3.7,4.9c0,2.2-1.2,7.3-3.7,17.6
		c-1.1,4.6-3.5,7.7-6.5,7.7c-0.4,0-1.9,0-3.4-1c1.8-0.3,3.3-1.9,3.3-4c0-1.9-1.5-2.5-2.6-2.5c-2,0-3.7,1.9-3.7,4.3
		c0,3.4,3.4,4.9,6.4,4.9c4.5,0,6.9-5.2,7-5.6c0.8,2.7,3.3,5.6,7.3,5.6c6.9,0,10.8-9.6,10.8-11.4c0-0.7-0.7-0.7-0.8-0.7
		c-0.7,0-0.8,0.3-0.9,0.7c-2.2,8-6.8,9.8-8.9,9.8c-2.6,0-3.7-2.4-3.7-4.9c0-1.6,0.4-3.3,1.1-6.5L67.1,383.6"/>
	<path class="st1" d="M107.1,407.8h-1.6c-0.1,1-0.7,4.1-1.2,4.7c-0.4,0.3-4.1,0.3-4.7,0.3h-8.7c5-4.9,6.6-6.4,9.5-8.7
		c3.5-3.1,6.8-6.2,6.8-11.2c0-6.2-5-10.1-11.1-10.1c-5.8,0-9.9,4.4-9.9,9.3c0,2.7,2,2.8,2.6,2.8c1.1,0,2.4-0.9,2.4-2.7
		c0-1-0.3-2.8-2.7-2.8c1.5-3.7,4.6-4.7,6.9-4.7c4.7,0,7.2,4,7.2,8.1c0,4.6-3,8.1-4.5,9.9l-11.4,12.4c-0.5,0.4-0.5,0.6-0.5,1.9h19.5
		L107.1,407.8"/>
</g>
<g>
	<circle class="st1" cx="80" cy="593" r="7"/>
	<circle class="st1" cx="80" cy="636" r="7"/>
	<circle class="st1" cx="80" cy="679" r="7"/>
</g>
<g>
	<circle class="st1" cx="751" cy="484" r="7"/>
	<circle class="st1" cx="751" cy="527" r="7"/>
	<circle class="st1" cx="751" cy="570" r="7"/>
</g>
<g>
	<circle class="st1" cx="1498.5" cy="484" r="7"/>
	<circle class="st1" cx="1498.5" cy="527" r="7"/>
	<circle class="st1" cx="1498.5" cy="570" r="7"/>
</g>
<g>
	<path d="M751,700c33.1,0,60,26.9,60,60s-26.9,60-60,60s-60-26.9-60-60S717.9,700,751,700 M751,697c-34.8,0-63,28.2-63,63
		s28.2,63,63,63s63-28.2,63-63S785.8,697,751,697L751,697z"/>
</g>
<g>
	<path class="st1" d="M1142,514.1c0.9,0,3.5,0,3.5-2.8c0-2-1.5-2-2.8-2h-16.6c-11.1,0-19.1,13.7-19.1,23.7c0,7.2,4.2,13,10.9,13
		c8.6,0,18.2-10,18.2-22.9c0-1.3,0-5.3-2.2-9H1142L1142,514.1L1142,514.1z M1118,544.1c-3.5,0-6.4-3-6.4-8.8c0-2.5,0.9-9.3,3.3-14.4
		c3.1-5.7,7.4-6.8,9.9-6.8c6.1,0,6.7,5.5,6.7,8c0,4-1.5,10.8-3.9,15C1124.8,541.9,1120.9,544.1,1118,544.1"/>
</g>
<g>
	<polyline class="st1" points="1493.9,260 1485.5,268 1486.7,269.1 1493.9,263 1501.1,269.1 1502.2,268 1493.9,260 	"/>
	<path class="st1" d="M1504.4,278.5c0.2-0.8,0.2-0.9,0.2-1.4c0-1.1-0.9-1.5-1.9-1.5c-0.6,0-1.6,0.4-2.1,1.2
		c-0.1,0.4-0.6,2.1-0.9,3.2c-0.5,1.5-0.9,3.1-1.2,4.7l-2.9,10.6c-0.2,0.8-2.9,4.9-7,4.9c-3.2,0-3.9-2.6-3.9-4.7
		c0-2.7,1-6.4,3.1-11.5c1-2.4,1.2-3.1,1.2-4.2c0-2.6-2-4.8-5.1-4.8c-5.9,0-8.1,8.5-8.1,9.1s0.6,0.6,0.7,0.6c0.6,0,0.6-0.1,1-1.1
		c1.6-5.5,4.1-7.3,6.2-7.3c0.5,0,1.5,0,1.5,1.9c0,1.5-0.6,3.1-1,4.1c-2.5,6.2-3.6,9.5-3.6,12.4c0,5.2,3.9,6.9,7.6,6.9
		c2.4,0,4.5-0.9,6.2-2.6c-0.7,3.1-1.5,5.9-4,9c-1.6,2-4,3.8-6.9,3.8c-0.9,0-3.7-0.2-4.7-2.5c1,0,1.7,0,2.6-0.7
		c0.6-0.6,1.2-1.3,1.2-2.4c0-1.9-1.6-2.1-2.2-2.1c-1.5,0-3.5,0.9-3.5,3.8s2.7,5.2,6.6,5.2c6.4,0,12.8-5.4,14.6-12L1504.4,278.5"/>
</g>
<g>
	<g>
		<line class="st2" x1="166.1" y1="185.6" x2="666.9" y2="241.6"/>
		<g>
			<polygon class="st3" points="688,244 657,252.8 665.4,241.5 659.7,228.6 			"/>
		</g>
	</g>
</g>
<g>
	<g>
		<line class="st4" x1="166.1" y1="185.6" x2="682.7" y2="682.3"/>
		<g>
			<polygon class="st5" points="698,697 668,685.1 681.6,681.2 684.9,667.5 			"/>
		</g>
	</g>
</g>
<g>
	<g>
		<line class="st2" x1="166.1" y1="401.6" x2="655.3" y2="298.4"/>
		<g>
			<polygon class="st3" points="676,294 649.3,312.1 653.7,298.7 644.3,288.2 			"/>
		</g>
	</g>
</g>
<g>
	<g>
		<line class="st4" x1="166.1" y1="401.6" x2="663.4" y2="737.2"/>
		<g>
			<polygon class="st5" points="681,749 649.4,742.4 662.1,736.3 663.1,722.2 			"/>
		</g>
	</g>
</g>
<g>
	<g>
		<line class="st6" x1="835.1" y1="290.7" x2="971.8" y2="290.1"/>
		<g>
			<polygon points="993,290 963.2,302.3 970.2,290.1 963.1,277.9 			"/>
		</g>
	</g>
</g>
<g>
	<g>
		<line class="st6" x1="1243.1" y1="290.7" x2="1379.8" y2="290.1"/>
		<g>
			<polygon points="1401,290 1371.2,302.3 1378.2,290.1 1371.1,277.9 			"/>
		</g>
	</g>
</g>
<g>
	<g>
		<line class="st6" x1="835.1" y1="760.7" x2="971.8" y2="760.1"/>
		<g>
			<polygon points="993,760 963.2,772.3 970.2,760.1 963.1,747.9 			"/>
		</g>
	</g>
</g>
<g>
	<g>
		<line class="st6" x1="1243.1" y1="760.7" x2="1379.8" y2="760.1"/>
		<g>
			<polygon points="1401,760 1371.2,772.3 1378.2,760.1 1371.1,747.9 			"/>
		</g>
	</g>
</g>
<g>
	<g>
		<line class="st2" x1="166.1" y1="872.6" x2="682.9" y2="362.9"/>
		<g>
			<polygon class="st3" points="698,348 685.3,377.6 681.8,364 668.2,360.3 			"/>
		</g>
	</g>
</g>
<g>
	<g>
		<line class="st4" x1="166.1" y1="872.6" x2="660.1" y2="786.6"/>
		<g>
			<polygon class="st5" points="681,783 653.7,800.1 658.6,786.9 649.5,776.1 			"/>
		</g>
	</g>
</g>
<g>
	<g>
		<line class="st7" x1="840" y1="173" x2="809.2" y2="216.7"/>
		<g>
			<polygon class="st0" points="797,234 804.2,202.6 810.1,215.4 824.2,216.6 			"/>
		</g>
	</g>
</g>
<g>
	<g>
		<line class="st7" x1="835" y1="882" x2="806.9" y2="835.2"/>
		<g>
			<polygon class="st0" points="796,817 821.8,836.3 807.7,836.5 800.9,848.9 			"/>
		</g>
	</g>
</g>
<g>
	<path class="st8" d="M460.5,412c0.2-1.4,0.8-3.7,0.8-4.1c0-1.2-0.8-1.8-1.5-1.8s-1.6,0.5-2.1,1.8c-0.1,0.5-2.7,12.7-3.1,14.4
		c-0.3,1.9-0.4,3.1-0.4,4.2c0,0.6,0,0.8,0,1.2c-1.2,3.3-2.8,5.4-5,5.4c-4.4,0-4.4-4.7-4.4-5.9c0-2.1,0.3-4.5,2.8-12.4
		c0.7-1.9,1-2.8,1-4.1c0-2.8-1.9-5.1-4.5-5.1c-5.2,0-7.2,9.2-7.2,9.8c0,0.6,0.5,0.6,0.7,0.6c0.5,0,0.5-0.1,0.9-1.2
		c1.4-5.9,3.6-7.8,5.5-7.8c0.5,0,1.4,0,1.4,2.1c0,1.5-0.7,3.3-1,4.5c-2.4,7.6-3.1,10.5-3.1,13c0,5.8,3.6,8.1,7.8,8.1
		c0.9,0,3.5,0,5.6-4.5c1.4,4.1,5.2,4.5,6.9,4.5c4,0,6.4-4.1,7.9-8c1.9-5,3.6-13.6,3.6-16.7c0-3.5-1.4-4.4-2.4-4.4
		c-1.3,0-2.7,1.7-2.7,3.1c0,0.8,0.3,1.2,0.9,1.7c0.5,0.6,2,2.3,2,5.4c0,2.2-1.6,8.5-3.1,11.8c-1.4,3.3-3.3,5.6-6,5.6
		c-2.5,0-4-1.9-4-5.6c0-1.8,0.4-3.7,0.7-4.6L460.5,412"/>
	<path class="st8" d="M487,414.7c0-1.3,0-1.3-1.1-1.3c-2.4,2.8-5.9,2.8-7.5,2.8v1.7c0.9,0,3.4,0,5.5-1.3v23c0,1.5,0,2.1-3.8,2.1
		h-1.4v1.7c0.7-0.1,5.4-0.3,6.8-0.3c1.2,0,6,0.1,6.9,0.3v-1.7h-1.5c-3.8,0-3.8-0.5-3.8-2.1v-24.9"/>
	<path class="st8" d="M504.1,442.6c0,2.4-0.4,5.4-3,8.2c-0.2,0.3-0.3,0.4-0.3,0.5c0,0.4,0.3,0.6,0.6,0.6c0.6,0,3.9-3.6,3.9-8.9
		c0-2.8-1-4.9-2.8-4.9c-1.2,0-2.2,1.2-2.2,2.6s0.9,2.6,2.3,2.6C503.4,443.4,504.1,442.6,504.1,442.6"/>
	<path class="st8" d="M520.8,413.6c0-0.1,0.1-0.6,0.1-0.8c0-0.1-0.1-0.6-0.5-0.6c-0.8,0-3.9,0.4-4.9,0.5c-0.3,0-0.9,0.1-0.9,1
		c0,0.6,0.5,0.6,1.1,0.6c1.7,0,1.7,0.3,1.7,0.6c0,0.4,0,0.6-0.1,1l-5.3,25.4c-0.2,0.9-0.2,0.9-0.2,1c0,0.6,0.4,1.4,1.3,1.4
		c1,0,1.5-0.9,1.7-1.8c0.1-0.3,1.7-8.1,1.9-8.8c2.7,0.3,4.9,1.3,4.9,3.7c0,0.1,0,0.4-0.1,0.9c-0.1,0.6-0.1,0.8-0.1,1.3
		c0,3.2,2.2,4.6,4,4.6c3.6,0,4.8-6.8,4.8-6.8c0-0.6-0.5-0.6-0.7-0.6c-0.5,0-0.5,0.3-0.8,1.2c-0.4,1.9-1.4,5.2-3.3,5.2
		c-1.1,0-1.4-1.2-1.4-2.5c0-0.8,0-0.8,0.2-1.9c0.1-0.1,0.2-0.9,0.2-1.4c0-4-4.6-4.6-6.1-4.8c1.1-0.8,2.5-2.3,3.2-3
		c1.9-2.2,3.8-4.3,5.9-4.3c0.5,0,1,0.1,1.3,0.5c-1.6,0.4-2,1.8-2,2.6c0,0.9,0.7,1.7,1.5,1.7c1,0,2.2-1,2.2-3c0-1.4-1-3.1-2.9-3.1
		c-2.2,0-4.1,1.8-6.1,4c-1.6,1.8-2.8,3.1-4.5,3.9L520.8,413.6"/>
</g>
<g>
	<path class="st8" d="M307.1,558.1c0.2-1.4,0.8-3.7,0.8-4.1c0-1.2-0.8-1.8-1.5-1.8s-1.6,0.5-2.1,1.8c-0.1,0.5-2.7,12.8-3.1,14.5
		c-0.3,1.9-0.4,3.1-0.4,4.3c0,0.6,0,0.8,0,1.2c-1.2,3.4-2.9,5.4-5.1,5.4c-4.4,0-4.4-4.8-4.4-5.9c0-2.1,0.3-4.5,2.9-12.5
		c0.7-1.9,1-2.8,1-4.1c0-2.8-1.9-5.2-4.5-5.2c-5.3,0-7.2,9.3-7.2,9.8c0,0.6,0.5,0.6,0.7,0.6c0.5,0,0.5-0.1,0.9-1.2
		c1.4-5.9,3.6-7.9,5.5-7.9c0.5,0,1.4,0,1.4,2.1c0,1.5-0.7,3.4-1,4.5c-2.4,7.6-3.1,10.6-3.1,13c0,5.8,3.6,8.1,7.8,8.1
		c0.9,0,3.5,0,5.6-4.5c1.4,4.1,5.3,4.5,6.9,4.5c4.1,0,6.5-4.1,7.9-8c1.9-5,3.6-13.7,3.6-16.8c0-3.5-1.4-4.4-2.4-4.4
		c-1.3,0-2.7,1.7-2.7,3.1c0,0.8,0.3,1.2,0.9,1.7c0.5,0.6,2,2.3,2,5.4c0,2.2-1.6,8.5-3.1,11.9c-1.4,3.4-3.3,5.7-6,5.7
		c-2.5,0-4.1-1.9-4.1-5.7c0-1.8,0.4-3.7,0.7-4.6L307.1,558.1"/>
	<path class="st8" d="M340.2,581.4h-1.3c-0.1,1-0.5,3.8-1,4.2c-0.3,0.3-3.3,0.3-3.8,0.3h-7c4.1-4.2,5.4-5.5,7.7-7.7
		c2.9-2.6,5.5-5.5,5.5-9.7c0-5.5-4.1-8.8-9-8.8c-4.7,0-8,3.9-8,8c0,2.3,1.6,2.6,2.1,2.6c0.9,0,2-0.8,2-2.3c0-0.9-0.2-2.5-2.2-2.5
		c1.2-3.2,3.7-4.2,5.6-4.2c3.8,0,5.8,3.5,5.8,7.1c0,3.9-2.4,7.1-3.6,8.7l-9.2,10.8c-0.4,0.4-0.4,0.5-0.4,1.8H339L340.2,581.4"/>
	<path class="st8" d="M350.9,588.9c0,2.5-0.4,5.4-3,8.3c-0.2,0.3-0.3,0.4-0.3,0.5c0,0.4,0.3,0.6,0.6,0.6c0.6,0,3.9-3.6,3.9-8.9
		c0-2.8-1-4.9-2.8-4.9c-1.2,0-2.2,1.2-2.2,2.6s0.9,2.6,2.4,2.6C350.2,589.7,350.9,588.9,350.9,588.9"/>
	<path class="st8" d="M367.7,559.7c0-0.1,0.1-0.6,0.1-0.8s-0.1-0.6-0.5-0.6c-0.8,0-3.9,0.4-4.9,0.5c-0.3,0-0.9,0.1-0.9,1
		c0,0.6,0.5,0.6,1.1,0.6c1.8,0,1.8,0.3,1.8,0.6s0,0.6-0.1,1l-5.4,25.6c-0.2,0.9-0.2,0.9-0.2,1c0,0.6,0.4,1.4,1.3,1.4
		c1,0,1.5-0.9,1.8-1.8c0.1-0.3,1.8-8.2,1.9-8.8c2.7,0.3,4.9,1.3,4.9,3.8c0,0.1,0,0.4-0.1,0.9c-0.1,0.6-0.1,0.8-0.1,1.3
		c0,3.2,2.2,4.7,4.1,4.7c3.6,0,4.8-6.9,4.8-6.9c0-0.6-0.5-0.6-0.7-0.6c-0.5,0-0.5,0.3-0.8,1.2c-0.4,1.9-1.4,5.2-3.3,5.2
		c-1.1,0-1.4-1.2-1.4-2.5c0-0.8,0-0.8,0.2-1.9c0.1-0.1,0.2-0.9,0.2-1.4c0-4-4.6-4.7-6.1-4.8c1.1-0.8,2.5-2.3,3.2-3
		c1.9-2.2,3.8-4.3,5.9-4.3c0.5,0,1,0.1,1.3,0.5c-1.6,0.4-2,1.8-2,2.6c0,0.9,0.7,1.7,1.5,1.7c1,0,2.2-1,2.2-3c0-1.4-1-3.1-3-3.1
		c-2.2,0-4.2,1.8-6.1,4c-1.6,1.8-2.8,3.1-4.5,3.9L367.7,559.7"/>
</g>
<g>
	<path class="st8" d="M454.4,855.1c0.3-1.4,0.9-3.7,0.9-4.1c0-1.2-0.7-1.8-1.6-1.8c-0.6,0-1.6,0.5-1.9,1.8
		c-0.2,0.5-2.7,12.8-3.1,14.5c-0.3,1.9-0.4,3.1-0.4,4.3c0,0.6,0,0.8,0,1.2c-1.2,3.4-2.8,5.4-4.9,5.4c-4.2,0-4.2-4.8-4.2-5.9
		c0-2.1,0.2-4.5,2.7-12.5c0.6-1.9,1-2.8,1-4.1c0-2.8-1.8-5.2-4.4-5.2c-5,0-7.1,9.3-7.1,9.8c0,0.6,0.5,0.6,0.6,0.6
		c0.5,0,0.6-0.1,0.9-1.2c1.5-5.9,3.5-7.9,5.5-7.9c0.4,0,1.3,0,1.3,2.1c0,1.5-0.5,3.4-1,4.5c-2.4,7.6-3,10.6-3,13
		c0,5.8,3.6,8.1,7.6,8.1c0.9,0,3.4,0,5.6-4.5c1.4,4.1,5,4.5,6.6,4.5c4,0,6.3-4.1,7.7-8c1.8-5,3.5-13.7,3.5-16.8
		c0-3.5-1.4-4.4-2.4-4.4c-1.3,0-2.7,1.7-2.7,3.1c0,0.8,0.3,1.2,0.9,1.7c0.5,0.6,1.9,2.3,1.9,5.4c0,2.2-1.6,8.5-3,11.9
		s-3.2,5.7-5.8,5.7s-4-1.9-4-5.7c0-1.8,0.3-3.7,0.5-4.6L454.4,855.1"/>
	<path class="st8" d="M475,883.2c-0.3,1.4-0.4,1.8-3.3,1.8c-0.6,0-1.2,0-1.2,1c0,0.6,0.5,0.6,1.2,0.6h13.2c8.3,0,16.2-9.2,16.2-19.2
		c0-6.6-3.7-11.8-9.8-11.8h-13.5c-0.7,0-1.2,0-1.2,1c0,0.6,0.4,0.6,1.2,0.6c0.6,0,0.7,0,1.5,0.1c0.7,0,0.7,0.1,0.7,0.5
		c0,0.1,0,0.4-0.1,1L475,883.2L475,883.2L475,883.2z M483.3,859c0.2-1.4,0.3-1.6,1.8-1.6h4.8c4.2,0,7.7,2.5,7.7,8.7
		c0,1-0.3,8.8-4.1,14c-1.5,2.1-4.7,4.9-9.3,4.9h-5c-1.2,0-1.2,0-1.2-0.4c0-0.1,0-0.3,0.1-1L483.3,859"/>
	<path class="st8" d="M511.7,885.9c0,2.5-0.4,5.4-2.8,8.3c-0.2,0.3-0.3,0.4-0.3,0.5c0,0.4,0.3,0.6,0.5,0.6c0.5,0,3.6-3.6,3.6-8.9
		c0-2.8-0.9-4.9-2.6-4.9c-1.1,0-2.1,1.2-2.1,2.6s0.8,2.6,2.2,2.6C511.1,886.7,511.7,885.9,511.7,885.9"/>
	<path class="st8" d="M528.1,856.7c0-0.1,0.1-0.6,0.1-0.8s-0.1-0.6-0.5-0.6c-0.7,0-3.8,0.4-4.8,0.5c-0.3,0-0.9,0.1-0.9,1
		c0,0.6,0.5,0.6,1,0.6c1.8,0,1.8,0.3,1.8,0.6s-0.1,0.6-0.1,1l-5.2,25.6c-0.2,0.9-0.2,0.9-0.2,1c0,0.6,0.4,1.4,1.3,1.4
		c1,0,1.5-0.9,1.7-1.8c0-0.3,1.6-8.2,1.8-8.8c2.7,0.3,4.8,1.3,4.8,3.8c0,0.1,0,0.4-0.1,0.9c-0.2,0.6-0.2,0.8-0.2,1.3
		c0,3.2,2.2,4.7,3.9,4.7c3.6,0,4.8-6.9,4.8-6.9c0-0.6-0.5-0.6-0.6-0.6c-0.5,0-0.5,0.3-0.7,1.2c-0.4,1.9-1.4,5.2-3.3,5.2
		c-1,0-1.3-1.2-1.3-2.5c0-0.8,0-0.8,0.2-1.9c0.1-0.1,0.2-0.9,0.2-1.4c0-4-4.5-4.7-6-4.8c1.1-0.8,2.5-2.3,3.1-3
		c1.8-2.2,3.7-4.3,5.8-4.3c0.4,0,1,0.1,1.3,0.5c-1.6,0.4-1.9,1.8-1.9,2.6c0,0.9,0.6,1.7,1.5,1.7c1,0,2-1,2-3c0-1.4-0.9-3.1-2.8-3.1
		c-2.1,0-4.1,1.8-6,4c-1.6,1.8-2.8,3.1-4.4,3.9L528.1,856.7"/>
</g>
<g>
	<path class="st9" d="M420,174.2c0.2-1.4,0.8-3.7,0.8-4.1c0-1.2-0.8-1.8-1.7-1.8c-0.7,0-1.8,0.5-2.3,1.8c-0.1,0.5-3,12.8-3.3,14.5
		c-0.5,1.9-0.6,3.1-0.6,4.3c0,0.6,0,0.8,0.1,1.2c-1.4,3.4-3.2,5.4-5.5,5.4c-4.8,0-4.8-4.8-4.8-5.9c0-2.1,0.4-4.5,3.1-12.5
		c0.7-1.9,1.1-2.8,1.1-4.1c0-2.8-2-5.2-4.9-5.2c-5.7,0-7.9,9.3-7.9,9.8c0,0.6,0.6,0.6,0.7,0.6c0.6,0,0.6-0.1,1-1.2
		c1.6-5.9,3.9-7.9,6-7.9c0.6,0,1.6,0,1.6,2.1c0,1.5-0.7,3.4-1.1,4.5c-2.6,7.6-3.3,10.6-3.3,13c0,5.8,3.9,8.1,8.5,8.1
		c1,0,3.7,0,6.1-4.5c1.6,4.1,5.7,4.5,7.5,4.5c4.4,0,7-4.1,8.6-8c2-5,3.9-13.7,3.9-16.8c0-3.5-1.7-4.4-2.6-4.4c-1.4,0-3,1.7-3,3.1
		c0,0.8,0.4,1.2,1,1.7c0.6,0.6,2,2.3,2,5.4c0,2.2-1.7,8.5-3.2,11.9c-1.6,3.4-3.6,5.7-6.6,5.7c-2.7,0-4.4-1.9-4.4-5.7
		c0-1.8,0.5-3.7,0.7-4.6L420,174.2"/>
	<path class="st9" d="M449,177c0-1.3-0.1-1.3-1.2-1.3c-2.7,2.9-6.4,2.9-8.2,2.9v1.7c1.1,0,3.8,0,6.1-1.3v23c0,1.6,0,2.1-4.2,2.1H440
		v1.7c0.7-0.1,5.8-0.3,7.4-0.3c1.3,0,6.5,0.1,7.4,0.3v-1.7h-1.5c-4.2,0-4.2-0.5-4.2-2.1L449,177"/>
	<path class="st9" d="M467.6,205c0,2.5-0.5,5.4-3.4,8.3c-0.1,0.3-0.2,0.4-0.2,0.5c0,0.4,0.4,0.6,0.6,0.6c0.6,0,4.1-3.6,4.1-8.9
		c0-2.8-1-4.9-2.9-4.9c-1.4,0-2.4,1.2-2.4,2.6s1,2.6,2.4,2.6C466.9,205.8,467.5,205,467.6,205"/>
	<path class="st9" d="M486.8,177c0-1.3-0.1-1.3-1.2-1.3c-2.7,2.9-6.4,2.9-8.2,2.9v1.7c1.1,0,3.8,0,6.1-1.3v23c0,1.6,0,2.1-4.2,2.1
		h-1.5v1.7c0.7-0.1,5.8-0.3,7.4-0.3c1.3,0,6.5,0.1,7.4,0.3v-1.7h-1.5c-4.2,0-4.2-0.5-4.2-2.1L486.8,177"/>
</g>
<g>
	<path class="st9" d="M391,297.2c0.2-1.4,0.8-3.7,0.8-4.1c0-1.2-0.8-1.8-1.7-1.8c-0.7,0-1.8,0.5-2.3,1.8c-0.1,0.5-3,12.8-3.3,14.5
		c-0.5,1.9-0.6,3.1-0.6,4.3c0,0.6,0,0.8,0.1,1.2c-1.4,3.4-3.2,5.4-5.5,5.4c-4.8,0-4.8-4.8-4.8-5.9c0-2.1,0.4-4.5,3.1-12.5
		c0.7-1.9,1.1-2.8,1.1-4.1c0-2.8-2-5.2-4.9-5.2c-5.7,0-7.9,9.3-7.9,9.8c0,0.6,0.6,0.6,0.7,0.6c0.6,0,0.6-0.1,1-1.2
		c1.6-5.9,3.9-7.9,6-7.9c0.6,0,1.6,0,1.6,2.1c0,1.5-0.7,3.4-1.1,4.5c-2.6,7.6-3.3,10.6-3.3,13c0,5.8,3.9,8.1,8.5,8.1
		c1,0,3.7,0,6.1-4.5c1.6,4.1,5.7,4.5,7.5,4.5c4.4,0,7-4.1,8.6-8c2-5,3.9-13.7,3.9-16.8c0-3.5-1.7-4.4-2.6-4.4c-1.4,0-3,1.7-3,3.1
		c0,0.8,0.4,1.2,1,1.7c0.6,0.6,2,2.3,2,5.4c0,2.2-1.7,8.5-3.2,11.9c-1.6,3.4-3.6,5.7-6.6,5.7c-2.7,0-4.4-1.9-4.4-5.7
		c0-1.8,0.5-3.7,0.7-4.6L391,297.2"/>
	<path class="st9" d="M427,320.5h-1.3c-0.1,1-0.6,3.8-1.1,4.2c-0.4,0.3-3.6,0.3-4.2,0.3h-7.7c4.3-4.2,5.9-5.5,8.4-7.7
		c3-2.6,5.9-5.5,5.9-9.7c0-5.5-4.3-8.8-9.7-8.8c-5.2,0-8.8,3.9-8.8,8c0,2.3,1.8,2.6,2.3,2.6c1,0,2.2-0.8,2.2-2.3
		c0-0.9-0.2-2.5-2.4-2.5c1.2-3.2,4.1-4.2,6.1-4.2c4.1,0,6.4,3.5,6.4,7.1c0,3.9-2.6,7.1-4,8.7L409,327c-0.5,0.4-0.5,0.5-0.5,1.8h17.3
		L427,320.5"/>
	<path class="st9" d="M438.5,328c0,2.5-0.5,5.4-3.4,8.3c-0.1,0.3-0.2,0.4-0.2,0.5c0,0.4,0.4,0.6,0.6,0.6c0.6,0,4.1-3.6,4.1-8.9
		c0-2.8-1-4.9-2.9-4.9c-1.4,0-2.4,1.2-2.4,2.6s1,2.6,2.4,2.6C437.8,328.8,438.4,328,438.5,328"/>
	<path class="st9" d="M457.8,300c0-1.3-0.1-1.3-1.2-1.3c-2.7,2.9-6.4,2.9-8.2,2.9v1.7c1.1,0,3.8,0,6.1-1.3v23c0,1.6,0,2.1-4.2,2.1
		h-1.5v1.7c0.7-0.1,5.8-0.3,7.4-0.3c1.3,0,6.5,0.1,7.4,0.3v-1.7h-1.5c-4.2,0-4.2-0.5-4.2-2.1L457.8,300"/>
</g>
<g>
	<path class="st10" d="M858.1,77.1c0,0,0-0.6-0.8-0.6c-1.3,0-5.8,0.5-7.4,0.6c-0.5,0-1.1,0.1-1.1,1.3c0,0.8,0.5,0.8,1.4,0.8
		c2.9,0,3,0.4,3,1c0,0.5-0.6,2.7-0.8,4l-4.9,21.1c-0.7,3.2-1,4.3-1,6.5c0,6.2,3.1,10.1,7.6,10.1c7.1,0,14.5-9.6,14.5-18.9
		c0-5.8-3.1-10.3-8-10.3c-2.8,0-5.2,1.9-7,3.9L858.1,77.1L858.1,77.1L858.1,77.1z M852.4,101.5c0.4-1.4,0.4-1.6,0.8-2.3
		c3-4.1,5.7-5.2,7.2-5.2c2.2,0,3.7,1.9,3.7,6.1c0,3.9-1.9,11.2-3,13.7c-2.1,4.3-4.7,6.6-7.1,6.6c-2.1,0-4-1.7-4-6.5
		c0-1.2,0-2.5,1-6.5L852.4,101.5"/>
	<path class="st10" d="M886.4,102.2c0-1.3-0.1-1.3-1.2-1.3c-2.7,2.9-6.4,2.9-8.2,2.9v1.7c1.1,0,3.8,0,6.1-1.3v23.1
		c0,1.6,0,2.1-4.2,2.1h-1.5v1.7c0.7-0.1,5.8-0.3,7.4-0.3c1.3,0,6.5,0.1,7.4,0.3v-1.7h-1.5c-4.2,0-4.2-0.5-4.2-2.1L886.4,102.2"/>
</g>
<g>
	<path class="st0" d="M870.5,882c31.7,0,57.5,25.8,57.5,57.5S902.2,997,870.5,997S813,971.2,813,939.5S838.8,882,870.5,882
		 M870.5,879c-33.4,0-60.5,27.1-60.5,60.5s27.1,60.5,60.5,60.5s60.5-27.1,60.5-60.5S903.9,879,870.5,879L870.5,879z"/>
</g>
<g>
	<path class="st10" d="M858.1,909.1c0,0,0-0.6-0.8-0.6c-1.3,0-5.8,0.5-7.4,0.6c-0.5,0-1.1,0.1-1.1,1.3c0,0.8,0.5,0.8,1.4,0.8
		c2.9,0,3,0.4,3,1c0,0.5-0.6,2.7-0.8,4l-4.9,21.1c-0.7,3.2-1,4.3-1,6.5c0,6.2,3.1,10.1,7.6,10.1c7.1,0,14.5-9.6,14.5-18.9
		c0-5.8-3.1-10.3-8-10.3c-2.8,0-5.2,1.9-7,3.9L858.1,909.1L858.1,909.1L858.1,909.1z M852.4,933.5c0.4-1.4,0.4-1.6,0.8-2.3
		c3-4.1,5.7-5.2,7.2-5.2c2.2,0,3.7,1.9,3.7,6.1c0,3.9-1.9,11.2-3,13.7c-2.1,4.3-4.7,6.6-7.1,6.6c-2.1,0-4-1.7-4-6.5
		c0-1.2,0-2.5,1-6.5L852.4,933.5"/>
	<path class="st10" d="M882.3,935.8c0-0.1,0.1-0.6,0.1-0.8s-0.1-0.6-0.5-0.6c-0.7,0-3.8,0.4-4.8,0.5c-0.3,0-0.9,0.1-0.9,1
		c0,0.6,0.5,0.6,1,0.6c1.8,0,1.8,0.3,1.8,0.6s-0.1,0.6-0.1,1l-5.2,25.6c-0.2,0.9-0.2,0.9-0.2,1c0,0.6,0.4,1.4,1.3,1.4
		c1,0,1.5-0.9,1.7-1.8c0-0.3,1.6-8.2,1.8-8.8c2.7,0.3,4.8,1.3,4.8,3.8c0,0.1,0,0.4-0.1,0.9c-0.2,0.6-0.2,0.8-0.2,1.3
		c0,3.2,2.2,4.7,3.9,4.7c3.6,0,4.8-6.9,4.8-6.9c0-0.6-0.5-0.6-0.6-0.6c-0.5,0-0.5,0.3-0.7,1.2c-0.4,1.9-1.4,5.2-3.3,5.2
		c-1,0-1.3-1.2-1.3-2.5c0-0.8,0-0.8,0.2-1.9c0.1-0.1,0.2-0.9,0.2-1.4c0-4-4.5-4.7-6-4.8c1.1-0.8,2.5-2.3,3.1-3
		c1.8-2.2,3.7-4.3,5.8-4.3c0.4,0,1,0.1,1.3,0.5c-1.6,0.4-1.9,1.8-1.9,2.6c0,0.9,0.6,1.7,1.5,1.7c1,0,2-1,2-3c0-1.4-0.9-3.1-2.8-3.1
		c-2.1,0-4.1,1.8-6,4c-1.6,1.8-2.8,3.1-4.4,3.9L882.3,935.8"/>
</g>
<g>
	<path class="st1" d="M774.5,323.7l5.3-13.5h-1.1c-1.8,4.4-6.4,7.3-11.4,8.5c-1,0.2-5.2,1.3-13.6,1.3h-26.5l22.4-25.1
		c0.3-0.3,0.4-0.5,0.4-0.7c0-0.1,0-0.3-0.3-0.7l-20.4-26.8h24c5.9,0,9.9,0.6,10.3,0.7c2.3,0.3,6.2,1,9.6,3.1c1.1,0.7,4.1,2.5,5.6,6
		h1.1l-5.3-11.8h-51.9c-1,0-1.1,0-1.1,0.3c-0.1,0.2-0.1,0.9-0.1,1.4l23.2,30.5L722,322.4c-0.4,0.5-0.4,0.8-0.4,0.8
		c0,0.5,0.4,0.5,1.1,0.5L774.5,323.7"/>
</g>
<g>
	<path class="st1" d="M774.5,789.7l5.3-13.5h-1.1c-1.8,4.4-6.4,7.3-11.4,8.5c-1,0.2-5.2,1.3-13.6,1.3h-26.5l22.4-25.1
		c0.3-0.3,0.4-0.5,0.4-0.7c0-0.1,0-0.3-0.3-0.7l-20.4-26.8h24c5.9,0,9.9,0.6,10.3,0.7c2.3,0.3,6.2,1,9.6,3.1c1.1,0.7,4.1,2.5,5.6,6
		h1.1l-5.3-11.8h-51.9c-1,0-1.1,0-1.1,0.3c-0.1,0.2-0.1,0.9-0.1,1.4l23.2,30.5L722,788.4c-0.4,0.5-0.4,0.8-0.4,0.8
		c0,0.5,0.4,0.5,1.1,0.5H774.5"/>
</g>
<path class="st6" d="M1172.6,848.5h-101.3c-18.7,0-33.9-15.2-33.9-33.9V239.4c0-18.7,15.2-33.9,33.9-33.9h101.3
	c18.7,0,33.9,15.2,33.9,33.9v575.3C1206.5,833.3,1191.3,848.5,1172.6,848.5z"/>
<path class="st1" d="M1516,290.8c0-1.3-0.1-1.3-1.2-1.3c-2.7,2.9-6.4,2.9-8.2,2.9v1.7c1.1,0,3.8,0,6.1-1.3v23.1c0,1.6,0,2.1-4.2,2.1
	h-1.5v1.7c0.7-0.1,5.8-0.3,7.4-0.3c1.3,0,6.5,0.1,7.4,0.3V318h-1.5c-4.2,0-4.2-0.5-4.2-2.1v-25.1"/>
<g>
	<path d="M1498.5,703c31.7,0,57.5,25.8,57.5,57.5s-25.8,57.5-57.5,57.5s-57.5-25.8-57.5-57.5S1466.8,703,1498.5,703 M1498.5,700
		c-33.4,0-60.5,27.1-60.5,60.5s27.1,60.5,60.5,60.5s60.5-27.1,60.5-60.5S1531.9,700,1498.5,700L1498.5,700z"/>
</g>
<g>
	<polyline class="st1" points="1493.9,731 1485.5,739 1486.7,740.1 1493.9,734 1501.1,740.1 1502.2,739 1493.9,731 	"/>
	<path class="st1" d="M1504.4,749.5c0.2-0.8,0.2-0.9,0.2-1.4c0-1.1-0.9-1.5-1.9-1.5c-0.6,0-1.6,0.4-2.1,1.2
		c-0.1,0.4-0.6,2.1-0.9,3.2c-0.5,1.5-0.9,3.1-1.2,4.7l-2.9,10.6c-0.2,0.8-2.9,4.9-7,4.9c-3.2,0-3.9-2.6-3.9-4.7
		c0-2.7,1-6.4,3.1-11.5c1-2.4,1.2-3.1,1.2-4.2c0-2.6-2-4.8-5.1-4.8c-5.9,0-8.1,8.5-8.1,9.1s0.6,0.6,0.7,0.6c0.6,0,0.6-0.1,1-1.1
		c1.6-5.5,4.1-7.3,6.2-7.3c0.5,0,1.5,0,1.5,1.9c0,1.5-0.6,3.1-1,4.1c-2.5,6.2-3.6,9.5-3.6,12.4c0,5.2,3.9,6.9,7.6,6.9
		c2.4,0,4.5-0.9,6.2-2.6c-0.7,3.1-1.5,5.9-4,9c-1.6,2-4,3.8-6.9,3.8c-0.9,0-3.7-0.2-4.7-2.5c1,0,1.7,0,2.6-0.7
		c0.6-0.6,1.2-1.3,1.2-2.4c0-1.9-1.6-2.1-2.2-2.1c-1.5,0-3.5,0.9-3.5,3.8c0,2.9,2.7,5.2,6.6,5.2c6.4,0,12.8-5.4,14.6-12
		L1504.4,749.5"/>
</g>
<path class="st1" d="M1513.9,761.7c0-0.1,0.1-0.6,0.1-0.8s-0.1-0.6-0.5-0.6c-0.7,0-3.8,0.4-4.8,0.5c-0.3,0-0.9,0.1-0.9,1
	c0,0.6,0.5,0.6,1,0.6c1.8,0,1.8,0.3,1.8,0.6c0,0.4-0.1,0.6-0.1,1l-5.2,25.6c-0.2,0.9-0.2,0.9-0.2,1c0,0.6,0.4,1.4,1.3,1.4
	c1,0,1.5-0.9,1.7-1.8c0-0.3,1.6-8.2,1.8-8.8c2.7,0.3,4.8,1.3,4.8,3.8c0,0.1,0,0.4-0.1,0.9c-0.2,0.6-0.2,0.8-0.2,1.3
	c0,3.2,2.2,4.7,3.9,4.7c3.6,0,4.8-6.9,4.8-6.9c0-0.6-0.5-0.6-0.6-0.6c-0.5,0-0.5,0.3-0.7,1.2c-0.4,1.9-1.4,5.2-3.3,5.2
	c-1,0-1.3-1.2-1.3-2.5c0-0.8,0-0.8,0.2-1.9c0.1-0.1,0.2-0.9,0.2-1.4c0-4-4.5-4.7-6-4.8c1.1-0.8,2.5-2.3,3.1-3
	c1.8-2.2,3.7-4.3,5.8-4.3c0.4,0,1,0.1,1.3,0.5c-1.6,0.4-1.9,1.8-1.9,2.6c0,0.9,0.6,1.7,1.5,1.7c1,0,2-1,2-3c0-1.4-0.9-3.1-2.8-3.1
	c-2.1,0-4.1,1.8-6,4c-1.6,1.8-2.8,3.1-4.4,3.9L1513.9,761.7"/>
<g>
	<path class="st9" d="M593.2,505.2c0.4-1.4,0.9-3.7,0.9-4.1c0-1.2-0.8-1.8-1.8-1.8c-0.7,0-1.8,0.5-2.1,1.8
		c-0.2,0.5-2.9,12.8-3.4,14.5c-0.4,1.9-0.5,3.1-0.5,4.3c0,0.6,0,0.8,0,1.2c-1.3,3.4-3.1,5.4-5.4,5.4c-4.6,0-4.6-4.8-4.6-5.9
		c0-2.1,0.2-4.5,3.1-12.5c0.6-1.9,0.9-2.8,0.9-4.1c0-2.8-1.9-5.2-4.8-5.2c-5.5,0-7.8,9.3-7.8,9.8c0,0.6,0.6,0.6,0.7,0.6
		c0.6,0,0.7-0.1,0.9-1.2c1.6-5.9,3.9-7.9,6-7.9c0.5,0,1.4,0,1.4,2.1c0,1.5-0.6,3.4-1.1,4.5c-2.6,7.6-3.3,10.6-3.3,13
		c0,5.8,4,8.1,8.4,8.1c0.9,0,3.8,0,6.1-4.5c1.5,4.1,5.5,4.5,7.3,4.5c4.5,0,7.1-4.1,8.5-8c2-5,3.9-13.7,3.9-16.8
		c0-3.5-1.5-4.4-2.6-4.4c-1.4,0-2.8,1.7-2.8,3.1c0,0.8,0.4,1.2,0.8,1.7c0.6,0.6,2.1,2.3,2.1,5.4c0,2.2-1.6,8.5-3.2,11.9
		c-1.5,3.4-3.7,5.7-6.5,5.7s-4.4-1.9-4.4-5.7c0-1.8,0.4-3.7,0.6-4.6L593.2,505.2"/>
	<path class="st9" d="M615.9,533.3c-0.4,1.4-0.5,1.8-3.6,1.8c-0.7,0-1.2,0-1.2,1c0,0.6,0.5,0.6,1.2,0.6h14.7c9,0,17.9-9.2,17.9-19.2
		c0-6.6-4.2-11.8-10.9-11.8h-14.9c-0.8,0-1.3,0-1.3,1c0,0.6,0.5,0.6,1.4,0.6c0.6,0,0.8,0,1.5,0.1c0.8,0,0.9,0.1,0.9,0.5
		c0,0.1,0,0.4-0.2,1L615.9,533.3L615.9,533.3L615.9,533.3z M625,509c0.4-1.4,0.4-1.6,2.1-1.6h5.2c4.7,0,8.5,2.5,8.5,8.7
		c0,1-0.4,8.8-4.5,14c-1.6,2.1-5.2,4.9-10.2,4.9h-5.5c-1.3,0-1.3,0-1.3-0.4c0-0.1,0-0.3,0.1-1L625,509"/>
	<path class="st9" d="M656.3,536c0,2.5-0.4,5.4-3.2,8.3c-0.1,0.3-0.2,0.4-0.2,0.5c0,0.4,0.2,0.6,0.6,0.6c0.5,0,4.1-3.6,4.1-8.9
		c0-2.8-1-4.9-2.9-4.9c-1.4,0-2.4,1.2-2.4,2.6s1,2.6,2.4,2.6C655.6,536.8,656.3,536,656.3,536"/>
	<path class="st9" d="M675.3,507.9c0-1.3-0.1-1.3-1.3-1.3c-2.6,2.9-6.4,2.9-8,2.9v1.7c0.9,0,3.7,0,6-1.3V533c0,1.6,0,2.1-4.1,2.1
		h-1.7v1.7c0.8-0.1,5.9-0.3,7.4-0.3c1.2,0,6.4,0.1,7.3,0.3v-1.7h-1.5c-4.1,0-4.1-0.5-4.1-2.1V507.9"/>
</g>
</svg>
