<?xml version="1.0" encoding="utf-8"?>
<!-- Generator: Adobe Illustrator 26.5.0, SVG Export Plug-In . SVG Version: 6.00 Build 0)  -->
<svg version="1.1" id="Layer_1" xmlns="http://www.w3.org/2000/svg" xmlns:xlink="http://www.w3.org/1999/xlink" x="0px" y="0px"
	 viewBox="0 0 1620 850" style="enable-background:new 0 0 1620 850;" xml:space="preserve">
<style type="text/css">
	.st0{fill:#3FA9F5;}
	.st1{fill-rule:evenodd;clip-rule:evenodd;}
	.st2{fill-rule:evenodd;clip-rule:evenodd;fill:#6700F4;}
	.st3{fill-rule:evenodd;clip-rule:evenodd;fill:#3FA9F5;}
	.st4{fill-rule:evenodd;clip-rule:evenodd;fill:none;stroke:#000000;stroke-width:3;stroke-miterlimit:10;}
	.st5{fill:none;stroke:#6700F4;stroke-width:3;stroke-miterlimit:10;}
	.st6{fill:#6700F4;}
	.st7{fill:none;stroke:#000000;stroke-width:3;stroke-miterlimit:10;}
	.st8{fill:none;stroke:#3FA9F5;stroke-width:3;stroke-miterlimit:10;}
</style>
<g>
	<path d="M77.5,21c31.7,0,57.5,25.8,57.5,57.5S109.2,136,77.5,136S20,110.2,20,78.5S45.8,21,77.5,21 M77.5,18
		C44.1,18,17,45.1,17,78.5S44.1,139,77.5,139S138,111.9,138,78.5S110.9,18,77.5,18L77.5,18z"/>
</g>
<g>
	<path d="M878,212c29.2,0,57.4,5.7,84.1,17c25.7,10.9,48.8,26.5,68.7,46.3c19.8,19.8,35.4,42.9,46.3,68.7c11.3,26.6,17,54.9,17,84.1
		s-5.7,57.4-17,84.1c-10.9,25.7-26.5,48.8-46.3,68.7c-19.8,19.8-42.9,35.4-68.7,46.3c-26.6,11.3-54.9,17-84.1,17s-57.4-5.7-84.1-17
		c-25.7-10.9-48.8-26.5-68.7-46.3c-19.8-19.8-35.4-42.9-46.3-68.7c-11.3-26.6-17-54.9-17-84.1s5.7-57.4,17-84.1
		c10.9-25.7,26.5-48.8,46.3-68.7c19.8-19.8,42.9-35.4,68.7-46.3C820.6,217.7,848.8,212,878,212 M878,209c-121,0-219,98-219,219
		s98,219,219,219s219-98,219-219S999,209,878,209L878,209z"/>
</g>
<g>
	<path d="M77.5,240c31.7,0,57.5,25.8,57.5,57.5S109.2,355,77.5,355S20,329.2,20,297.5S45.8,240,77.5,240 M77.5,237
		C44.1,237,17,264.1,17,297.5S44.1,358,77.5,358s60.5-27.1,60.5-60.5S110.9,237,77.5,237L77.5,237z"/>
</g>
<g>
	<path d="M1545.5,371c31.7,0,57.5,25.8,57.5,57.5s-25.8,57.5-57.5,57.5s-57.5-25.8-57.5-57.5S1513.8,371,1545.5,371 M1545.5,368
		c-33.4,0-60.5,27.1-60.5,60.5s27.1,60.5,60.5,60.5s60.5-27.1,60.5-60.5S1578.9,368,1545.5,368L1545.5,368z"/>
</g>
<g>
	<path d="M77.5,714c31.7,0,57.5,25.8,57.5,57.5S109.2,829,77.5,829S20,803.2,20,771.5S45.8,714,77.5,714 M77.5,711
		C44.1,711,17,738.1,17,771.5S44.1,832,77.5,832s60.5-27.1,60.5-60.5S110.9,711,77.5,711L77.5,711z"/>
</g>
<g>
	<path class="st0" d="M740.5,714c31.7,0,57.5,25.8,57.5,57.5S772.2,829,740.5,829S683,803.2,683,771.5S708.8,714,740.5,714
		 M740.5,711c-33.4,0-60.5,27.1-60.5,60.5s27.1,60.5,60.5,60.5s60.5-27.1,60.5-60.5S773.9,711,740.5,711L740.5,711z"/>
</g>
<g>
	<path class="st1" d="M68,66.6c0.4-2,1.8-8.7,6.4-8.7c0.4,0,1.9,0,3.2,0.9c-1.8,0.3-3.1,2.3-3.1,4.1c0,1.2,0.8,2.6,2.5,2.6
		c1.4,0,3.5-1.2,3.5-4.4c0-3.8-3.8-4.8-6-4.8c-3.8,0-6,3.9-6.7,5.6c-1.7-4.8-5.2-5.6-7-5.6c-6.7,0-10.5,9.7-10.5,11.5
		c0,0.8,0.6,0.8,0.8,0.8c0.5,0,0.8-0.2,0.9-0.8c2.2-8,6.5-9.8,8.7-9.8c1.2,0,3.5,0.6,3.5,5c0,2.3-1.2,7.4-3.5,17.9
		c-1,4.7-3.4,7.8-6.2,7.8c-0.4,0-1.8,0-3.2-1.1c1.7-0.3,3.1-2,3.1-4.1c0-2-1.4-2.6-2.5-2.6c-1.9,0-3.5,2-3.5,4.4c0,3.5,3.2,5,6.1,5
		c4.3,0,6.6-5.3,6.7-5.7c0.8,2.7,3.1,5.7,7,5.7c6.6,0,10.4-9.8,10.4-11.6c0-0.8-0.6-0.8-0.8-0.8c-0.6,0-0.8,0.3-0.9,0.8
		c-2.1,8.1-6.5,10-8.6,10c-2.5,0-3.5-2.4-3.5-5c0-1.7,0.4-3.3,1-6.6L68,66.6"/>
	<path class="st1" d="M99.1,66.8c0-1.5,0-1.5-1.3-1.5c-2.8,3.3-7,3.3-8.9,3.3v2c1.2,0,4.1,0,6.6-1.5v27c0,1.7,0,2.4-4.5,2.4h-1.7
		v1.8c0.8,0,6.3-0.2,8-0.2c1.4,0,7.1,0.2,8.2,0.2v-1.8h-1.8c-4.5,0-4.5-0.8-4.5-2.4V66.8"/>
</g>
<g>
	<path class="st1" d="M62.2,759.6c0.4-1.9,1.9-8.6,6.3-8.6c0.3,0,1.8,0,3.2,0.9c-1.8,0.3-3,2.2-3,4c0,1.2,0.6,2.5,2.4,2.5
		c1.4,0,3.4-1.2,3.4-4.3c0-3.7-3.8-4.7-5.9-4.7c-3.7,0-5.8,3.9-6.6,5.5c-1.6-4.7-5.1-5.5-6.8-5.5c-6.6,0-10.1,9.5-10.1,11.3
		c0,0.7,0.6,0.7,0.8,0.7c0.5,0,0.6-0.1,0.8-0.7c2.1-7.9,6.3-9.6,8.5-9.6c1.1,0,3.4,0.6,3.4,4.9c0,2.2-1.1,7.3-3.4,17.6
		c-1,4.6-3.2,7.7-5.9,7.7c-0.4,0-1.9,0-3.2-1c1.5-0.3,2.9-1.9,2.9-4c0-1.9-1.4-2.5-2.3-2.5c-1.9,0-3.5,1.9-3.5,4.3
		c0,3.4,3.2,4.9,5.9,4.9c4.2,0,6.4-5.2,6.6-5.6c0.8,2.7,3,5.6,6.8,5.6c6.6,0,10.1-9.6,10.1-11.4c0-0.7-0.5-0.7-0.8-0.7
		c-0.5,0-0.6,0.3-0.8,0.7c-2.1,8-6.4,9.8-8.5,9.8c-2.4,0-3.4-2.4-3.4-4.9c0-1.6,0.4-3.3,1-6.5L62.2,759.6"/>
	<path class="st1" d="M85.7,789.1c-0.4,1.8-0.5,2.2-3.9,2.2c-0.8,0-1.3,0-1.3,1c0,0.7,0.5,0.7,1.3,0.7h15.8
		c9.7,0,19.1-10.5,19.1-21.8c0-7.6-4.4-13.6-11.6-13.6H89c-0.9,0-1.4,0-1.4,1.2c0,0.7,0.5,0.7,1.5,0.7c0.6,0,0.9,0,1.6,0.1
		c0.9,0,1,0.1,1,0.7c0,0,0,0.3-0.3,1L85.7,789.1L85.7,789.1L85.7,789.1z M95.5,761.4c0.4-1.6,0.4-1.8,2.3-1.8h5.6
		c4.9,0,9.1,3,9.1,9.9c0,1.2-0.4,10.2-4.8,16.1c-1.8,2.2-5.6,5.6-11,5.6h-5.9c-1.4,0-1.4-0.1-1.4-0.6c0,0,0-0.3,0.1-1L95.5,761.4"/>
</g>
<g>
	<path class="st1" d="M67.1,286.6c0.4-1.9,1.9-8.6,6.6-8.6c0.4,0,2,0,3.4,0.9c-1.9,0.3-3.3,2.2-3.3,4c0,1.2,0.8,2.5,2.6,2.5
		c1.5,0,3.7-1.2,3.7-4.3c0-3.7-3.9-4.7-6.2-4.7c-3.9,0-6.2,3.9-7,5.5c-1.8-4.7-5.4-5.5-7.3-5.5c-7,0-11,9.5-11,11.3
		c0,0.7,0.7,0.7,0.8,0.7c0.5,0,0.8-0.1,0.9-0.7c2.3-7.9,6.8-9.6,9.1-9.6c1.2,0,3.7,0.6,3.7,4.9c0,2.2-1.2,7.3-3.7,17.6
		c-1.1,4.6-3.5,7.7-6.5,7.7c-0.4,0-1.9,0-3.4-1c1.8-0.3,3.3-1.9,3.3-4c0-1.9-1.5-2.5-2.6-2.5c-2,0-3.7,1.9-3.7,4.3
		c0,3.4,3.4,4.9,6.4,4.9c4.5,0,6.9-5.2,7-5.6c0.8,2.7,3.3,5.6,7.3,5.6c6.9,0,10.8-9.6,10.8-11.4c0-0.7-0.7-0.7-0.8-0.7
		c-0.7,0-0.8,0.3-0.9,0.7c-2.2,8-6.8,9.8-8.9,9.8c-2.6,0-3.7-2.4-3.7-4.9c0-1.6,0.4-3.3,1.1-6.5L67.1,286.6"/>
	<path class="st1" d="M107.1,310.8h-1.6c-0.1,1-0.7,4.1-1.2,4.7c-0.4,0.3-4.1,0.3-4.7,0.3h-8.7c5-4.9,6.6-6.4,9.5-8.7
		c3.5-3.1,6.8-6.2,6.8-11.2c0-6.2-5-10.1-11.1-10.1c-5.8,0-9.9,4.4-9.9,9.3c0,2.7,2,2.8,2.6,2.8c1.1,0,2.4-0.9,2.4-2.7
		c0-1-0.3-2.8-2.7-2.8c1.5-3.7,4.6-4.7,6.9-4.7c4.7,0,7.2,4,7.2,8.1c0,4.6-3,8.1-4.5,9.9l-11.4,12.4c-0.5,0.4-0.5,0.6-0.5,1.9h19.5
		L107.1,310.8"/>
</g>
<circle class="st1" cx="80" cy="496" r="7"/>
<circle class="st1" cx="80" cy="539" r="7"/>
<circle class="st1" cx="80" cy="582" r="7"/>
<g>
	<path class="st2" d="M726.4,423.4c0.2-1.4,0.8-3.9,0.8-4.3c0-1.2-0.8-1.7-1.7-1.7c-0.7,0-1.8,0.5-2.3,1.8
		c-0.1,0.4-2.9,12.8-3.4,14.5c-0.4,1.9-0.5,3.1-0.5,4.3c0,0.6,0,0.8,0,1.2c-1.3,3.4-3.1,5.3-5.5,5.3c-4.8,0-4.8-4.7-4.8-5.8
		c0-2.1,0.4-4.5,3.1-12.6c0.7-1.9,1.1-2.9,1.1-4.1c0-2.9-2-5.3-4.9-5.3c-5.6,0-7.9,9.5-7.9,10c0,0.6,0.6,0.6,0.7,0.6
		c0.6,0,0.7-0.1,1-1.2c1.6-6,4-8,6-8c0.6,0,1.6,0.1,1.6,2.2c0,1.6-0.7,3.4-1.1,4.5c-2.6,7.6-3.4,10.6-3.4,13.1c0,5.8,4,8,8.5,8
		c1,0,3.8,0,6.2-4.4c1.4,4,5.6,4.4,7.4,4.4c4.4,0,7.1-4,8.6-7.9c2-5.1,4-13.7,4-16.8c0-3.5-1.6-4.5-2.6-4.5c-1.4,0-3,1.7-3,3.1
		c0,0.9,0.4,1.3,1,1.8c0.6,0.6,2.2,2.3,2.2,5.4c0,2.2-1.8,8.6-3.4,11.9c-1.6,3.4-3.6,5.6-6.6,5.6c-2.8,0-4.4-1.8-4.4-5.6
		c0-1.8,0.5-3.8,0.7-4.7L726.4,423.4"/>
	<path class="st1" d="M763.5,391.4c0.4-1.3,0.4-1.4,1.3-1.6c0.2,0,1.7,0,2.5,0c2.5,0,3.6,0,4.7,0.4c1.9,0.5,1.9,1.9,1.9,3.5
		c0,0.8,0,1.3-0.2,3.6l-0.1,0.5c0,0.5,0.4,0.6,0.7,0.6c0.6,0,0.7-0.4,0.8-1l1.1-8.7c0-0.6-0.5-0.6-1.2-0.6h-25.8c-1,0-1.1,0-1.4,1
		l-2.6,7.9c0,0.3-0.1,0.6-0.1,0.9c0,0.1,0,0.5,0.7,0.5c0.5,0,0.6-0.1,0.8-1c2.4-7.3,3.8-7.6,10.2-7.6h1.7c1.3,0,1.3,0,1.3,0.4
		c0,0.1,0,0.3-0.1,1l-5.5,23.7c-0.4,1.7-0.5,2.2-4.9,2.2c-1.6,0-1.9,0-1.9,0.9c0,0.1,0.1,0.6,0.7,0.6c1.2,0,2.4-0.1,3.6-0.1
		s2.4,0,3.6,0c1.2,0,2.6,0,3.8,0c1.1,0,2.3,0.1,3.5,0.1c0.4,0,1,0,1-1c0-0.5-0.5-0.5-1.7-0.5c-0.8,0-1.7-0.1-2.5-0.1
		c-1.4-0.1-1.4-0.4-1.4-0.9c0-0.3,0-0.4,0.1-1L763.5,391.4"/>
	<path class="st1" d="M800.8,425.7c0.4-1.7,1.8-7.6,5.9-7.6c0.4,0,1.8,0,3,0.9c-1.7,0.3-2.9,1.9-2.9,3.5c0,1,0.7,2.2,2.3,2.2
		c1.3,0,3.2-1.2,3.2-3.8c0-3.4-3.5-4.3-5.5-4.3c-3.5,0-5.5,3.5-6.2,4.9c-1.6-4.3-4.8-4.9-6.5-4.9c-6.2,0-9.6,8.4-9.6,10
		c0,0.6,0.5,0.6,0.6,0.6c0.5,0,0.7-0.1,0.8-0.6c2-6.9,6-8.6,8-8.6c1.1,0,3.2,0.6,3.2,4.4c0,1.9-1.1,6.3-3.2,15.4
		c-1,4-3.1,6.6-5.8,6.6c-0.4,0-1.7,0-3-0.8c1.6-0.4,2.9-1.7,2.9-3.5c0-1.7-1.3-2.2-2.3-2.2c-1.7,0-3.2,1.7-3.2,3.8
		c0,2.9,3,4.1,5.6,4.1c4,0,6.1-4.4,6.2-4.8c0.7,2.3,2.9,4.8,6.5,4.8c6.1,0,9.6-8.3,9.6-9.8c0-0.6-0.6-0.6-0.7-0.6
		c-0.6,0-0.7,0.3-0.8,0.6c-1.9,7-6,8.4-7.9,8.4c-2.3,0-3.2-2.1-3.2-4.1c0-1.4,0.4-2.9,1-5.7L800.8,425.7"/>
	<path class="st1" d="M852.7,430.5h16.7c0.8,0,2,0,2-1.3c0-1.3-1.2-1.3-2-1.3h-16.7v-18c0-0.9,0-2.2-1.2-2.2c-1.2,0-1.2,1.3-1.2,2.2
		v18h-16.7c-0.8,0-2,0-2,1.3c0,1.3,1.2,1.3,2,1.3h16.7v18.2c0,0.9,0,2.1,1.2,2.1c1.2,0,1.2-1.2,1.2-2.1V430.5"/>
	<path class="st3" d="M902.5,401.2c0,0,0-0.6-0.8-0.6c-1.3,0-5.8,0.5-7.4,0.6c-0.5,0-1.1,0.1-1.1,1.3c0,0.8,0.5,0.8,1.4,0.8
		c2.9,0,3,0.4,3,1c0,0.5-0.6,2.7-0.8,4l-4.9,21.1c-0.7,3.2-1,4.3-1,6.5c0,6.2,3.1,10.1,7.6,10.1c7.1,0,14.5-9.6,14.5-18.9
		c0-5.8-3.1-10.3-8-10.3c-2.8,0-5.2,1.9-7,3.9L902.5,401.2L902.5,401.2L902.5,401.2z M896.8,425.7c0.4-1.4,0.4-1.6,0.8-2.3
		c3-4.1,5.7-5.2,7.2-5.2c2.2,0,3.7,1.9,3.7,6.1c0,3.9-1.9,11.2-3,13.7c-2.1,4.3-4.7,6.6-7.1,6.6c-2.1,0-4-1.7-4-6.5
		c0-1.2,0-2.5,1-6.5L896.8,425.7"/>
</g>
<line class="st4" x1="968.2" y1="229" x2="968.2" y2="627"/>
<g>
	<path class="st1" d="M1048,414.1c0.9,0,3.5,0,3.5-2.8c0-2-1.5-2-2.8-2h-16.6c-11.1,0-19.1,13.7-19.1,23.7c0,7.2,4.2,13,10.9,13
		c8.6,0,18.2-10,18.2-22.9c0-1.3,0-5.3-2.2-9H1048L1048,414.1L1048,414.1z M1024,444.1c-3.5,0-6.4-3-6.4-8.8c0-2.5,0.9-9.3,3.3-14.4
		c3.1-5.7,7.4-6.8,9.9-6.8c6.1,0,6.7,5.5,6.7,8c0,4-1.5,10.8-3.9,15C1030.8,441.9,1026.9,444.1,1024,444.1"/>
</g>
<g>
	<polyline class="st1" points="1548.9,403 1540.5,411 1541.7,412.1 1548.9,406 1556.1,412.1 1557.2,411 1548.9,403 	"/>
	<path class="st1" d="M1559.4,421.5c0.2-0.8,0.2-0.9,0.2-1.4c0-1.1-0.9-1.5-1.9-1.5c-0.6,0-1.6,0.4-2.1,1.2
		c-0.1,0.4-0.6,2.1-0.9,3.2c-0.5,1.5-0.9,3.1-1.2,4.7l-2.9,10.6c-0.2,0.8-2.9,4.9-7,4.9c-3.2,0-3.9-2.6-3.9-4.7
		c0-2.7,1-6.4,3.1-11.5c1-2.4,1.2-3.1,1.2-4.2c0-2.6-2-4.8-5.1-4.8c-5.9,0-8.1,8.5-8.1,9.1s0.6,0.6,0.7,0.6c0.6,0,0.6-0.1,1-1.1
		c1.6-5.5,4.1-7.3,6.2-7.3c0.5,0,1.5,0,1.5,1.9c0,1.5-0.6,3.1-1,4.1c-2.5,6.2-3.6,9.5-3.6,12.4c0,5.2,3.9,6.9,7.6,6.9
		c2.4,0,4.5-0.9,6.2-2.6c-0.7,3.1-1.5,5.9-4,9c-1.6,2-4,3.8-6.9,3.8c-0.9,0-3.7-0.2-4.7-2.5c1,0,1.7,0,2.6-0.7
		c0.6-0.6,1.2-1.3,1.2-2.4c0-1.9-1.6-2.1-2.2-2.1c-1.5,0-3.5,0.9-3.5,3.8c0,2.9,2.7,5.2,6.6,5.2c6.4,0,12.8-5.4,14.6-12
		L1559.4,421.5"/>
</g>
<g>
	<g>
		<line class="st5" x1="166.1" y1="88.6" x2="656.1" y2="272.6"/>
		<g>
			<polygon class="st6" points="675.9,280 643.7,280.9 654.6,272 652.3,258.1 			"/>
		</g>
	</g>
</g>
<g>
	<g>
		<line class="st5" x1="166.1" y1="304.6" x2="630.9" y2="355.7"/>
		<g>
			<polygon class="st6" points="652,358 621,366.9 629.4,355.5 623.7,342.6 			"/>
		</g>
	</g>
</g>
<g>
	<g>
		<line class="st7" x1="1120.1" y1="429.5" x2="1434.8" y2="429"/>
		<g>
			<polygon points="1456,429 1426.2,441.2 1433.2,429 1426.1,416.9 			"/>
		</g>
	</g>
</g>
<g>
	<g>
		<line class="st5" x1="166.1" y1="775.6" x2="646.7" y2="559.7"/>
		<g>
			<polygon class="st6" points="666,551 643.8,574.4 645.2,560.3 633.8,552.1 			"/>
		</g>
	</g>
</g>
<g>
	<g>
		<line class="st8" x1="769.1" y1="703.6" x2="790.1" y2="668.2"/>
		<g>
			<polygon class="st0" points="801,650 796.2,681.9 789.3,669.6 775.2,669.4 			"/>
		</g>
	</g>
</g>
<g>
	<path class="st2" d="M427.4,126.2c0.2-1.4,0.8-3.8,0.8-4.2c0-1-0.8-1.7-1.7-1.7c-0.7,0-1.8,0.5-2.2,1.8c-0.1,0.4-3,12.7-3.3,14.3
		c-0.5,1.9-0.6,3.1-0.6,4.2c0,0.6,0,0.8,0.1,1.2c-1.3,3.3-3.1,5.4-5.4,5.4c-4.7,0-4.7-4.7-4.7-5.9c0-2,0.4-4.5,3.1-12.4
		c0.7-1.9,1.1-2.7,1.1-4.1c0-2.8-2-5.1-4.8-5.1c-5.7,0-7.8,9.2-7.8,9.7c0,0.6,0.6,0.6,0.7,0.6c0.6,0,0.6-0.1,0.9-1.2
		c1.5-5.9,3.9-7.8,5.9-7.8c0.6,0,1.5,0,1.5,2c0,1.5-0.7,3.5-1.1,4.5c-2.6,7.5-3.3,10.5-3.3,12.9c0,5.8,3.9,8.1,8.4,8.1
		c0.9,0,3.8,0,6-4.5c1.5,4.1,5.7,4.5,7.4,4.5c4.4,0,7-4.1,8.5-7.9c2-5,3.9-13.6,3.9-16.6c0-3.5-1.5-4.4-2.6-4.4c-1.4,0-3,1.7-3,2.9
		c0,0.9,0.4,1.3,0.9,1.8c0.6,0.6,2.1,2.3,2.1,5.4c0,2.2-1.8,8.4-3.3,11.8c-1.5,3.3-3.5,5.6-6.5,5.6c-2.7,0-4.4-1.9-4.4-5.6
		c0-1.8,0.5-3.7,0.7-4.6L427.4,126.2"/>
	<path class="st2" d="M456.1,129c0-1.3,0-1.3-1.2-1.3c-2.6,2.8-6.4,2.8-8.2,2.8v1.7c1.1,0,3.8,0,6-1.3v23c0,1.4,0,2.1-4.1,2.1h-1.5
		v1.5c0.7,0,5.8-0.1,7.3-0.1c1.3,0,6.5,0.1,7.4,0.1v-1.5h-1.7c-4.1,0-4.1-0.6-4.1-2.1V129"/>
</g>
<g>
	<path class="st2" d="M384.6,281.2c0.2-1.4,0.8-3.8,0.8-4.2c0-1-0.8-1.7-1.7-1.7c-0.7,0-1.8,0.5-2.3,1.8c-0.1,0.4-3,12.7-3.4,14.3
		c-0.5,1.9-0.6,3.1-0.6,4.2c0,0.6,0,0.8,0.1,1.2c-1.3,3.3-3.1,5.4-5.6,5.4c-4.8,0-4.8-4.7-4.8-5.9c0-2,0.4-4.5,3.1-12.4
		c0.7-1.9,1.1-2.7,1.1-4.1c0-2.8-2.1-5.1-4.9-5.1c-5.8,0-8,9.2-8,9.7c0,0.6,0.6,0.6,0.7,0.6c0.6,0,0.6-0.1,1-1.2
		c1.6-5.9,4-7.8,6-7.8c0.6,0,1.6,0,1.6,2c0,1.5-0.7,3.5-1.1,4.5c-2.7,7.5-3.4,10.5-3.4,12.9c0,5.8,4,8.1,8.6,8.1c1,0,3.9,0,6.2-4.5
		c1.6,4.1,5.8,4.5,7.6,4.5c4.5,0,7.1-4.1,8.7-7.9c2.1-5,4-13.6,4-16.6c0-3.5-1.6-4.4-2.7-4.4c-1.4,0-3,1.7-3,2.9
		c0,0.9,0.4,1.3,1,1.8c0.6,0.6,2.2,2.3,2.2,5.4c0,2.2-1.8,8.4-3.4,11.8c-1.6,3.3-3.6,5.6-6.6,5.6c-2.8,0-4.5-1.9-4.5-5.6
		c0-1.8,0.5-3.7,0.7-4.6L384.6,281.2"/>
	<path class="st2" d="M421.2,304.4h-1.4c-0.1,0.9-0.6,3.6-1.1,4.1c-0.4,0.3-3.6,0.3-4.2,0.3h-7.7c4.5-4.2,5.9-5.5,8.5-7.6
		c3.1-2.7,6-5.4,6-9.7c0-5.4-4.5-8.7-9.9-8.7c-5.2,0-8.8,3.8-8.8,8.1c0,2.3,1.8,2.4,2.3,2.4c1,0,2.2-0.8,2.2-2.3
		c0-0.9-0.2-2.4-2.4-2.4c1.3-3.2,4.1-4.1,6.2-4.1c4.2,0,6.4,3.5,6.4,7.1c0,4-2.7,7.1-4,8.6L403,310.8c-0.5,0.4-0.5,0.5-0.5,1.7h17.4
		L421.2,304.4"/>
</g>
<g>
	<path class="st2" d="M420.2,698.2c0.3-1.4,0.9-3.8,0.9-4.2c0-1-0.8-1.7-1.7-1.7c-0.7,0-1.7,0.5-2,1.8c-0.2,0.4-2.8,12.7-3.3,14.3
		c-0.3,1.9-0.5,3.1-0.5,4.2c0,0.6,0,0.8,0,1.2c-1.2,3.3-2.9,5.4-5.2,5.4c-4.4,0-4.4-4.7-4.4-5.9c0-2,0.2-4.5,2.8-12.4
		c0.7-1.9,1-2.7,1-4.1c0-2.8-1.9-5.1-4.6-5.1c-5.3,0-7.5,9.2-7.5,9.7c0,0.6,0.6,0.6,0.7,0.6c0.6,0,0.7-0.1,0.9-1.2
		c1.6-5.9,3.7-7.8,5.8-7.8c0.5,0,1.4,0,1.4,2c0,1.5-0.6,3.5-1,4.5c-2.5,7.5-3.2,10.5-3.2,12.9c0,5.8,3.8,8.1,8,8.1
		c0.9,0,3.6,0,5.9-4.5c1.5,4.1,5.3,4.5,7,4.5c4.3,0,6.7-4.1,8.1-7.9c1.9-5,3.7-13.6,3.7-16.6c0-3.5-1.5-4.4-2.5-4.4
		c-1.4,0-2.8,1.7-2.8,2.9c0,0.9,0.3,1.3,0.9,1.8c0.6,0.6,2,2.3,2,5.4c0,2.2-1.7,8.4-3.2,11.8c-1.4,3.3-3.4,5.6-6.1,5.6
		c-2.7,0-4.2-1.9-4.2-5.6c0-1.8,0.3-3.7,0.6-4.6L420.2,698.2"/>
	<path class="st2" d="M442.2,726c-0.3,1.5-0.5,1.9-3.5,1.9c-0.7,0-1.2,0-1.2,0.9c0,0.6,0.6,0.6,1.2,0.6h14.2
		c8.7,0,17.1-9.1,17.1-18.8c0-6.5-4-11.8-10.4-11.8h-14.4c-0.8,0-1.2,0-1.2,1c0,0.6,0.5,0.6,1.4,0.6c0.6,0,0.8,0,1.5,0.1
		c0.8,0,0.8,0.1,0.8,0.6c0,0,0,0.3-0.1,0.9L442.2,726L442.2,726L442.2,726z M451,702.1c0.3-1.4,0.3-1.5,2-1.5h5
		c4.4,0,8.2,2.6,8.2,8.6c0,1-0.3,8.8-4.3,14c-1.6,1.9-5,4.9-9.9,4.9h-5.3c-1.2,0-1.2-0.1-1.2-0.5c0,0,0-0.3,0.1-0.9L451,702.1"/>
</g>
<path class="st3" d="M740.1,749.1c0,0,0-0.6-0.8-0.6c-1.3,0-5.8,0.5-7.4,0.6c-0.5,0-1.1,0.1-1.1,1.3c0,0.8,0.5,0.8,1.4,0.8
	c2.9,0,3,0.4,3,1c0,0.5-0.6,2.7-0.8,4l-4.9,21.1c-0.7,3.2-1,4.3-1,6.5c0,6.2,3.1,10.1,7.6,10.1c7.1,0,14.5-9.6,14.5-18.9
	c0-5.8-3.1-10.3-8-10.3c-2.8,0-5.2,1.9-7,3.9L740.1,749.1L740.1,749.1L740.1,749.1z M734.4,773.5c0.4-1.4,0.4-1.6,0.8-2.3
	c3-4.1,5.7-5.2,7.2-5.2c2.2,0,3.7,1.9,3.7,6.1c0,3.9-1.9,11.2-3,13.7c-2.1,4.3-4.7,6.6-7.1,6.6c-2.1,0-4-1.7-4-6.5
	c0-1.2,0-2.5,1-6.5L734.4,773.5"/>
</svg>
