<?xml version="1.0" encoding="utf-8"?>
<!-- Generator: Adobe Illustrator 27.0.1, SVG Export Plug-In . SVG Version: 6.00 Build 0)  -->
<svg version="1.1" xmlns="http://www.w3.org/2000/svg" xmlns:xlink="http://www.w3.org/1999/xlink" x="0px" y="0px"
	 viewBox="0 0 2190.71 1378.71" style="enable-background:new 0 0 2190.71 1378.71;" xml:space="preserve">
<style type="text/css">
	.st0{fill-rule:evenodd;clip-rule:evenodd;fill:#FFFFFF;}
	.st1{fill:#FFFFFF;}
	.st2{fill:none;stroke:#000000;stroke-width:3;stroke-miterlimit:10;}
	.st3{fill-rule:evenodd;clip-rule:evenodd;}
	.st4{fill:#AFF0EF;}
</style>
<g id="bg">
	<rect class="st0" width="2190.71" height="1378.71"/>
</g>
<g id="Layer_1">
	<g>
		<line class="st1" x1="306.14" y1="288.43" x2="306.14" y2="450.86"/>
		<g>
			<line class="st2" x1="306.14" y1="288.43" x2="306.14" y2="426.4"/>
			<g>
				<path d="M306.14,421.02l10.81-6.57l0.24,0.37l-7,17.62c-1.35,6.14-2.7,12.28-4.05,18.42c-1.35-6.14-2.7-12.28-4.05-18.42
					l-7-17.62l0.18-0.37L306.14,421.02z"/>
			</g>
		</g>
	</g>
	<g>
		<line class="st1" x1="888.38" y1="453.18" x2="776.65" y2="648.1"/>
		<g>
			<line class="st2" x1="888.38" y1="453.18" x2="788.81" y2="626.88"/>
			<g>
				<path d="M791.49,622.21l12.65-0.33l0.03,0.44l-14.84,11.81c-4.23,4.66-8.45,9.31-12.68,13.97c1.88-6,3.76-12,5.64-18l2.69-18.77
					l0.34-0.23L791.49,622.21z"/>
			</g>
		</g>
	</g>
	<g>
		<line class="st1" x1="1002.76" y1="453.18" x2="1114.49" y2="648.1"/>
		<g>
			<line class="st2" x1="1002.76" y1="453.18" x2="1102.33" y2="626.88"/>
			<g>
				<path d="M1099.65,622.21l6.11-11.08l0.4,0.2l2.69,18.77c1.88,6,3.76,12,5.64,18c-4.23-4.66-8.45-9.31-12.68-13.97l-14.84-11.81
					l-0.02-0.41L1099.65,622.21z"/>
			</g>
		</g>
	</g>
	<g>
		<line class="st1" x1="306.14" y1="629.14" x2="306.14" y2="791.57"/>
		<g>
			<line class="st2" x1="306.14" y1="629.14" x2="306.14" y2="767.11"/>
			<g>
				<path d="M306.14,761.73l10.81-6.57l0.24,0.37l-7,17.62c-1.35,6.14-2.7,12.28-4.05,18.42c-1.35-6.14-2.7-12.28-4.05-18.42
					l-7-17.62l0.18-0.37L306.14,761.73z"/>
			</g>
		</g>
	</g>
	<g>
		<g>
			
				<ellipse transform="matrix(0.2298 -0.9732 0.9732 0.2298 41.8512 451.4527)" class="st1" cx="306.14" cy="199.29" rx="87.64" ry="87.64"/>
			<path d="M306.14,113.14c47.5,0,86.14,38.64,86.14,86.14s-38.64,86.14-86.14,86.14S220,246.79,220,199.29
				S258.64,113.14,306.14,113.14 M306.14,110.14c-49.23,0-89.14,39.91-89.14,89.14s39.91,89.14,89.14,89.14s89.14-39.91,89.14-89.14
				S355.38,110.14,306.14,110.14L306.14,110.14z"/>
		</g>
		<g>
			<path class="st3" d="M292.59,183.02c0.58-2.61,2.8-11.85,9.54-11.85c0.48,0,2.8,0,4.82,1.31c-2.7,0.5-4.63,3.01-4.63,5.42
				c0,1.61,1.06,3.51,3.66,3.51c2.12,0,5.21-1.81,5.21-5.82c0-5.22-5.69-6.63-8.97-6.63c-5.59,0-8.97,5.32-10.12,7.63
				c-2.41-6.63-7.62-7.63-10.41-7.63c-10.03,0-15.52,12.95-15.52,15.46c0,1,0.96,1,1.16,1c0.77,0,1.06-0.2,1.25-1.1
				c3.28-10.64,9.64-13.15,12.92-13.15c1.83,0,5.21,0.9,5.21,6.73c0,3.11-1.64,9.84-5.21,23.89c-1.54,6.23-4.92,10.44-9.16,10.44
				c-0.58,0-2.8,0-4.82-1.31c2.41-0.5,4.53-2.61,4.53-5.42c0-2.71-2.12-3.51-3.57-3.51c-2.89,0-5.3,2.61-5.3,5.82
				c0,4.62,4.82,6.63,9.06,6.63c6.36,0,9.83-7.03,10.12-7.63c1.16,3.71,4.63,7.63,10.41,7.63c9.93,0,15.42-12.95,15.42-15.46
				c0-1-0.87-1-1.16-1c-0.87,0-1.06,0.4-1.25,1.1c-3.18,10.74-9.74,13.15-12.82,13.15c-3.76,0-5.3-3.21-5.3-6.63
				c0-2.21,0.58-4.42,1.64-8.83L292.59,183.02L292.59,183.02L292.59,183.02z"/>
			<path class="st3" d="M339.52,183.62c0-1.95-0.14-2.02-2.08-2.02c-4.44,4.56-10.76,4.63-13.61,4.63v2.6c1.67,0,6.25,0,10.07-2.02
				v36.87c0,2.39,0,3.33-6.94,3.33h-2.64v2.6c1.25-0.07,9.79-0.29,12.36-0.29c2.15,0,10.9,0.22,12.43,0.29V227h-2.64
				c-6.94,0-6.94-0.94-6.94-3.33V183.62L339.52,183.62L339.52,183.62z"/>
		</g>
	</g>
	<g>
		<circle class="st4" cx="945.57" cy="384.8" r="87.64"/>
		<g>
			<path d="M945.57,298.66c47.5,0,86.14,38.64,86.14,86.14s-38.64,86.14-86.14,86.14s-86.14-38.64-86.14-86.14
				S898.07,298.66,945.57,298.66 M945.57,295.66c-49.23,0-89.14,39.91-89.14,89.14s39.91,89.14,89.14,89.14s89.14-39.91,89.14-89.14
				S994.8,295.66,945.57,295.66L945.57,295.66z"/>
		</g>
	</g>
	<g>
		<path class="st3" d="M932.02,368.54c0.58-2.61,2.8-11.85,9.54-11.85c0.48,0,2.8,0,4.82,1.31c-2.7,0.5-4.63,3.01-4.63,5.42
			c0,1.61,1.06,3.51,3.66,3.51c2.12,0,5.21-1.81,5.21-5.82c0-5.22-5.69-6.63-8.97-6.63c-5.59,0-8.97,5.32-10.12,7.63
			c-2.41-6.63-7.62-7.63-10.41-7.63c-10.03,0-15.52,12.95-15.52,15.46c0,1,0.96,1,1.16,1c0.77,0,1.06-0.2,1.25-1.1
			c3.28-10.64,9.64-13.15,12.92-13.15c1.83,0,5.21,0.9,5.21,6.73c0,3.11-1.64,9.84-5.21,23.89c-1.54,6.23-4.92,10.44-9.16,10.44
			c-0.58,0-2.8,0-4.82-1.31c2.41-0.5,4.53-2.61,4.53-5.42c0-2.71-2.12-3.51-3.57-3.51c-2.89,0-5.3,2.61-5.3,5.82
			c0,4.62,4.82,6.63,9.06,6.63c6.36,0,9.83-7.03,10.12-7.63c1.16,3.71,4.63,7.63,10.41,7.63c9.93,0,15.42-12.95,15.42-15.46
			c0-1-0.87-1-1.16-1c-0.87,0-1.06,0.4-1.25,1.1c-3.18,10.74-9.74,13.15-12.82,13.15c-3.76,0-5.3-3.21-5.3-6.63
			c0-2.21,0.58-4.42,1.64-8.83L932.02,368.54L932.02,368.54L932.02,368.54z"/>
		<path class="st3" d="M978.95,369.14c0-1.95-0.14-2.02-2.08-2.02c-4.44,4.56-10.76,4.63-13.61,4.63v2.6c1.67,0,6.25,0,10.07-2.02
			v36.87c0,2.39,0,3.33-6.94,3.33h-2.64v2.6c1.25-0.07,9.79-0.29,12.36-0.29c2.15,0,10.9,0.22,12.43,0.29v-2.6h-2.64
			c-6.94,0-6.94-0.94-6.94-3.33V369.14L978.95,369.14L978.95,369.14z"/>
	</g>
	<g>
		<g>
			
				<ellipse transform="matrix(0.7071 -0.7071 0.7071 0.7071 -292.1704 374.6381)" class="st4" cx="306.14" cy="540" rx="87.64" ry="87.64"/>
			<path d="M306.14,453.86c47.5,0,86.14,38.64,86.14,86.14s-38.64,86.14-86.14,86.14S220,587.5,220,540S258.64,453.86,306.14,453.86
				 M306.14,450.86c-49.23,0-89.14,39.91-89.14,89.14s39.91,89.14,89.14,89.14s89.14-39.91,89.14-89.14S355.38,450.86,306.14,450.86
				L306.14,450.86z"/>
		</g>
		<g>
			<path class="st3" d="M291.33,523.73c0.58-2.61,2.8-11.85,9.54-11.85c0.48,0,2.8,0,4.82,1.31c-2.7,0.5-4.63,3.01-4.63,5.42
				c0,1.61,1.06,3.51,3.66,3.51c2.12,0,5.21-1.81,5.21-5.82c0-5.22-5.69-6.63-8.97-6.63c-5.59,0-8.97,5.32-10.12,7.63
				c-2.41-6.63-7.62-7.63-10.41-7.63c-10.03,0-15.52,12.95-15.52,15.46c0,1,0.96,1,1.16,1c0.77,0,1.06-0.2,1.25-1.1
				c3.28-10.64,9.64-13.15,12.92-13.15c1.83,0,5.21,0.9,5.21,6.73c0,3.11-1.64,9.84-5.21,23.89c-1.54,6.22-4.92,10.44-9.16,10.44
				c-0.58,0-2.8,0-4.82-1.31c2.41-0.5,4.53-2.61,4.53-5.42c0-2.71-2.12-3.51-3.57-3.51c-2.89,0-5.3,2.61-5.3,5.82
				c0,4.62,4.82,6.63,9.06,6.63c6.36,0,9.83-7.03,10.12-7.63c1.16,3.71,4.63,7.63,10.41,7.63c9.93,0,15.42-12.95,15.42-15.46
				c0-1-0.87-1-1.16-1c-0.87,0-1.06,0.4-1.25,1.1c-3.18,10.74-9.74,13.15-12.82,13.15c-3.76,0-5.3-3.21-5.3-6.63
				c0-2.21,0.58-4.42,1.64-8.83L291.33,523.73L291.33,523.73L291.33,523.73z"/>
			<path class="st3" d="M350.36,557.16h-2.33c-0.21,1.59-0.89,5.86-1.78,6.58c-0.55,0.43-5.83,0.43-6.79,0.43h-12.62
				c7.2-6.72,9.6-8.75,13.72-12.15c5.08-4.27,9.81-8.75,9.81-15.62c0-8.75-7.27-14.1-16.05-14.1c-8.51,0-14.27,6.29-14.27,12.94
				c0,3.69,2.95,4.05,3.64,4.05c1.65,0,3.64-1.23,3.64-3.83c0-1.3-0.48-3.83-4.05-3.83c2.13-5.13,6.79-6.72,10.02-6.72
				c6.86,0,10.43,5.64,10.43,11.5c0,6.29-4.25,11.28-6.45,13.88l-16.53,17.21c-0.69,0.65-0.69,0.8-0.69,2.82h28.26L350.36,557.16
				L350.36,557.16L350.36,557.16z"/>
		</g>
	</g>
	<g>
		
			<ellipse transform="matrix(0.3827 -0.9239 0.9239 0.3827 -218.1494 1124.5503)" class="st1" cx="732.43" cy="725.52" rx="87.64" ry="87.64"/>
		<path d="M732.43,639.37c47.5,0,86.14,38.64,86.14,86.14s-38.64,86.14-86.14,86.14s-86.14-38.64-86.14-86.14
			S684.93,639.37,732.43,639.37 M732.43,636.37c-49.23,0-89.14,39.91-89.14,89.14c0,49.23,39.91,89.14,89.14,89.14
			s89.14-39.91,89.14-89.14C821.57,676.28,781.66,636.37,732.43,636.37L732.43,636.37z"/>
	</g>
	<g>
		<path class="st3" d="M717.61,709.25c0.58-2.61,2.8-11.85,9.54-11.85c0.48,0,2.8,0,4.82,1.31c-2.7,0.5-4.63,3.01-4.63,5.42
			c0,1.61,1.06,3.51,3.66,3.51c2.12,0,5.21-1.81,5.21-5.82c0-5.22-5.69-6.63-8.97-6.63c-5.59,0-8.97,5.32-10.12,7.63
			c-2.41-6.63-7.62-7.63-10.41-7.63c-10.03,0-15.52,12.95-15.52,15.46c0,1,0.96,1,1.16,1c0.77,0,1.06-0.2,1.25-1.1
			c3.28-10.64,9.64-13.15,12.92-13.15c1.83,0,5.21,0.9,5.21,6.73c0,3.11-1.64,9.84-5.21,23.89c-1.54,6.23-4.92,10.44-9.16,10.44
			c-0.58,0-2.8,0-4.82-1.31c2.41-0.5,4.53-2.61,4.53-5.42c0-2.71-2.12-3.51-3.57-3.51c-2.89,0-5.3,2.61-5.3,5.82
			c0,4.62,4.82,6.63,9.06,6.63c6.36,0,9.83-7.03,10.12-7.63c1.16,3.71,4.63,7.63,10.41,7.63c9.93,0,15.42-12.95,15.42-15.46
			c0-1-0.87-1-1.16-1c-0.87,0-1.06,0.4-1.25,1.1c-3.18,10.74-9.74,13.15-12.82,13.15c-3.76,0-5.3-3.21-5.3-6.63
			c0-2.21,0.58-4.42,1.64-8.83L717.61,709.25L717.61,709.25L717.61,709.25z"/>
		<path class="st3" d="M776.65,742.68h-2.33c-0.21,1.59-0.89,5.86-1.78,6.58c-0.55,0.43-5.83,0.43-6.79,0.43h-12.62
			c7.2-6.72,9.6-8.75,13.72-12.15c5.08-4.27,9.81-8.75,9.81-15.62c0-8.75-7.27-14.1-16.05-14.1c-8.51,0-14.27,6.29-14.27,12.94
			c0,3.69,2.95,4.05,3.64,4.05c1.65,0,3.64-1.23,3.64-3.83c0-1.3-0.48-3.83-4.05-3.83c2.13-5.13,6.79-6.72,10.02-6.72
			c6.86,0,10.43,5.64,10.43,11.5c0,6.29-4.25,11.28-6.45,13.88l-16.53,17.21c-0.69,0.65-0.69,0.8-0.69,2.82h28.26L776.65,742.68
			L776.65,742.68L776.65,742.68z"/>
	</g>
	<g>
		<g>
			
				<ellipse transform="matrix(0.3827 -0.9239 0.9239 0.3827 -624.6867 826.5196)" class="st1" cx="306.14" cy="880.71" rx="87.64" ry="87.64"/>
			<path d="M306.14,794.57c47.5,0,86.14,38.64,86.14,86.14s-38.64,86.14-86.14,86.14S220,928.21,220,880.71
				S258.64,794.57,306.14,794.57 M306.14,791.57c-49.23,0-89.14,39.91-89.14,89.14s39.91,89.14,89.14,89.14s89.14-39.91,89.14-89.14
				S355.38,791.57,306.14,791.57L306.14,791.57z"/>
		</g>
		<g>
			<path class="st3" d="M291.33,864.45c0.58-2.61,2.8-11.85,9.54-11.85c0.48,0,2.8,0,4.82,1.31c-2.7,0.5-4.63,3.01-4.63,5.42
				c0,1.61,1.06,3.51,3.66,3.51c2.12,0,5.21-1.81,5.21-5.82c0-5.22-5.69-6.63-8.97-6.63c-5.59,0-8.97,5.32-10.12,7.63
				c-2.41-6.63-7.62-7.63-10.41-7.63c-10.03,0-15.52,12.95-15.52,15.46c0,1,0.96,1,1.16,1c0.77,0,1.06-0.2,1.25-1.1
				c3.28-10.64,9.64-13.15,12.92-13.15c1.83,0,5.21,0.9,5.21,6.73c0,3.11-1.64,9.84-5.21,23.89c-1.54,6.22-4.92,10.44-9.16,10.44
				c-0.58,0-2.8,0-4.82-1.31c2.41-0.5,4.53-2.61,4.53-5.42c0-2.71-2.12-3.51-3.57-3.51c-2.89,0-5.3,2.61-5.3,5.82
				c0,4.62,4.82,6.63,9.06,6.63c6.36,0,9.83-7.03,10.12-7.63c1.16,3.71,4.63,7.63,10.41,7.63c9.93,0,15.42-12.95,15.42-15.46
				c0-1-0.87-1-1.16-1c-0.87,0-1.06,0.4-1.25,1.1c-3.18,10.74-9.74,13.15-12.82,13.15c-3.76,0-5.3-3.21-5.3-6.63
				c0-2.21,0.58-4.42,1.64-8.83L291.33,864.45L291.33,864.45L291.33,864.45z"/>
			<path class="st3" d="M334.47,886.19c5.14,0,8.83,3.79,8.83,11.3c0,8.7-4.75,11.3-8.57,11.3c-2.64,0-8.44-0.77-11.21-4.91
				c3.1-0.14,3.82-2.46,3.82-3.93c0-2.25-1.58-3.86-3.63-3.86c-1.85,0-3.69,1.19-3.69,4.07c0,6.6,6.86,10.88,14.83,10.88
				c9.16,0,15.49-6.53,15.49-13.55c0-5.47-4.22-10.95-11.47-12.56c6.92-2.67,9.43-7.93,9.43-12.21c0-5.54-6-9.69-13.31-9.69
				c-7.32,0-12.92,3.79-12.92,9.4c0,2.39,1.45,3.72,3.43,3.72c2.04,0,3.36-1.61,3.36-3.58c0-2.04-1.32-3.51-3.36-3.65
				c2.31-3.09,6.85-3.86,9.29-3.86c2.97,0,7.12,1.54,7.12,7.65c0,2.95-0.92,6.18-2.64,8.35c-2.18,2.67-4.02,2.81-7.32,3.02
				c-1.65,0.14-1.78,0.14-2.11,0.21c-0.13,0-0.66,0.14-0.66,0.91c0,0.98,0.59,0.98,1.71,0.98H334.47L334.47,886.19L334.47,886.19z"
				/>
		</g>
	</g>
	<g>
		<g>
			
				<ellipse transform="matrix(0.7071 -0.7071 0.7071 0.7071 -173.6384 1031.8336)" class="st1" cx="1158.71" cy="725.52" rx="87.64" ry="87.64"/>
			<path d="M1158.71,639.37c47.5,0,86.14,38.64,86.14,86.14s-38.64,86.14-86.14,86.14c-47.5,0-86.14-38.64-86.14-86.14
				S1111.21,639.37,1158.71,639.37 M1158.71,636.37c-49.23,0-89.14,39.91-89.14,89.14c0,49.23,39.91,89.14,89.14,89.14
				c49.23,0,89.14-39.91,89.14-89.14C1247.86,676.28,1207.95,636.37,1158.71,636.37L1158.71,636.37z"/>
		</g>
		<g>
			<path class="st3" d="M1143.9,709.25c0.58-2.61,2.8-11.85,9.54-11.85c0.48,0,2.8,0,4.82,1.31c-2.7,0.5-4.63,3.01-4.63,5.42
				c0,1.61,1.06,3.51,3.66,3.51c2.12,0,5.21-1.81,5.21-5.82c0-5.22-5.69-6.63-8.96-6.63c-5.59,0-8.97,5.32-10.12,7.63
				c-2.41-6.63-7.62-7.63-10.41-7.63c-10.03,0-15.52,12.95-15.52,15.46c0,1,0.96,1,1.16,1c0.77,0,1.06-0.2,1.25-1.1
				c3.28-10.64,9.64-13.15,12.92-13.15c1.83,0,5.21,0.9,5.21,6.73c0,3.11-1.64,9.84-5.21,23.89c-1.54,6.23-4.92,10.44-9.16,10.44
				c-0.58,0-2.8,0-4.82-1.31c2.41-0.5,4.53-2.61,4.53-5.42c0-2.71-2.12-3.51-3.57-3.51c-2.89,0-5.3,2.61-5.3,5.82
				c0,4.62,4.82,6.63,9.06,6.63c6.36,0,9.83-7.03,10.12-7.63c1.16,3.71,4.63,7.63,10.41,7.63c9.93,0,15.42-12.95,15.42-15.46
				c0-1-0.87-1-1.16-1c-0.87,0-1.06,0.4-1.25,1.1c-3.18,10.74-9.74,13.15-12.82,13.15c-3.76,0-5.3-3.21-5.3-6.63
				c0-2.21,0.58-4.42,1.64-8.83L1143.9,709.25L1143.9,709.25L1143.9,709.25z"/>
			<path class="st3" d="M1187.05,730.99c5.14,0,8.83,3.79,8.83,11.3c0,8.7-4.75,11.3-8.57,11.3c-2.64,0-8.44-0.77-11.21-4.91
				c3.1-0.14,3.82-2.46,3.82-3.93c0-2.25-1.58-3.86-3.63-3.86c-1.85,0-3.69,1.19-3.69,4.07c0,6.6,6.86,10.88,14.83,10.88
				c9.16,0,15.49-6.53,15.49-13.55c0-5.47-4.22-10.95-11.47-12.56c6.92-2.67,9.43-7.93,9.43-12.21c0-5.54-6-9.69-13.31-9.69
				c-7.32,0-12.92,3.79-12.92,9.4c0,2.39,1.45,3.72,3.43,3.72c2.04,0,3.36-1.61,3.36-3.58c0-2.04-1.32-3.51-3.36-3.65
				c2.31-3.09,6.85-3.86,9.29-3.86c2.97,0,7.12,1.54,7.12,7.65c0,2.95-0.92,6.18-2.64,8.35c-2.18,2.67-4.02,2.81-7.32,3.02
				c-1.65,0.14-1.78,0.14-2.11,0.21c-0.13,0-0.66,0.14-0.66,0.91c0,0.98,0.59,0.98,1.71,0.98H1187.05L1187.05,730.99L1187.05,730.99
				z"/>
		</g>
	</g>
	<g>
		<line class="st1" x1="1562.41" y1="464.68" x2="1663.38" y2="667.78"/>
		<g>
			<line class="st2" x1="1562.41" y1="464.68" x2="1652.49" y2="645.88"/>
			<g>
				<path d="M1650.1,641.06l6.75-10.7l0.38,0.22l1.58,18.9c1.52,6.1,3.05,12.2,4.57,18.3c-3.94-4.9-7.89-9.79-11.83-14.69
					l-14.11-12.67l0-0.41L1650.1,641.06z"/>
			</g>
		</g>
	</g>
	<g>
		<line class="st1" x1="1900.26" y1="464.68" x2="1799.29" y2="667.78"/>
		<g>
			<line class="st2" x1="1900.26" y1="464.68" x2="1810.18" y2="645.88"/>
			<g>
				<path d="M1812.58,641.06l12.61-1.08l0.05,0.44l-14.11,12.67c-3.94,4.9-7.89,9.79-11.83,14.69c1.52-6.1,3.05-12.2,4.57-18.3
					l1.58-18.9l0.33-0.25L1812.58,641.06z"/>
			</g>
		</g>
	</g>
	<g>
		<circle class="st4" cx="1731.34" cy="725.47" r="87.64"/>
		<g>
			<path d="M1731.34,639.33c47.5,0,86.14,38.64,86.14,86.14s-38.64,86.14-86.14,86.14c-47.5,0-86.14-38.64-86.14-86.14
				S1683.84,639.33,1731.34,639.33 M1731.34,636.33c-49.23,0-89.14,39.91-89.14,89.14c0,49.23,39.91,89.14,89.14,89.14
				c49.23,0,89.14-39.91,89.14-89.14C1820.48,676.24,1780.57,636.33,1731.34,636.33L1731.34,636.33z"/>
		</g>
	</g>
	<g>
		<circle class="st1" cx="1518.19" cy="387.26" r="87.64"/>
		<path d="M1518.19,301.12c47.5,0,86.14,38.64,86.14,86.14s-38.64,86.14-86.14,86.14c-47.5,0-86.14-38.64-86.14-86.14
			S1470.69,301.12,1518.19,301.12 M1518.19,298.12c-49.23,0-89.14,39.91-89.14,89.14s39.91,89.14,89.14,89.14
			c49.23,0,89.14-39.91,89.14-89.14S1567.43,298.12,1518.19,298.12L1518.19,298.12z"/>
	</g>
	<g>
		
			<ellipse transform="matrix(0.5257 -0.8507 0.8507 0.5257 592.7855 1837.7393)" class="st1" cx="1944.48" cy="387.26" rx="87.64" ry="87.64"/>
		<path d="M1944.48,301.12c47.5,0,86.14,38.64,86.14,86.14s-38.64,86.14-86.14,86.14s-86.14-38.64-86.14-86.14
			S1896.98,301.12,1944.48,301.12 M1944.48,298.12c-49.23,0-89.14,39.91-89.14,89.14s39.91,89.14,89.14,89.14
			c49.23,0,89.14-39.91,89.14-89.14S1993.71,298.12,1944.48,298.12L1944.48,298.12z"/>
	</g>
	<g>
		<path class="st3" d="M1503.38,370.99c0.58-2.61,2.8-11.85,9.54-11.85c0.48,0,2.8,0,4.82,1.31c-2.7,0.5-4.63,3.01-4.63,5.42
			c0,1.61,1.06,3.51,3.66,3.51c2.12,0,5.21-1.81,5.21-5.82c0-5.22-5.69-6.63-8.96-6.63c-5.59,0-8.97,5.32-10.12,7.63
			c-2.41-6.63-7.62-7.63-10.41-7.63c-10.03,0-15.52,12.95-15.52,15.46c0,1,0.96,1,1.16,1c0.77,0,1.06-0.2,1.25-1.1
			c3.28-10.64,9.64-13.15,12.92-13.15c1.83,0,5.21,0.9,5.21,6.73c0,3.11-1.64,9.84-5.21,23.89c-1.54,6.23-4.92,10.44-9.16,10.44
			c-0.58,0-2.8,0-4.82-1.31c2.41-0.5,4.53-2.61,4.53-5.42c0-2.71-2.12-3.51-3.57-3.51c-2.89,0-5.3,2.61-5.3,5.82
			c0,4.62,4.82,6.63,9.06,6.63c6.36,0,9.83-7.03,10.12-7.63c1.16,3.71,4.63,7.63,10.41,7.63c9.93,0,15.42-12.95,15.42-15.46
			c0-1-0.87-1-1.16-1c-0.87,0-1.06,0.4-1.25,1.1c-3.18,10.74-9.74,13.15-12.82,13.15c-3.76,0-5.3-3.21-5.3-6.63
			c0-2.21,0.58-4.42,1.64-8.83L1503.38,370.99L1503.38,370.99L1503.38,370.99z"/>
		<path class="st3" d="M1550.31,371.6c0-1.95-0.14-2.02-2.08-2.02c-4.44,4.56-10.76,4.63-13.61,4.63v2.6c1.67,0,6.25,0,10.07-2.02
			v36.87c0,2.39,0,3.33-6.94,3.33h-2.64v2.6c1.25-0.07,9.79-0.29,12.36-0.29c2.15,0,10.9,0.22,12.43,0.29v-2.6h-2.64
			c-6.94,0-6.94-0.94-6.94-3.33V371.6L1550.31,371.6L1550.31,371.6z"/>
	</g>
	<g>
		<path class="st3" d="M1717.78,709.25c0.58-2.61,2.8-11.85,9.54-11.85c0.48,0,2.8,0,4.82,1.31c-2.7,0.5-4.63,3.01-4.63,5.42
			c0,1.61,1.06,3.51,3.66,3.51c2.12,0,5.21-1.81,5.21-5.82c0-5.22-5.69-6.63-8.96-6.63c-5.59,0-8.97,5.32-10.12,7.63
			c-2.41-6.63-7.62-7.63-10.41-7.63c-10.03,0-15.52,12.95-15.52,15.46c0,1,0.96,1,1.16,1c0.77,0,1.06-0.2,1.25-1.1
			c3.28-10.64,9.64-13.15,12.92-13.15c1.83,0,5.21,0.9,5.21,6.73c0,3.11-1.64,9.84-5.21,23.89c-1.54,6.23-4.92,10.44-9.16,10.44
			c-0.58,0-2.8,0-4.82-1.31c2.41-0.5,4.53-2.61,4.53-5.42c0-2.71-2.12-3.51-3.57-3.51c-2.89,0-5.3,2.61-5.3,5.82
			c0,4.62,4.82,6.63,9.06,6.63c6.36,0,9.83-7.03,10.12-7.63c1.16,3.71,4.63,7.63,10.41,7.63c9.93,0,15.42-12.95,15.42-15.46
			c0-1-0.87-1-1.16-1c-0.87,0-1.06,0.4-1.25,1.1c-3.18,10.74-9.74,13.15-12.82,13.15c-3.76,0-5.3-3.21-5.3-6.63
			c0-2.21,0.58-4.42,1.64-8.83L1717.78,709.25L1717.78,709.25L1717.78,709.25z"/>
		<path class="st3" d="M1760.93,730.99c5.14,0,8.83,3.79,8.83,11.3c0,8.7-4.75,11.3-8.57,11.3c-2.64,0-8.44-0.77-11.21-4.91
			c3.1-0.14,3.82-2.46,3.82-3.93c0-2.25-1.58-3.86-3.63-3.86c-1.85,0-3.69,1.19-3.69,4.07c0,6.6,6.86,10.88,14.83,10.88
			c9.16,0,15.49-6.53,15.49-13.55c0-5.47-4.22-10.95-11.47-12.56c6.92-2.67,9.43-7.93,9.43-12.21c0-5.54-6-9.69-13.31-9.69
			c-7.32,0-12.92,3.79-12.92,9.4c0,2.39,1.45,3.72,3.43,3.72c2.04,0,3.36-1.61,3.36-3.58c0-2.04-1.32-3.51-3.36-3.65
			c2.31-3.09,6.85-3.86,9.29-3.86c2.97,0,7.12,1.54,7.12,7.65c0,2.95-0.92,6.18-2.64,8.35c-2.18,2.67-4.02,2.81-7.32,3.02
			c-1.65,0.14-1.78,0.14-2.11,0.21c-0.13,0-0.66,0.14-0.66,0.91c0,0.98,0.59,0.98,1.71,0.98H1760.93L1760.93,730.99L1760.93,730.99z
			"/>
	</g>
	<g>
		<path class="st3" d="M1929.66,370.99c0.58-2.61,2.8-11.85,9.54-11.85c0.48,0,2.8,0,4.82,1.31c-2.7,0.5-4.63,3.01-4.63,5.42
			c0,1.61,1.06,3.51,3.66,3.51c2.12,0,5.21-1.81,5.21-5.82c0-5.22-5.69-6.63-8.97-6.63c-5.59,0-8.97,5.32-10.12,7.63
			c-2.41-6.63-7.62-7.63-10.41-7.63c-10.03,0-15.52,12.95-15.52,15.46c0,1,0.96,1,1.16,1c0.77,0,1.06-0.2,1.25-1.1
			c3.28-10.64,9.64-13.15,12.92-13.15c1.83,0,5.21,0.9,5.21,6.73c0,3.11-1.64,9.84-5.21,23.89c-1.54,6.23-4.92,10.44-9.16,10.44
			c-0.58,0-2.8,0-4.82-1.31c2.41-0.5,4.53-2.61,4.53-5.42c0-2.71-2.12-3.51-3.57-3.51c-2.89,0-5.3,2.61-5.3,5.82
			c0,4.62,4.82,6.63,9.06,6.63c6.36,0,9.83-7.03,10.12-7.63c1.16,3.71,4.63,7.63,10.41,7.63c9.93,0,15.42-12.95,15.42-15.46
			c0-1-0.87-1-1.16-1c-0.87,0-1.06,0.4-1.25,1.1c-3.18,10.74-9.74,13.15-12.82,13.15c-3.76,0-5.3-3.21-5.3-6.63
			c0-2.21,0.58-4.42,1.64-8.83L1929.66,370.99L1929.66,370.99L1929.66,370.99z"/>
		<path class="st3" d="M1988.7,404.42h-2.33c-0.21,1.59-0.89,5.86-1.78,6.58c-0.55,0.43-5.83,0.43-6.79,0.43h-12.62
			c7.2-6.72,9.6-8.75,13.72-12.15c5.08-4.27,9.81-8.75,9.81-15.62c0-8.75-7.27-14.1-16.05-14.1c-8.51,0-14.27,6.29-14.27,12.94
			c0,3.69,2.95,4.05,3.64,4.05c1.65,0,3.64-1.23,3.64-3.83c0-1.3-0.48-3.83-4.05-3.83c2.13-5.13,6.79-6.72,10.02-6.72
			c6.86,0,10.43,5.64,10.43,11.5c0,6.29-4.25,11.28-6.45,13.88l-16.53,17.21c-0.69,0.65-0.69,0.8-0.69,2.82h28.26L1988.7,404.42
			L1988.7,404.42L1988.7,404.42z"/>
	</g>
	<g>
		<path class="st3" d="M135.26,1184.29c0.42-1.8,2.03-8.15,6.91-8.15c0.35,0,2.03,0,3.49,0.9c-1.96,0.35-3.35,2.07-3.35,3.73
			c0,1.11,0.77,2.42,2.65,2.42c1.54,0,3.77-1.24,3.77-4.01c0-3.59-4.12-4.56-6.5-4.56c-4.05,0-6.5,3.66-7.33,5.25
			c-1.75-4.56-5.52-5.25-7.54-5.25c-7.26,0-11.25,8.91-11.25,10.64c0,0.69,0.7,0.69,0.84,0.69c0.56,0,0.77-0.14,0.91-0.76
			c2.37-7.33,6.98-9.05,9.36-9.05c1.33,0,3.77,0.62,3.77,4.63c0,2.14-1.19,6.77-3.77,16.45c-1.12,4.28-3.56,7.19-6.64,7.19
			c-0.42,0-2.03,0-3.49-0.9c1.75-0.35,3.28-1.8,3.28-3.73c0-1.87-1.54-2.42-2.58-2.42c-2.1,0-3.84,1.8-3.84,4.01
			c0,3.18,3.49,4.56,6.57,4.56c4.61,0,7.12-4.84,7.33-5.25c0.84,2.56,3.35,5.25,7.54,5.25c7.19,0,11.18-8.91,11.18-10.64
			c0-0.69-0.63-0.69-0.84-0.69c-0.63,0-0.77,0.28-0.91,0.76c-2.31,7.39-7.05,9.05-9.29,9.05c-2.72,0-3.84-2.21-3.84-4.56
			c0-1.52,0.42-3.04,1.19-6.08L135.26,1184.29L135.26,1184.29L135.26,1184.29z"/>
		<path class="st3" d="M168.23,1184.63c0-1.27-0.1-1.32-1.43-1.32c-3.06,2.97-7.41,3.02-9.37,3.02v1.7c1.15,0,4.3,0,6.93-1.32v24.05
			c0,1.56,0,2.17-4.78,2.17h-1.82v1.7c0.86-0.05,6.74-0.19,8.5-0.19c1.48,0,7.5,0.14,8.55,0.19v-1.7h-1.82
			c-4.78,0-4.78-0.61-4.78-2.17V1184.63L168.23,1184.63L168.23,1184.63z"/>
		<path class="st3" d="M231.02,1161.4c0-1.22,0-2.44-1.41-2.44c-1.41,0-1.41,1.42-1.41,2.44v40.07h-19.54c-1.05,0-2.53,0-2.53,1.35
			c0,1.35,1.48,1.35,2.53,1.35h41.97c1.2,0,2.46,0,2.46-1.35c0-1.35-1.27-1.35-2.46-1.35h-19.61V1161.4L231.02,1161.4L231.02,1161.4
			z"/>
		<path class="st3" d="M250.15,1161.4c0-1.22,0-2.44-1.41-2.44c-1.41,0-1.41,1.42-1.41,2.44v40.07H227.8c-1.05,0-2.53,0-2.53,1.35
			c0,1.35,1.48,1.35,2.53,1.35h41.97c1.2,0,2.46,0,2.46-1.35c0-1.35-1.27-1.35-2.46-1.35h-19.61V1161.4L250.15,1161.4L250.15,1161.4
			z"/>
		<path class="st3" d="M319.62,1184.29c0.42-1.8,2.03-8.15,6.91-8.15c0.35,0,2.03,0,3.49,0.9c-1.96,0.35-3.35,2.07-3.35,3.73
			c0,1.11,0.77,2.42,2.65,2.42c1.54,0,3.77-1.24,3.77-4.01c0-3.59-4.12-4.56-6.5-4.56c-4.05,0-6.5,3.66-7.33,5.25
			c-1.75-4.56-5.52-5.25-7.54-5.25c-7.26,0-11.25,8.91-11.25,10.64c0,0.69,0.7,0.69,0.84,0.69c0.56,0,0.77-0.14,0.91-0.76
			c2.37-7.33,6.98-9.05,9.36-9.05c1.33,0,3.77,0.62,3.77,4.63c0,2.14-1.19,6.77-3.77,16.45c-1.12,4.28-3.56,7.19-6.64,7.19
			c-0.42,0-2.03,0-3.49-0.9c1.75-0.35,3.28-1.8,3.28-3.73c0-1.87-1.54-2.42-2.58-2.42c-2.1,0-3.84,1.8-3.84,4.01
			c0,3.18,3.49,4.56,6.57,4.56c4.61,0,7.12-4.84,7.33-5.25c0.84,2.56,3.35,5.25,7.54,5.25c7.19,0,11.18-8.91,11.18-10.64
			c0-0.69-0.63-0.69-0.84-0.69c-0.63,0-0.77,0.28-0.91,0.76c-2.3,7.39-7.05,9.05-9.29,9.05c-2.72,0-3.84-2.21-3.84-4.56
			c0-1.52,0.42-3.04,1.19-6.08L319.62,1184.29L319.62,1184.29L319.62,1184.29z"/>
		<path class="st3" d="M349.08,1199.25c3.83,0,6.59,2.61,6.59,7.78c0,5.99-3.54,7.78-6.39,7.78c-1.97,0-6.29-0.53-8.36-3.38
			c2.31-0.1,2.85-1.69,2.85-2.71c0-1.55-1.18-2.66-2.7-2.66c-1.38,0-2.75,0.82-2.75,2.8c0,4.54,5.11,7.49,11.06,7.49
			c6.83,0,11.55-4.49,11.55-9.32c0-3.77-3.15-7.54-8.55-8.65c5.16-1.84,7.03-5.46,7.03-8.41c0-3.82-4.47-6.67-9.93-6.67
			c-5.46,0-9.63,2.61-9.63,6.47c0,1.64,1.08,2.56,2.56,2.56c1.52,0,2.51-1.11,2.51-2.46c0-1.4-0.98-2.42-2.51-2.51
			c1.72-2.13,5.11-2.66,6.93-2.66c2.21,0,5.31,1.06,5.31,5.27c0,2.03-0.69,4.25-1.97,5.75c-1.62,1.84-3,1.93-5.46,2.08
			c-1.23,0.1-1.33,0.1-1.57,0.15c-0.1,0-0.49,0.1-0.49,0.63c0,0.68,0.44,0.68,1.28,0.68H349.08L349.08,1199.25L349.08,1199.25z"/>
		<path class="st3" d="M400.91,1156.18c0-1.22,0-2.44-0.87-2.44s-0.87,1.22-0.87,2.44v62.95c0,1.22,0,2.44,0.87,2.44
			s0.87-1.22,0.87-2.44V1156.18L400.91,1156.18L400.91,1156.18z"/>
		<path class="st3" d="M457.02,1184.29c0.42-1.8,2.03-8.15,6.91-8.15c0.35,0,2.03,0,3.49,0.9c-1.96,0.35-3.35,2.07-3.35,3.73
			c0,1.11,0.77,2.42,2.65,2.42c1.54,0,3.77-1.24,3.77-4.01c0-3.59-4.12-4.56-6.5-4.56c-4.05,0-6.5,3.66-7.33,5.25
			c-1.75-4.56-5.52-5.25-7.54-5.25c-7.26,0-11.25,8.91-11.25,10.64c0,0.69,0.7,0.69,0.84,0.69c0.56,0,0.77-0.14,0.91-0.76
			c2.37-7.33,6.98-9.05,9.36-9.05c1.33,0,3.77,0.62,3.77,4.63c0,2.14-1.19,6.77-3.77,16.45c-1.12,4.28-3.56,7.19-6.64,7.19
			c-0.42,0-2.03,0-3.49-0.9c1.75-0.35,3.28-1.8,3.28-3.73c0-1.87-1.54-2.42-2.58-2.42c-2.1,0-3.84,1.8-3.84,4.01
			c0,3.18,3.49,4.56,6.57,4.56c4.61,0,7.12-4.84,7.33-5.25c0.84,2.56,3.35,5.25,7.54,5.25c7.19,0,11.18-8.91,11.18-10.64
			c0-0.69-0.63-0.69-0.84-0.69c-0.63,0-0.77,0.28-0.91,0.76c-2.31,7.39-7.05,9.05-9.29,9.05c-2.72,0-3.84-2.21-3.84-4.56
			c0-1.52,0.42-3.04,1.19-6.08L457.02,1184.29L457.02,1184.29L457.02,1184.29z"/>
		<path class="st3" d="M498.33,1206.03h-1.74c-0.15,1.04-0.67,3.82-1.33,4.29c-0.41,0.28-4.35,0.28-5.06,0.28h-9.41
			c5.37-4.38,7.16-5.7,10.23-7.92c3.79-2.78,7.32-5.7,7.32-10.18c0-5.7-5.42-9.19-11.97-9.19c-6.34,0-10.64,4.1-10.64,8.44
			c0,2.4,2.2,2.64,2.71,2.64c1.23,0,2.71-0.8,2.71-2.5c0-0.85-0.36-2.5-3.02-2.5c1.59-3.35,5.06-4.38,7.47-4.38
			c5.12,0,7.78,3.68,7.78,7.5c0,4.1-3.17,7.36-4.81,9.05l-12.33,11.22c-0.51,0.42-0.51,0.52-0.51,1.84h21.08L498.33,1206.03
			L498.33,1206.03L498.33,1206.03z"/>
	</g>
	<g>
		<path class="st3" d="M775.56,1186.9c0.42-1.8,2.03-8.15,6.91-8.15c0.35,0,2.03,0,3.49,0.9c-1.96,0.35-3.35,2.07-3.35,3.73
			c0,1.11,0.77,2.42,2.65,2.42c1.54,0,3.77-1.24,3.77-4.01c0-3.59-4.12-4.56-6.5-4.56c-4.05,0-6.5,3.66-7.33,5.25
			c-1.75-4.56-5.52-5.25-7.54-5.25c-7.26,0-11.25,8.91-11.25,10.64c0,0.69,0.7,0.69,0.84,0.69c0.56,0,0.77-0.14,0.91-0.76
			c2.37-7.33,6.98-9.05,9.36-9.05c1.33,0,3.77,0.62,3.77,4.63c0,2.14-1.19,6.77-3.77,16.45c-1.12,4.28-3.56,7.19-6.64,7.19
			c-0.42,0-2.03,0-3.49-0.9c1.75-0.35,3.28-1.8,3.28-3.73c0-1.87-1.54-2.42-2.58-2.42c-2.1,0-3.84,1.8-3.84,4.01
			c0,3.18,3.49,4.56,6.57,4.56c4.61,0,7.12-4.84,7.33-5.25c0.84,2.56,3.35,5.25,7.54,5.25c7.19,0,11.18-8.91,11.18-10.64
			c0-0.69-0.63-0.69-0.84-0.69c-0.63,0-0.77,0.28-0.91,0.76c-2.31,7.39-7.05,9.05-9.29,9.05c-2.72,0-3.84-2.21-3.84-4.56
			c0-1.52,0.42-3.04,1.19-6.08L775.56,1186.9L775.56,1186.9L775.56,1186.9z"/>
		<path class="st3" d="M816.86,1208.64h-1.61c-0.14,1.04-0.61,3.82-1.23,4.29c-0.38,0.28-4.01,0.28-4.67,0.28h-8.69
			c4.96-4.38,6.61-5.7,9.44-7.92c3.49-2.78,6.75-5.7,6.75-10.18c0-5.7-5.01-9.19-11.05-9.19c-5.86,0-9.82,4.1-9.82,8.44
			c0,2.4,2.03,2.64,2.5,2.64c1.13,0,2.5-0.8,2.5-2.5c0-0.85-0.33-2.5-2.79-2.5c1.46-3.35,4.67-4.38,6.89-4.38
			c4.72,0,7.18,3.68,7.18,7.5c0,4.1-2.93,7.36-4.44,9.05l-11.38,11.22c-0.47,0.42-0.47,0.52-0.47,1.84h19.45L816.86,1208.64
			L816.86,1208.64L816.86,1208.64z"/>
		<path class="st3" d="M871.32,1164c0-1.22,0-2.44-1.41-2.44s-1.41,1.42-1.41,2.44v40.07h-19.54c-1.05,0-2.53,0-2.53,1.35
			c0,1.35,1.48,1.35,2.53,1.35h41.97c1.2,0,2.46,0,2.46-1.35c0-1.35-1.27-1.35-2.46-1.35h-19.61V1164L871.32,1164L871.32,1164z"/>
		<path class="st3" d="M890.45,1164c0-1.22,0-2.44-1.41-2.44s-1.41,1.42-1.41,2.44v40.07H868.1c-1.05,0-2.53,0-2.53,1.35
			c0,1.35,1.48,1.35,2.53,1.35h41.97c1.2,0,2.46,0,2.46-1.35c0-1.35-1.27-1.35-2.46-1.35h-19.61V1164L890.45,1164L890.45,1164z"/>
		<path class="st3" d="M959.92,1186.9c0.42-1.8,2.03-8.15,6.91-8.15c0.35,0,2.03,0,3.49,0.9c-1.96,0.35-3.35,2.07-3.35,3.73
			c0,1.11,0.77,2.42,2.65,2.42c1.54,0,3.77-1.24,3.77-4.01c0-3.59-4.12-4.56-6.5-4.56c-4.05,0-6.5,3.66-7.33,5.25
			c-1.75-4.56-5.52-5.25-7.54-5.25c-7.26,0-11.25,8.91-11.25,10.64c0,0.69,0.7,0.69,0.84,0.69c0.56,0,0.77-0.14,0.91-0.76
			c2.37-7.33,6.98-9.05,9.36-9.05c1.33,0,3.77,0.62,3.77,4.63c0,2.14-1.19,6.77-3.77,16.45c-1.12,4.28-3.56,7.19-6.64,7.19
			c-0.42,0-2.03,0-3.49-0.9c1.75-0.35,3.28-1.8,3.28-3.73c0-1.87-1.54-2.42-2.58-2.42c-2.1,0-3.84,1.8-3.84,4.01
			c0,3.18,3.49,4.56,6.57,4.56c4.61,0,7.12-4.84,7.33-5.25c0.84,2.56,3.35,5.25,7.54,5.25c7.19,0,11.18-8.91,11.18-10.64
			c0-0.69-0.63-0.69-0.84-0.69c-0.63,0-0.77,0.28-0.91,0.76c-2.3,7.39-7.05,9.05-9.29,9.05c-2.72,0-3.84-2.21-3.84-4.56
			c0-1.52,0.42-3.04,1.19-6.08L959.92,1186.9L959.92,1186.9L959.92,1186.9z"/>
		<path class="st3" d="M989.38,1201.86c3.83,0,6.59,2.61,6.59,7.78c0,5.99-3.54,7.78-6.39,7.78c-1.97,0-6.29-0.53-8.36-3.38
			c2.31-0.1,2.85-1.69,2.85-2.71c0-1.55-1.18-2.66-2.7-2.66c-1.38,0-2.75,0.82-2.75,2.8c0,4.54,5.11,7.49,11.06,7.49
			c6.83,0,11.55-4.49,11.55-9.32c0-3.77-3.15-7.54-8.55-8.65c5.16-1.84,7.03-5.46,7.03-8.41c0-3.82-4.47-6.67-9.93-6.67
			s-9.63,2.61-9.63,6.47c0,1.64,1.08,2.56,2.56,2.56c1.52,0,2.51-1.11,2.51-2.46c0-1.4-0.98-2.42-2.51-2.51
			c1.72-2.13,5.11-2.66,6.93-2.66c2.21,0,5.31,1.06,5.31,5.27c0,2.03-0.69,4.25-1.97,5.75c-1.62,1.84-3,1.93-5.46,2.08
			c-1.23,0.1-1.33,0.1-1.57,0.15c-0.1,0-0.49,0.1-0.49,0.63c0,0.68,0.44,0.68,1.28,0.68H989.38L989.38,1201.86L989.38,1201.86z"/>
		<path class="st3" d="M1041.21,1158.79c0-1.22,0-2.44-0.87-2.44s-0.87,1.22-0.87,2.44v62.95c0,1.22,0,2.44,0.87,2.44
			s0.87-1.22,0.87-2.44V1158.79L1041.21,1158.79L1041.21,1158.79z"/>
		<path class="st3" d="M1097.32,1186.9c0.42-1.8,2.03-8.15,6.91-8.15c0.35,0,2.03,0,3.49,0.9c-1.96,0.35-3.35,2.07-3.35,3.73
			c0,1.11,0.77,2.42,2.65,2.42c1.54,0,3.77-1.24,3.77-4.01c0-3.59-4.12-4.56-6.5-4.56c-4.05,0-6.5,3.66-7.33,5.25
			c-1.75-4.56-5.52-5.25-7.54-5.25c-7.26,0-11.25,8.91-11.25,10.64c0,0.69,0.7,0.69,0.84,0.69c0.56,0,0.77-0.14,0.91-0.76
			c2.37-7.33,6.98-9.05,9.36-9.05c1.33,0,3.77,0.62,3.77,4.63c0,2.14-1.19,6.77-3.77,16.45c-1.12,4.28-3.56,7.19-6.64,7.19
			c-0.42,0-2.03,0-3.49-0.9c1.75-0.35,3.28-1.8,3.28-3.73c0-1.87-1.54-2.42-2.58-2.42c-2.1,0-3.84,1.8-3.84,4.01
			c0,3.18,3.49,4.56,6.57,4.56c4.61,0,7.12-4.84,7.33-5.25c0.84,2.56,3.35,5.25,7.54,5.25c7.19,0,11.18-8.91,11.18-10.64
			c0-0.69-0.63-0.69-0.84-0.69c-0.63,0-0.77,0.28-0.91,0.76c-2.31,7.39-7.05,9.05-9.29,9.05c-2.72,0-3.84-2.21-3.84-4.56
			c0-1.52,0.42-3.04,1.19-6.08L1097.32,1186.9L1097.32,1186.9L1097.32,1186.9z"/>
		<path class="st3" d="M1130.3,1187.24c0-1.27-0.1-1.32-1.43-1.32c-3.06,2.97-7.41,3.02-9.36,3.02v1.7c1.15,0,4.3,0,6.93-1.32v24.05
			c0,1.56,0,2.17-4.78,2.17h-1.82v1.7c0.86-0.05,6.74-0.19,8.51-0.19c1.48,0,7.5,0.14,8.55,0.19v-1.7h-1.82
			c-4.78,0-4.78-0.61-4.78-2.17V1187.24L1130.3,1187.24L1130.3,1187.24z"/>
	</g>
	<g>
		<path class="st3" d="M1562.95,1185.1c0.42-1.8,2.03-8.15,6.91-8.15c0.35,0,2.03,0,3.49,0.9c-1.96,0.35-3.35,2.07-3.35,3.73
			c0,1.11,0.77,2.42,2.65,2.42c1.54,0,3.77-1.24,3.77-4.01c0-3.59-4.12-4.56-6.5-4.56c-4.05,0-6.5,3.66-7.33,5.25
			c-1.75-4.56-5.52-5.25-7.54-5.25c-7.26,0-11.25,8.91-11.25,10.64c0,0.69,0.7,0.69,0.84,0.69c0.56,0,0.77-0.14,0.91-0.76
			c2.37-7.33,6.98-9.05,9.36-9.05c1.33,0,3.77,0.62,3.77,4.63c0,2.14-1.19,6.77-3.77,16.45c-1.12,4.28-3.56,7.19-6.64,7.19
			c-0.42,0-2.03,0-3.49-0.9c1.75-0.35,3.28-1.8,3.28-3.73c0-1.87-1.54-2.42-2.58-2.42c-2.1,0-3.84,1.8-3.84,4.01
			c0,3.18,3.49,4.56,6.57,4.56c4.61,0,7.12-4.84,7.33-5.25c0.84,2.56,3.35,5.25,7.54,5.25c7.19,0,11.18-8.91,11.18-10.64
			c0-0.69-0.63-0.69-0.84-0.69c-0.63,0-0.77,0.28-0.91,0.76c-2.31,7.39-7.05,9.05-9.29,9.05c-2.72,0-3.84-2.21-3.84-4.56
			c0-1.52,0.42-3.04,1.19-6.08L1562.95,1185.1L1562.95,1185.1L1562.95,1185.1z"/>
		<path class="st3" d="M1595.93,1185.44c0-1.27-0.1-1.32-1.43-1.32c-3.06,2.97-7.41,3.02-9.37,3.02v1.7c1.15,0,4.3,0,6.93-1.32
			v24.05c0,1.56,0,2.17-4.78,2.17h-1.82v1.7c0.86-0.05,6.74-0.19,8.5-0.19c1.48,0,7.5,0.14,8.55,0.19v-1.7h-1.82
			c-4.78,0-4.78-0.61-4.78-2.17V1185.44L1595.93,1185.44L1595.93,1185.44z"/>
		<path class="st3" d="M1675.01,1158.99c0.56-0.97,0.56-1.1,0.56-1.31c0-0.48-0.42-1.38-1.39-1.38c-0.84,0-1.05,0.41-1.53,1.38
			l-31.3,60.28c-0.56,0.97-0.56,1.1-0.56,1.31c0,0.55,0.49,1.38,1.39,1.38c0.84,0,1.05-0.41,1.53-1.38L1675.01,1158.99
			L1675.01,1158.99L1675.01,1158.99z"/>
		<path class="st3" d="M1658.72,1162.21c0-1.22,0-2.44-1.41-2.44c-1.41,0-1.41,1.42-1.41,2.44v40.07h-19.54
			c-1.05,0-2.53,0-2.53,1.35c0,1.35,1.48,1.35,2.53,1.35h41.97c1.2,0,2.46,0,2.46-1.35c0-1.35-1.27-1.35-2.46-1.35h-19.61V1162.21
			L1658.72,1162.21L1658.72,1162.21z"/>
		<path class="st3" d="M1677.85,1162.21c0-1.22,0-2.44-1.41-2.44c-1.41,0-1.41,1.42-1.41,2.44v40.07h-19.54
			c-1.05,0-2.53,0-2.53,1.35c0,1.35,1.48,1.35,2.53,1.35h41.97c1.2,0,2.46,0,2.46-1.35c0-1.35-1.27-1.35-2.46-1.35h-19.61V1162.21
			L1677.85,1162.21L1677.85,1162.21z"/>
		<path class="st3" d="M1747.31,1185.1c0.42-1.8,2.03-8.15,6.92-8.15c0.35,0,2.03,0,3.49,0.9c-1.96,0.35-3.35,2.07-3.35,3.73
			c0,1.11,0.77,2.42,2.65,2.42c1.54,0,3.77-1.24,3.77-4.01c0-3.59-4.12-4.56-6.5-4.56c-4.05,0-6.5,3.66-7.33,5.25
			c-1.75-4.56-5.52-5.25-7.54-5.25c-7.26,0-11.25,8.91-11.25,10.64c0,0.69,0.7,0.69,0.84,0.69c0.56,0,0.77-0.14,0.91-0.76
			c2.37-7.33,6.98-9.05,9.36-9.05c1.33,0,3.77,0.62,3.77,4.63c0,2.14-1.19,6.77-3.77,16.45c-1.12,4.28-3.56,7.19-6.64,7.19
			c-0.42,0-2.03,0-3.49-0.9c1.75-0.35,3.28-1.8,3.28-3.73c0-1.87-1.54-2.42-2.58-2.42c-2.1,0-3.84,1.8-3.84,4.01
			c0,3.18,3.49,4.56,6.57,4.56c4.61,0,7.12-4.84,7.33-5.25c0.84,2.56,3.35,5.25,7.54,5.25c7.19,0,11.18-8.91,11.18-10.64
			c0-0.69-0.63-0.69-0.84-0.69c-0.63,0-0.77,0.28-0.91,0.76c-2.3,7.39-7.05,9.05-9.29,9.05c-2.72,0-3.84-2.21-3.84-4.56
			c0-1.52,0.42-3.04,1.19-6.08L1747.31,1185.1L1747.31,1185.1L1747.31,1185.1z"/>
		<path class="st3" d="M1788.63,1206.85h-1.74c-0.15,1.04-0.67,3.82-1.33,4.29c-0.41,0.28-4.35,0.28-5.06,0.28h-9.41
			c5.37-4.38,7.16-5.7,10.23-7.92c3.79-2.78,7.31-5.7,7.31-10.18c0-5.7-5.42-9.19-11.97-9.19c-6.34,0-10.64,4.1-10.64,8.44
			c0,2.4,2.2,2.64,2.71,2.64c1.23,0,2.71-0.8,2.71-2.5c0-0.85-0.36-2.5-3.02-2.5c1.59-3.35,5.06-4.38,7.47-4.38
			c5.12,0,7.78,3.68,7.78,7.5c0,4.1-3.17,7.36-4.81,9.05l-12.33,11.22c-0.51,0.42-0.51,0.52-0.51,1.84h21.08L1788.63,1206.85
			L1788.63,1206.85L1788.63,1206.85z"/>
		<path class="st3" d="M1828.6,1157c0-1.22,0-2.44-0.87-2.44c-0.87,0-0.87,1.22-0.87,2.44v62.95c0,1.22,0,2.44,0.87,2.44
			c0.87,0,0.87-1.22,0.87-2.44V1157L1828.6,1157L1828.6,1157z"/>
		<path class="st3" d="M1884.72,1185.1c0.42-1.8,2.03-8.15,6.91-8.15c0.35,0,2.03,0,3.49,0.9c-1.96,0.35-3.35,2.07-3.35,3.73
			c0,1.11,0.77,2.42,2.65,2.42c1.54,0,3.77-1.24,3.77-4.01c0-3.59-4.12-4.56-6.5-4.56c-4.05,0-6.5,3.66-7.33,5.25
			c-1.75-4.56-5.52-5.25-7.54-5.25c-7.26,0-11.25,8.91-11.25,10.64c0,0.69,0.7,0.69,0.84,0.69c0.56,0,0.77-0.14,0.91-0.76
			c2.37-7.33,6.98-9.05,9.36-9.05c1.33,0,3.77,0.62,3.77,4.63c0,2.14-1.19,6.77-3.77,16.45c-1.12,4.28-3.56,7.19-6.64,7.19
			c-0.42,0-2.03,0-3.49-0.9c1.75-0.35,3.28-1.8,3.28-3.73c0-1.87-1.54-2.42-2.58-2.42c-2.1,0-3.84,1.8-3.84,4.01
			c0,3.18,3.49,4.56,6.57,4.56c4.61,0,7.12-4.84,7.33-5.25c0.84,2.56,3.35,5.25,7.54,5.25c7.19,0,11.18-8.91,11.18-10.64
			c0-0.69-0.63-0.69-0.84-0.69c-0.63,0-0.77,0.28-0.91,0.76c-2.31,7.39-7.05,9.05-9.29,9.05c-2.72,0-3.84-2.21-3.84-4.56
			c0-1.52,0.42-3.04,1.19-6.08L1884.72,1185.1L1884.72,1185.1L1884.72,1185.1z"/>
		<path class="st3" d="M1914.18,1200.07c3.83,0,6.59,2.61,6.59,7.78c0,5.99-3.54,7.78-6.39,7.78c-1.97,0-6.29-0.53-8.36-3.38
			c2.31-0.1,2.85-1.69,2.85-2.71c0-1.55-1.18-2.66-2.7-2.66c-1.38,0-2.75,0.82-2.75,2.8c0,4.54,5.11,7.49,11.06,7.49
			c6.83,0,11.55-4.49,11.55-9.32c0-3.77-3.15-7.54-8.55-8.65c5.16-1.84,7.03-5.46,7.03-8.41c0-3.82-4.47-6.67-9.93-6.67
			c-5.46,0-9.63,2.61-9.63,6.47c0,1.64,1.08,2.56,2.56,2.56c1.52,0,2.51-1.11,2.51-2.46c0-1.4-0.98-2.42-2.51-2.51
			c1.72-2.13,5.11-2.66,6.93-2.66c2.21,0,5.31,1.06,5.31,5.27c0,2.03-0.69,4.25-1.97,5.75c-1.62,1.84-3,1.93-5.46,2.08
			c-1.23,0.1-1.33,0.1-1.57,0.15c-0.1,0-0.49,0.1-0.49,0.63c0,0.68,0.44,0.68,1.28,0.68H1914.18L1914.18,1200.07L1914.18,1200.07z"
			/>
	</g>
	<g>
		<path class="st3" d="M286.54,1115.14c0-0.19,0-0.32-1.08-1.4c-7.92-8.03-9.95-20.06-9.95-29.81c0-11.08,2.41-22.16,10.2-30.13
			c0.82-0.76,0.82-0.89,0.82-1.08c0-0.45-0.25-0.64-0.63-0.64c-0.63,0-6.34,4.33-10.07,12.42c-3.23,7.01-3.99,14.08-3.99,19.43
			c0,4.97,0.7,12.67,4.18,19.87c3.8,7.83,9.25,11.97,9.88,11.97C286.29,1115.77,286.54,1115.58,286.54,1115.14L286.54,1115.14z"/>
		<path class="st3" d="M312.05,1095.5c0.26,2.56,2.02,5.25,5.08,5.25c1.37,0,5.34-0.9,5.34-6.08v-3.59h-1.63v3.59
			c0,3.71-1.63,4.1-2.35,4.1c-2.15,0-2.41-2.88-2.41-3.2v-12.81c0-2.69,0-5.19-2.35-7.56c-2.54-2.5-5.8-3.52-8.93-3.52
			c-5.34,0-9.84,3.01-9.84,7.24c0,1.92,1.3,3.01,3,3.01c1.82,0,3-1.28,3-2.95c0-0.77-0.33-2.88-3.32-2.95
			c1.76-2.24,4.95-2.95,7.04-2.95c3.19,0,6.91,2.5,6.91,8.2v2.37c-3.32,0.19-7.89,0.38-11.99,2.31c-4.89,2.18-6.52,5.51-6.52,8.33
			c0,5.19,6.32,6.79,10.43,6.79C307.81,1101.08,310.81,1098.51,312.05,1095.5L312.05,1095.5z M311.59,1085v6.4
			c0,6.08-4.69,8.26-7.63,8.26c-3.19,0-5.87-2.24-5.87-5.44C298.1,1090.7,300.84,1085.38,311.59,1085L311.59,1085z"/>
		<path class="st3" d="M340.44,1083.93c0-4.97-0.7-12.67-4.18-19.87c-3.8-7.83-9.25-11.97-9.88-11.97c-0.38,0-0.63,0.25-0.63,0.64
			c0,0.19,0,0.32,1.2,1.46c6.21,6.31,9.82,16.43,9.82,29.74c0,10.89-2.34,22.1-10.2,30.13c-0.82,0.76-0.82,0.89-0.82,1.08
			c0,0.38,0.25,0.64,0.63,0.64c0.63,0,6.34-4.33,10.07-12.42C339.68,1096.35,340.44,1089.28,340.44,1083.93L340.44,1083.93z"/>
	</g>
	<g>
		<path class="st3" d="M923.52,1116.21c0-0.19,0-0.32-1.2-1.4c-8.8-8.03-11.05-20.06-11.05-29.81c0-11.08,2.68-22.16,11.33-30.13
			c0.92-0.76,0.92-0.89,0.92-1.08c0-0.45-0.28-0.64-0.7-0.64c-0.7,0-7.04,4.33-11.19,12.42c-3.59,7.01-4.43,14.08-4.43,19.43
			c0,4.97,0.77,12.67,4.65,19.87c4.22,7.83,10.28,11.97,10.98,11.97C923.24,1116.85,923.52,1116.65,923.52,1116.21L923.52,1116.21z"
			/>
		<path class="st3" d="M938.44,1076.98v-20.56l-10.02,0.71v2.01c4.87,0,5.43,0.45,5.43,3.63v38.66h1.74
			c0.07-0.06,0.63-0.97,2.5-4.02c1.04,1.49,3.97,4.73,9.11,4.73c8.28,0,15.51-6.36,15.51-14.72c0-8.24-6.82-14.66-14.75-14.66
			C942.54,1072.77,939.55,1075.81,938.44,1076.98L938.44,1076.98z M938.65,1094.04v-13.36c0-1.23,0-1.3,0.77-2.34
			c2.71-3.63,6.54-4.15,8.21-4.15c3.13,0,5.63,1.69,7.3,4.15c1.81,2.66,2.02,6.36,2.02,9.02c0,2.4-0.14,6.29-2.16,9.21
			c-1.46,2.01-4.1,4.15-7.86,4.15c-3.13,0-5.63-1.56-7.3-3.96C938.65,1095.4,938.65,1095.21,938.65,1094.04L938.65,1094.04z"/>
		<path class="st3" d="M983.95,1085c0-4.97-0.77-12.67-4.65-19.87c-4.22-7.83-10.28-11.97-10.98-11.97c-0.42,0-0.7,0.25-0.7,0.64
			c0,0.19,0,0.32,1.34,1.46c6.9,6.31,10.91,16.43,10.91,29.74c0,10.89-2.6,22.1-11.33,30.13c-0.92,0.76-0.92,0.89-0.92,1.08
			c0,0.38,0.28,0.64,0.7,0.64c0.7,0,7.04-4.33,11.19-12.42C983.11,1097.42,983.95,1090.35,983.95,1085L983.95,1085z"/>
	</g>
	<g>
		<path class="st3" d="M1712.55,1115.14c0-0.19,0-0.32-1.08-1.4c-7.92-8.03-9.95-20.06-9.95-29.81c0-11.08,2.41-22.16,10.2-30.13
			c0.82-0.76,0.82-0.89,0.82-1.08c0-0.45-0.25-0.64-0.63-0.64c-0.63,0-6.34,4.33-10.07,12.42c-3.23,7.01-3.99,14.08-3.99,19.43
			c0,4.97,0.7,12.67,4.18,19.87c3.8,7.83,9.25,11.97,9.88,11.97C1712.3,1115.77,1712.55,1115.58,1712.55,1115.14L1712.55,1115.14z"
			/>
		<path class="st3" d="M1724.42,1086.41c0-10.44,5.27-13.13,8.68-13.13c0.58,0,4.63,0.06,6.88,2.37c-2.64,0.19-3.02,2.11-3.02,2.95
			c0,1.67,1.16,2.95,2.96,2.95c1.67,0,2.96-1.09,2.96-3.01c0-4.35-4.89-6.85-9.84-6.85c-8.04,0-13.95,6.92-13.95,14.86
			c0,8.2,6.37,14.54,13.82,14.54c8.62,0,10.67-7.69,10.67-8.33s-0.64-0.64-0.84-0.64c-0.58,0-0.71,0.26-0.84,0.64
			c-1.86,5.96-6.04,6.72-8.42,6.72C1730.08,1099.47,1724.42,1096.72,1724.42,1086.41L1724.42,1086.41z"/>
		<path class="st3" d="M1764.82,1083.93c0-4.97-0.7-12.67-4.18-19.87c-3.8-7.83-9.25-11.97-9.88-11.97c-0.38,0-0.63,0.25-0.63,0.64
			c0,0.19,0,0.32,1.2,1.46c6.21,6.31,9.82,16.43,9.82,29.74c0,10.89-2.34,22.1-10.2,30.13c-0.82,0.76-0.82,0.89-0.82,1.08
			c0,0.38,0.25,0.64,0.63,0.64c0.63,0,6.34-4.33,10.07-12.42C1764.06,1096.35,1764.82,1089.28,1764.82,1083.93L1764.82,1083.93z"/>
	</g>
	<g>
	</g>
	<g>
	</g>
	<g>
	</g>
	<g>
	</g>
	<g>
	</g>
	<g>
	</g>
	<g>
	</g>
	<g>
	</g>
	<g>
	</g>
	<g>
	</g>
	<g>
	</g>
	<g>
	</g>
	<g>
	</g>
	<g>
	</g>
	<g>
	</g>
	<g>
	</g>
</g>
</svg>
