<?xml version="1.0" encoding="utf-8"?>
<!-- Generator: Adobe Illustrator 26.5.0, SVG Export Plug-In . SVG Version: 6.00 Build 0)  -->
<svg version="1.1" id="Layer_1" xmlns="http://www.w3.org/2000/svg" xmlns:xlink="http://www.w3.org/1999/xlink" x="0px" y="0px"
	 viewBox="0 0 1000 1000" style="enable-background:new 0 0 1000 1000;" xml:space="preserve">
<style type="text/css">
	.st0{fill-rule:evenodd;clip-rule:evenodd;fill:#FF556C;}
	.st1{fill:none;stroke:#FF556C;stroke-width:2;stroke-miterlimit:10;stroke-dasharray:6;}
	.st2{opacity:0.2;fill-rule:evenodd;clip-rule:evenodd;fill:#009EE9;enable-background:new    ;}
	.st3{fill:none;}
	.st4{fill:none;stroke:#000000;stroke-width:3;stroke-miterlimit:10;}
	.st5{fill-rule:evenodd;clip-rule:evenodd;}
	.st6{fill-rule:evenodd;clip-rule:evenodd;fill:#1FAAFF;}
	.st7{fill-rule:evenodd;clip-rule:evenodd;fill:#5735FF;}
</style>
<circle class="st0" cx="517" cy="588.8" r="11"/>
<line class="st1" x1="517" y1="525" x2="517" y2="577.7"/>
<polygon class="st2" points="93,887.5 338,511.6 877,264.6 679,602.5 "/>
<line class="st1" x1="606" y1="436.1" x2="606" y2="459.8"/>
<line class="st1" x1="411" y1="690.8" x2="411" y2="650.8"/>
<line class="st1" x1="365" y1="577.8" x2="365" y2="432.8"/>
<g>
	<line class="st3" x1="142.5" y1="750.2" x2="799" y2="750.2"/>
	<g>
		<line class="st4" x1="142.5" y1="750.2" x2="774.5" y2="750.2"/>
		<g>
			<path d="M769.2,750.2l-6.6-10.8l0.4-0.2l17.6,7c6.1,1.4,12.3,2.7,18.4,4.1c-6.1,1.4-12.3,2.7-18.4,4.1l-17.6,7l-0.4-0.2
				L769.2,750.2z"/>
		</g>
	</g>
</g>
<g>
	<line class="st3" x1="169.8" y1="824.7" x2="382.6" y2="477.4"/>
	<g>
		<line class="st4" x1="169.8" y1="824.7" x2="369.8" y2="498.2"/>
		<g>
			<path d="M367,502.8h-12.7v-0.4l15.2-11.4c4.4-4.5,8.7-9.1,13.1-13.6c-2.1,5.9-4.1,11.9-6.2,17.8l-3.2,18.7l-0.4,0.2L367,502.8z"
				/>
		</g>
	</g>
</g>
<g>
	<line class="st3" x1="217.5" y1="828.8" x2="217.5" y2="211.8"/>
	<g>
		<line class="st4" x1="217.5" y1="828.8" x2="217.5" y2="236.3"/>
		<g>
			<path d="M217.5,241.6l-10.8,6.6l-0.2-0.4l7-17.6c1.4-6.1,2.7-12.3,4.1-18.4c1.4,6.1,2.7,12.3,4.1,18.4l7,17.6l-0.2,0.4
				L217.5,241.6z"/>
		</g>
	</g>
</g>
<g>
	<path class="st5" d="M765.6,783.2c0.3-1.2,1.4-5.5,4.8-5.5c0.3,0,1.5,0,2.5,0.6c-1.4,0.2-2.4,1.4-2.4,2.5c0,0.8,0.6,1.6,1.9,1.6
		c1.1,0,2.7-0.8,2.7-2.7c0-2.4-2.9-3-4.5-3c-2.9,0-4.5,2.5-5.1,3.5c-1.3-3-4-3.5-5.3-3.5c-5.1,0-8,6-8,7.2c0,0.5,0.5,0.5,0.6,0.5
		c0.4,0,0.6-0.1,0.7-0.5c1.7-5,4.9-6.1,6.6-6.1c0.9,0,2.7,0.4,2.7,3.1c0,1.4-0.9,4.6-2.7,11.2c-0.8,2.9-2.6,4.9-4.7,4.9
		c-0.3,0-1.4,0-2.5-0.7c1.3-0.2,2.4-1.2,2.4-2.5c0-1.2-1.1-1.6-1.9-1.6c-1.5,0-2.7,1.2-2.7,2.7c0,2.2,2.5,3.1,4.6,3.1
		c3.3,0,5-3.3,5.1-3.6c0.6,1.7,2.4,3.6,5.3,3.6c5,0,7.9-6.1,7.9-7.3c0-0.5-0.5-0.5-0.6-0.5c-0.5,0-0.6,0.2-0.7,0.5
		c-1.6,5.1-4.9,6.2-6.5,6.2c-1.9,0-2.7-1.5-2.7-3.1c0-1,0.3-2.1,0.8-4.1L765.6,783.2"/>
	<path class="st5" d="M789.2,783.5c0-0.9,0-0.9-1-0.9c-2.2,2.1-5.3,2.1-6.8,2.1v1.2c0.9,0,3.2,0,5-0.9v16.8c0,1,0,1.5-3.4,1.5h-1.3
		v1.1c0.6,0,4.8-0.1,6.1-0.1c1.1,0,5.4,0.1,6.2,0.1v-1.1h-1.4c-3.4,0-3.4-0.5-3.4-1.5L789.2,783.5"/>
</g>
<g>
	<path class="st5" d="M312.8,479.2c0.3-1.3,1.4-5.8,5-5.8c0.3,0,1.5,0,2.6,0.6c-1.4,0.2-2.5,1.5-2.5,2.7c0,0.8,0.6,1.7,1.9,1.7
		c1.1,0,2.8-0.8,2.8-2.9c0-2.5-3-3.2-4.7-3.2c-3,0-4.7,2.6-5.3,3.7c-1.3-3.2-4.1-3.7-5.5-3.7c-5.3,0-8.3,6.4-8.3,7.6
		c0,0.5,0.5,0.5,0.6,0.5c0.4,0,0.6-0.1,0.7-0.5c1.7-5.3,5.1-6.5,6.9-6.5c0.9,0,2.8,0.4,2.8,3.3c0,1.5-0.9,4.9-2.8,11.9
		c-0.8,3.1-2.7,5.2-4.9,5.2c-0.3,0-1.4,0-2.6-0.7c1.3-0.2,2.5-1.3,2.5-2.7c0-1.3-1.1-1.7-1.9-1.7c-1.5,0-2.8,1.3-2.8,2.9
		c0,2.3,2.6,3.3,4.8,3.3c3.4,0,5.2-3.5,5.3-3.8c0.6,1.8,2.5,3.8,5.5,3.8c5.2,0,8.2-6.5,8.2-7.7c0-0.5-0.5-0.5-0.6-0.5
		c-0.5,0-0.6,0.2-0.7,0.5c-1.6,5.4-5.1,6.6-6.8,6.6c-1.9,0-2.8-1.6-2.8-3.3c0-1.1,0.3-2.2,0.8-4.4L312.8,479.2"/>
	<path class="st5" d="M343,495.5h-1.2c-0.1,0.7-0.5,2.8-0.9,3.2c-0.3,0.2-3.1,0.2-3.6,0.2h-6.6c3.8-3.3,5-4.3,7.2-5.9
		c2.7-2.1,5.1-4.2,5.1-7.6c0-4.2-3.8-6.8-8.4-6.8c-4.4,0-7.5,3-7.5,6.3c0,1.8,1.5,1.9,1.9,1.9c0.8,0,1.8-0.6,1.8-1.8
		c0-0.7-0.2-1.9-2-1.9c1.1-2.5,3.5-3.2,5.2-3.2c3.6,0,5.4,2.7,5.4,5.5c0,3.1-2.3,5.5-3.4,6.7l-8.6,8.4c-0.4,0.3-0.4,0.4-0.4,1.3
		h14.7L343,495.5"/>
</g>
<g>
	<path class="st5" d="M192.8,215.2c0.2-0.8,0.2-0.9,0.2-1.3c0-1-0.7-1.6-1.5-1.6c-0.5,0-1.3,0.3-1.7,1.3c-0.1,0.2-0.5,2-0.7,3.1
		c-0.4,1.4-0.7,3-1,4.4l-2.3,10.2c-0.2,0.9-2.3,4.9-5.6,4.9c-2.6,0-3.1-2.5-3.1-4.7c0-2.6,0.8-6.1,2.5-11.1c0.8-2.3,1-3,1-4
		c0-2.6-1.6-4.7-4.1-4.7c-4.7,0-6.6,8.2-6.6,8.6c0,0.6,0.5,0.6,0.6,0.6c0.5,0,0.5-0.1,0.8-1c1.3-5.2,3.3-6.9,5-6.9
		c0.4,0,1.2,0,1.2,1.8c0,1.4-0.5,2.8-0.8,3.9c-2,6-2.9,9.3-2.9,11.9c0,5.1,3.1,6.8,6.2,6.8c1.9,0,3.6-1,5-2.6
		c-0.6,3-1.2,5.8-3.2,8.8c-1.3,1.9-3.2,3.6-5.5,3.6c-0.7,0-3-0.2-3.8-2.4c0.8,0,1.4,0,2.1-0.7c0.5-0.6,1-1.3,1-2.4
		c0-1.7-1.3-1.9-1.8-1.9c-1.2,0-2.8,0.9-2.8,3.6c0,2.8,2.2,5,5.3,5c5.1,0,10.4-5.2,11.8-11.6L192.8,215.2"/>
</g>
<g>
	<path class="st6" d="M376.1,254.9c0.2-0.7,0.2-0.8,0.2-1.1c0-0.9-0.6-1.2-1.4-1.2c-0.4,0-1.1,0.3-1.6,1c-0.1,0.3-0.5,1.7-0.6,2.6
		c-0.3,1.2-0.6,2.5-0.9,3.8l-2,8.6c-0.2,0.7-2.2,4-5.2,4c-2.3,0-2.8-2.1-2.8-3.8c0-2.2,0.8-5.1,2.4-9.3c0.7-1.9,0.9-2.5,0.9-3.4
		c0-2.1-1.5-3.9-3.7-3.9c-4.3,0-6,6.9-6,7.3s0.5,0.5,0.5,0.5c0.5,0,0.5-0.1,0.7-0.9c1.3-4.5,3.1-5.9,4.7-5.9c0.4,0,1.1,0,1.1,1.5
		c0,1.2-0.5,2.5-0.7,3.3c-1.8,5.1-2.6,7.7-2.6,10c0,4.2,2.8,5.6,5.5,5.6c1.8,0,3.4-0.8,4.7-2.1c-0.6,2.5-1.2,4.8-3,7.2
		c-1.2,1.6-2.9,3.1-4.9,3.1c-0.6,0-2.7-0.2-3.5-2c0.7,0,1.3,0,1.9-0.6c0.5-0.5,0.9-1,0.9-1.9c0-1.5-1.2-1.7-1.6-1.7
		c-1.1,0-2.6,0.8-2.6,3.1c0,2.4,2,4.2,4.8,4.2c4.7,0,9.3-4.4,10.6-9.7L376.1,254.9"/>
	<path class="st6" d="M421.2,257c0.6,0,1.4,0,1.4-1s-0.8-1-1.4-1h-26.7c-0.6,0-1.5,0-1.5,1s0.9,1,1.5,1H421.2L421.2,257L421.2,257z
		 M421.2,266.4c0.6,0,1.4,0,1.4-1s-0.8-1-1.4-1h-26.7c-0.6,0-1.5,0-1.5,1s0.9,1,1.5,1H421.2"/>
	<path class="st6" d="M458.8,256.9c0.3-1.1,0.7-2.9,0.7-3.2c0-0.9-0.6-1.3-1.4-1.3c-0.5,0-1.4,0.4-1.6,1.3
		c-0.2,0.3-2.3,9.4-2.6,10.7c-0.3,1.4-0.4,2.3-0.4,3.2c0,0.6,0,0.7,0,0.9c-1,2.6-2.3,4-4.1,4c-3.6,0-3.6-3.6-3.6-4.3
		c0-1.5,0.2-3.5,2.3-9.3c0.5-1.4,0.7-2.1,0.7-3.1c0-2.1-1.4-3.9-3.7-3.9c-4.2,0-5.9,6.9-5.9,7.4s0.5,0.5,0.5,0.5
		c0.5,0,0.5-0.1,0.7-0.9c1.3-4.4,3-6,4.6-6c0.4,0,1.1,0.1,1.1,1.6c0,1.2-0.5,2.5-0.8,3.4c-2,5.6-2.5,7.8-2.5,9.6
		c0,4.4,3.1,6.1,6.4,6.1c0.8,0,2.9,0,4.7-3.4c1.2,3.1,4.2,3.4,5.6,3.4c3.4,0,5.3-3,6.5-5.9c1.5-3.8,3-10.2,3-12.5
		c0-2.6-1.2-3.4-2-3.4c-1.1,0-2.3,1.3-2.3,2.3c0,0.7,0.3,1,0.7,1.3c0.5,0.5,1.6,1.7,1.6,4c0,1.6-1.4,6.3-2.5,8.8
		c-1.1,2.6-2.7,4.2-4.9,4.2s-3.3-1.4-3.3-4.1c0-1.3,0.3-2.9,0.5-3.6L458.8,256.9"/>
	<path class="st6" d="M480.5,258.8c0-0.9,0-0.9-0.9-0.9c-2,2.1-4.9,2.1-6.2,2.1v1.2c0.7,0,2.8,0,4.6-0.9v17.2c0,1.1,0,1.5-3.2,1.5
		h-1.2v1.2c0.5,0,4.5-0.1,5.7-0.1c1,0,5,0.1,5.8,0.1V279h-1.4c-3.2,0-3.2-0.5-3.2-1.5V258.8"/>
	<path class="st6" d="M505.3,258.6c0.3-1.3,1.3-5.7,4.4-5.7c0.3,0,1.3,0,2.3,0.7c-1.3,0.2-2.2,1.4-2.2,2.6c0,0.8,0.5,1.6,1.7,1.6
		c1,0,2.4-0.9,2.4-2.8c0-2.5-2.7-3.2-4.2-3.2c-2.6,0-4.3,2.6-4.8,3.7c-1.1-3.2-3.5-3.7-4.9-3.7c-4.6,0-7.2,6.3-7.2,7.4
		c0,0.5,0.5,0.5,0.5,0.5c0.4,0,0.5-0.1,0.6-0.6c1.5-5,4.4-6.3,6-6.3c0.9,0,2.4,0.5,2.4,3.3c0,1.4-0.7,4.6-2.4,11.4
		c-0.7,3-2.3,5-4.3,5c-0.3,0-1.3,0-2.3-0.6c1.2-0.3,2.2-1.3,2.2-2.6s-1-1.7-1.7-1.7c-1.4,0-2.4,1.3-2.4,2.8c0,2.2,2.3,3.2,4.3,3.2
		c2.9,0,4.5-3.4,4.7-3.7c0.5,1.8,2.2,3.7,4.9,3.7c4.6,0,7.2-6.2,7.2-7.4c0-0.5-0.4-0.5-0.5-0.5c-0.4,0-0.5,0.2-0.5,0.6
		c-1.4,5.1-4.5,6.3-6,6.3c-1.8,0-2.5-1.5-2.5-3.2c0-1.1,0.3-2.1,0.8-4.2L505.3,258.6"/>
	<path class="st6" d="M527,258.8c0-0.9-0.1-0.9-1-0.9c-2,2.1-4.9,2.1-6.2,2.1v1.2c0.7,0,2.8,0,4.7-0.9v17.2c0,1.1,0,1.5-3.2,1.5H520
		v1.2c0.6,0,4.6-0.1,5.8-0.1c0.9,0,4.9,0.1,5.7,0.1V279h-1.2c-3.2,0-3.2-0.5-3.2-1.5L527,258.8"/>
	<path class="st6" d="M564.9,261.9h12.8c0.6,0,1.5,0,1.5-1s-0.8-1-1.5-1h-12.8v-13.5c0-0.7,0-1.5-0.9-1.5s-0.9,0.9-0.9,1.5v13.5
		h-12.8c-0.6,0-1.6,0-1.6,1s0.9,1,1.6,1h12.8v13.5c0,0.7,0,1.5,0.9,1.5s0.9-0.9,0.9-1.5V261.9"/>
	<path class="st6" d="M612.3,256.9c0.3-1.1,0.7-2.9,0.7-3.2c0-0.9-0.6-1.3-1.3-1.3c-0.5,0-1.4,0.4-1.7,1.3
		c-0.1,0.3-2.3,9.4-2.5,10.7c-0.4,1.4-0.5,2.3-0.5,3.2c0,0.6,0,0.7,0.1,0.9c-1.1,2.6-2.4,4-4.1,4c-3.6,0-3.6-3.6-3.6-4.3
		c0-1.5,0.2-3.5,2.3-9.3c0.5-1.4,0.7-2.1,0.7-3.1c0-2.1-1.4-3.9-3.7-3.9c-4.2,0-5.9,6.9-5.9,7.4s0.5,0.5,0.5,0.5
		c0.5,0,0.5-0.1,0.7-0.9c1.2-4.4,3-6,4.5-6c0.4,0,1.1,0.1,1.1,1.6c0,1.2-0.5,2.5-0.7,3.4c-2,5.6-2.5,7.8-2.5,9.6
		c0,4.4,3,6.1,6.3,6.1c0.8,0,2.9,0,4.7-3.4c1.2,3.1,4.3,3.4,5.6,3.4c3.4,0,5.4-3,6.6-5.9c1.5-3.8,3-10.2,3-12.5c0-2.6-1.3-3.4-2-3.4
		c-1.2,0-2.3,1.3-2.3,2.3c0,0.7,0.3,1,0.6,1.3c0.5,0.5,1.6,1.7,1.6,4c0,1.6-1.3,6.3-2.4,8.8c-1.2,2.6-2.8,4.2-5,4.2
		c-2.1,0-3.3-1.4-3.3-4.1c0-1.3,0.4-2.9,0.5-3.6L612.3,256.9"/>
	<path class="st6" d="M640,274h-1.1c-0.1,0.8-0.4,2.7-0.8,3.1c-0.3,0.2-2.7,0.2-3.2,0.2h-6.2c3.5-3.2,4.6-4.1,6.6-5.7
		c2.4-2,4.7-4.1,4.7-7.2c0-4.1-3.5-6.6-7.7-6.6c-4,0-6.8,2.9-6.8,6c0,1.7,1.4,1.9,1.7,1.9c0.8,0,1.8-0.6,1.8-1.8
		c0-0.6-0.3-1.7-2-1.7c1-2.4,3.3-3.2,4.8-3.2c3.3,0,5,2.6,5,5.4c0,2.9-2,5.2-3.1,6.5l-7.9,8c-0.3,0.3-0.3,0.4-0.3,1.3h13.6L640,274"
		/>
	<path class="st6" d="M658.9,258.6c0.3-1.3,1.3-5.7,4.4-5.7c0.3,0,1.4,0,2.3,0.7c-1.3,0.2-2.2,1.4-2.2,2.6c0,0.8,0.5,1.6,1.7,1.6
		c1,0,2.4-0.9,2.4-2.8c0-2.5-2.6-3.2-4.2-3.2c-2.6,0-4.3,2.6-4.8,3.7c-1.1-3.2-3.5-3.7-4.8-3.7c-4.7,0-7.3,6.3-7.3,7.4
		c0,0.5,0.5,0.5,0.5,0.5c0.4,0,0.5-0.1,0.6-0.6c1.5-5,4.5-6.3,6.1-6.3c0.8,0,2.4,0.5,2.4,3.3c0,1.4-0.8,4.6-2.4,11.4
		c-0.7,3-2.4,5-4.3,5c-0.3,0-1.3,0-2.3-0.6c1.2-0.3,2.2-1.3,2.2-2.6s-1-1.7-1.7-1.7c-1.4,0-2.4,1.3-2.4,2.8c0,2.2,2.3,3.2,4.3,3.2
		c3,0,4.6-3.4,4.7-3.7c0.5,1.8,2.2,3.7,4.9,3.7c4.6,0,7.2-6.2,7.2-7.4c0-0.5-0.5-0.5-0.5-0.5c-0.5,0-0.5,0.2-0.6,0.6
		c-1.4,5.1-4.5,6.3-6,6.3c-1.7,0-2.4-1.5-2.4-3.2c0-1.1,0.3-2.1,0.7-4.2L658.9,258.6"/>
	<path class="st6" d="M685.7,274h-1.1c-0.1,0.8-0.4,2.7-0.8,3.1c-0.2,0.2-2.6,0.2-3,0.2h-5.7c3.2-3.2,4.3-4.1,6.2-5.7
		c2.3-2,4.5-4.1,4.5-7.2c0-4.1-3.3-6.6-7.2-6.6s-6.5,2.9-6.5,6c0,1.7,1.3,1.9,1.7,1.9c0.7,0,1.6-0.6,1.6-1.8c0-0.6-0.2-1.7-1.9-1.7
		c1-2.4,3.1-3.2,4.6-3.2c3.1,0,4.7,2.6,4.7,5.4c0,2.9-1.9,5.2-2.9,6.5l-7.5,8c-0.4,0.3-0.4,0.4-0.4,1.3h12.9L685.7,274"/>
	<path class="st6" d="M729.8,261.9c0.7,0,1.5,0,1.5-1s-0.8-1-1.5-1h-24.5c-0.7,0-1.5,0-1.5,1s0.8,1,1.5,1H729.8"/>
	<path class="st6" d="M756,240.1c0-0.1,0-0.6-0.6-0.6c-1,0-4.4,0.4-5.6,0.5c-0.4,0.1-0.8,0.1-0.8,1c0,0.6,0.4,0.6,1.1,0.6
		c2.2,0,2.3,0.4,2.3,0.9c0,0.3-0.5,1.9-0.6,3l-3.7,15.7c-0.5,2.4-0.7,3.2-0.7,4.9c0,4.5,2.4,7.5,5.7,7.5c5.4,0,10.9-7.2,10.9-14.1
		c0-4.4-2.4-7.7-6-7.7c-2.1,0-3.9,1.5-5.3,2.9L756,240.1L756,240.1L756,240.1z M751.8,258.4c0.3-1,0.3-1.1,0.6-1.6
		c2.3-3.1,4.3-3.9,5.5-3.9c1.6,0,2.9,1.5,2.9,4.5c0,2.8-1.5,8.4-2.4,10.3c-1.5,3.2-3.6,4.9-5.4,4.9c-1.5,0-3-1.3-3-4.8
		c0-1,0-1.8,0.7-4.9L751.8,258.4"/>
</g>
<polygon class="st7" points="517,506.6 520.6,513.8 528.6,515 522.8,520.7 524.2,528.5 517,524.8 509.8,528.5 511.2,520.7 
	505.4,515 513.4,513.8 "/>
<polygon class="st7" points="367,566.5 370.6,573.8 378.6,575 372.8,580.7 374.2,588.5 367,584.8 359.8,588.5 361.2,580.7 
	355.4,575 363.4,573.8 "/>
<polygon class="st7" points="411,679.5 414.6,686.8 422.6,688 416.8,693.7 418.2,701.5 411,697.8 403.8,701.5 405.2,693.7 
	399.4,688 407.4,686.8 "/>
<polygon class="st7" points="606,448.6 609.6,455.9 617.6,457 611.8,462.7 613.2,470.6 606,466.9 598.8,470.6 600.2,462.7 
	594.4,457 602.4,455.9 "/>
<circle class="st0" cx="411" cy="660.8" r="11"/>
<circle class="st0" cx="606" cy="424.8" r="11"/>
<circle class="st0" cx="365" cy="441.8" r="11"/>
</svg>
